#N canvas 0 38 864 1051 12;
#X obj 189 48 r feed_in_31415926;
#X text 1027 39 receive:;
#X text 1027 59 - ordered list of adresses to neighboring knots \, starting with self;
#X text 567 900 send:;
#X text 567 920 - bang adressed to next knot;
#X text 1069 175 set list of neighboring knots;
#X text 1069 195 set length of array to number;
#X text 567 940 - bang adressed to event;
#X text 1027 139 - all bangs \, filters ones adressed to itself;
#X text 1027 119 - global delay times (>0);
#X obj 467 49 r delay_31415926;
#X obj 463 754 s;
#X text 1027 159 - set event adress;
#N canvas 0 38 1728 1027 route_messages 0;
#X obj 59 3 inlet;
#X obj 59 147 t a b;
#X obj 59 177 route test;
#X obj 59 247 bng 19 250 50 0 empty empty empty 0 -10 0 12 #fcfcfc #000000 #000000;
#X listbox 149 180 20 0 0 0 - - - 0;
#X obj 149 156 makefilename knot%d;
#X listbox 709 519 6 0 0 0 - - - 0;
#X obj 289 878 outlet;
#X obj 59 878 outlet;
#X obj 289 488 symbol;
#X obj 335 366 symbol;
#X obj 59 201 route play set get, f 158;
#X obj 359 878 outlet;
#X obj 429 878 outlet;
#X obj 699 878 outlet;
#X obj 769 878 outlet;
#X obj 839 878 outlet;
#X obj 699 488 symbol;
#X obj 655 496 bng 19 250 50 0 empty empty empty 0 -10 0 12 #fcfcfc #000000 #000000;
#X text 298 312 route set functions;
#X text 720 312 route get functions;
#X obj 289 334 route event knots probab delay;
#X obj 699 334 route event knots probab delay;
#X obj 468 489 float;
#X obj 499 878 outlet;
#X obj 908 569 float;
#X obj 909 878 outlet;
#X obj 663 398 bng 19 250 50 0 empty empty empty 0 -10 0 12 #fcfcfc #000000 #000000;
#X obj 715 121 inlet;
#X obj 396 536 bng 19 250 50 0 empty empty empty 0 -10 0 12 #fcfcfc #000000 #000000;
#X msg 731 668 set \$1;
#X obj 699 705 makefilename not-set-yet;
#X obj 699 754 list trim;
#X obj 799 777 symbol;
#X listbox 799 801 35 0 0 0 - - - 0;
#X obj 699 580 t a b;
#X obj 731 637 makefilename knot%d\ event\ %%s;
#X obj 483 528 s \$0-delay;
#X obj 149 132 \$1;
#X obj 731 607 f \$1;
#X obj 59 67 t a b;
#X obj 59 97 route test;
#X listbox 149 100 20 0 0 0 - - - 0;
#X obj 149 52 \$2;
#X obj 149 76 makefilename net%d;
#X text 177 51 filter for net;
#X text 177 131 filter for knot;
#X connect 0 0 40 0;
#X connect 1 0 2 0;
#X connect 1 1 38 0;
#X connect 2 0 11 0;
#X connect 3 0 8 0;
#X connect 4 0 2 1;
#X connect 5 0 4 0;
#X connect 9 0 7 0;
#X connect 10 0 17 1;
#X connect 11 0 3 0;
#X connect 11 1 21 0;
#X connect 11 2 22 0;
#X connect 17 0 6 0;
#X connect 17 0 35 0;
#X connect 18 0 17 0;
#X connect 21 0 9 0;
#X connect 21 0 10 0;
#X connect 21 1 12 0;
#X connect 21 2 13 0;
#X connect 21 2 29 0;
#X connect 21 3 23 0;
#X connect 22 0 17 0;
#X connect 22 0 27 0;
#X connect 22 1 15 0;
#X connect 22 2 16 0;
#X connect 22 3 25 0;
#X connect 23 0 24 0;
#X connect 23 0 25 1;
#X connect 23 0 37 0;
#X connect 25 0 26 0;
#X connect 28 0 23 0;
#X connect 30 0 31 0;
#X connect 31 0 32 0;
#X connect 31 0 33 0;
#X connect 32 0 14 0;
#X connect 33 0 34 0;
#X connect 35 0 31 0;
#X connect 35 1 39 0;
#X connect 36 0 30 0;
#X connect 38 0 5 0;
#X connect 39 0 36 0;
#X connect 40 0 41 0;
#X connect 40 1 43 0;
#X connect 41 0 1 0;
#X connect 42 0 41 1;
#X connect 43 0 44 0;
#X connect 44 0 42 0;
#X restore 189 140 pd route_messages;
#X f 50;
#X obj 189 409 t b b;
#X obj 189 757 del;
#X text 365 922 bang to next knot;
#X text 365 942 = adress of knot to feed;
#X floatatom 717 270 5 0 0 1 delay\ get - - 0;
#X floatatom 232 757 5 0 0 0 - - - 0;
#X obj 190 782 float;
#X obj 104 771 bng 19 250 50 0 empty empty empty 0 -10 0 12 #fcfcfc #000000 #000000;
#X obj 189 831 list append play;
#X obj 189 855 list trim;
#X obj 421 569 list store;
#X obj 545 473 list store;
#X obj 545 450 bng 19 250 50 0 empty empty empty 0 -10 0 12 #fcfcfc #000000 #000000;
#X obj 189 433 t b b;
#X msg 409 541 get \$1;
#X text 1027 89 - ordered list of transition probabilities to neighboring knots \, starting with self \, but have to be integers!;
#N canvas 0 38 1040 1051 set_ICDF 0;
#X obj 138 58 inlet;
#X obj 132 1038 outlet;
#X text 389 290 set length of \$0-probabilities;
#X text 371 478 fill \$0-probabilities;
#X text 389 310 set length of \$0-CDF;
#X text 344 745 calculate sum of \$0-probabilities;
#X text 193 57 list;
#N canvas 759 797 450 278 (subpatch) 0;
#X array \$0-probabilities 24 float 3;
#A 0 0.166667 0.166667 0.166667 0 0 0 0 0 0 0 0 0 0.166667 0.166667 0.166667 0 0 0 0 0 0 0 0 0;
#X coords 0 1 24 0 400 50 1 0 0;
#X restore 594 25 graph;
#N canvas 440 478 450 278 (subpatch) 0;
#X array \$0-CDF 24 float 3;
#A 0 0.166667 0.333333 0.5 0.5 0.5 0.5 0.5 0.5 0.5 0.5 0.5 0.5 0.666667 0.833333 1 1 1 1 1 1 1 1 1 1;
#X coords 0 1 24 0 400 50 1 0 0;
#X restore 594 95 graph;
#X listbox 183 102 34 0 0 0 - - - 0;
#X obj 251 175 list length;
#X floatatom 251 199 5 0 0 0 - - - 0;
#X obj 251 284 s \$0-probabilities;
#X obj 251 314 s \$0-CDF;
#X msg 251 254 resize \$1;
#X text 312 550 calculate \$0-CDF with until length;
#X obj 226 475 s \$0-probabilities;
#X obj 154 549 until;
#X obj 154 587 f;
#X obj 202 580 + 1;
#X obj 257 576 sel 0;
#X obj 202 606 mod 10;
#X obj 154 719 tabread \$0-probabilities;
#X obj 251 222 - 0;
#X obj 193 426 list prepend 0;
#X obj 153 833 tabwrite \$0-CDF;
#X floatatom 153 741 5 0 0 0 - - - 0;
#X obj 153 764 +;
#X floatatom 153 788 5 0 0 0 - - - 0;
#X obj 154 631 t f f f;
#X obj 223 633 sel 0;
#X msg 223 657 0;
#X obj 153 811 /;
#X obj 271 769 array sum \$0-probabilities;
#X floatatom 271 793 5 0 0 0 - - - 0;
#X obj 193 450 t b l;
#X text 284 814 calculate cum frequencies by sum;
#X obj 135 148 t l l l b l l b l;
#X obj 723 291 array sum \$0-probabilities;
#X obj 723 268 bng 19 250 50 0 empty empty empty 0 -10 0 12 #fcfcfc #000000 #000000;
#X floatatom 723 315 5 0 0 0 - - - 0;
#X floatatom 238 378 5 0 0 0 - - - 0;
#X obj 238 355 list-abs/list-accum;
#X obj 193 402 list-abs/list-math /;
#X obj 193 353 t l l;
#X obj 226 531 list length;
#X floatatom 226 555 5 0 0 0 - - - 0;
#X obj 154 500 t b b l, f 14;
#X obj 147 313 t l b l;
#X text 379 355 get sum of list;
#X text 342 402 normalize so that all probabilities add to 1;
#X obj 154 692 t f f b, f 24;
#X connect 0 0 9 0;
#X connect 0 0 37 0;
#X connect 10 0 11 0;
#X connect 11 0 23 0;
#X connect 14 0 12 0;
#X connect 14 0 13 0;
#X connect 17 0 18 0;
#X connect 18 0 29 0;
#X connect 19 0 21 0;
#X connect 20 0 17 1;
#X connect 21 0 18 1;
#X connect 21 0 20 0;
#X connect 22 0 26 0;
#X connect 23 0 14 0;
#X connect 24 0 35 0;
#X connect 26 0 27 0;
#X connect 27 0 28 0;
#X connect 28 0 27 1;
#X connect 28 0 32 0;
#X connect 29 0 51 0;
#X connect 29 1 19 0;
#X connect 29 2 30 0;
#X connect 30 0 31 0;
#X connect 31 0 27 1;
#X connect 32 0 25 0;
#X connect 33 0 34 0;
#X connect 34 0 32 1;
#X connect 35 1 16 0;
#X connect 37 0 48 0;
#X connect 37 7 10 0;
#X connect 38 0 40 0;
#X connect 39 0 38 0;
#X connect 41 0 43 1;
#X connect 42 0 41 0;
#X connect 43 0 24 0;
#X connect 44 0 43 0;
#X connect 44 1 42 0;
#X connect 45 0 46 0;
#X connect 46 0 21 1;
#X connect 47 0 17 0;
#X connect 47 2 45 0;
#X connect 48 0 47 0;
#X connect 48 2 44 0;
#X connect 51 0 22 0;
#X connect 51 1 25 1;
#X connect 51 2 33 0;
#X restore 445 387 pd set_ICDF;
#N canvas 864 38 864 1051 get_ICDF 0;
#X obj 79 36 inlet;
#X obj 90 969 outlet;
#X text 123 36 bang;
#X text 201 155 draw random number;
#X floatatom 307 471 5 0 0 0 - - - 0;
#X obj 309 550 until;
#X obj 309 588 f;
#X obj 357 581 + 1;
#X obj 417 698 sel 0;
#X obj 357 607 mod 10;
#X obj 309 632 t f f f;
#X obj 371 528 array size \$0-probabilities;
#X floatatom 371 552 5 0 0 0 - - - 0;
#X obj 330 710 >;
#X obj 308 740 spigot;
#X obj 362 737 tgl 19 0 empty empty empty 0 -10 0 12 #fcfcfc #000000 #000000 0 1;
#X obj 333 655 tabread \$0-CDF;
#X obj 272 767 bng 19 250 50 0 empty empty empty 0 -10 0 12 #fcfcfc #000000 #000000;
#X obj 412 787 bng 19 250 50 0 empty empty empty 0 -10 0 12 #fcfcfc #000000 #000000;
#X msg 308 763 append \$1;
#X obj 308 786 list store;
#X msg 308 810 \$1;
#X obj 309 679 f;
#X floatatom 311 844 11 0 0 0 - - - 0;
#X obj 282 524 t b b;
#X obj 307 494 t b f b b;
#X obj 79 60 random 1000;
#X obj 79 84 / 1000;
#X connect 0 0 26 0;
#X connect 4 0 25 0;
#X connect 5 0 6 0;
#X connect 6 0 10 0;
#X connect 7 0 9 0;
#X connect 8 0 5 1;
#X connect 9 0 6 1;
#X connect 9 0 8 0;
#X connect 10 0 22 0;
#X connect 10 1 16 0;
#X connect 10 2 7 0;
#X connect 11 0 9 1;
#X connect 11 0 12 0;
#X connect 13 0 14 1;
#X connect 13 0 15 0;
#X connect 14 0 19 0;
#X connect 16 0 13 0;
#X connect 17 0 20 0;
#X connect 18 0 20 1;
#X connect 19 0 20 0;
#X connect 20 0 21 0;
#X connect 21 0 23 0;
#X connect 22 0 14 0;
#X connect 23 0 1 0;
#X connect 24 0 17 0;
#X connect 24 1 5 0;
#X connect 25 0 24 0;
#X connect 25 1 13 1;
#X connect 25 2 11 0;
#X connect 25 3 18 0;
#X connect 26 0 27 0;
#X connect 27 0 4 0;
#X restore 234 519 pd get_ICDF;
#X obj 226 102 bng 19 250 50 0 empty empty empty 0 -10 0 12 #fcfcfc #000000 #000000;
#X floatatom 234 543 5 0 0 0 - - - 0;
#X floatatom 308 764 5 0 0 0 - - - 0;
#X obj 276 670 loadbang;
#X msg 276 694 1;
#X obj 147 1014 s feed_out_31415926;
#X obj 329 897 s display_out_31415926;
#X floatatom 444 601 5 0 0 3 nxt\ evt - - 8;
#X msg 749 382 set \$1;
#X obj 717 409 makefilename not-set-yet;
#X obj 717 294 t f b;
#X obj 717 438 list trim;
#X listbox 791 440 29 0 0 0 - - - 0;
#X obj 749 351 makefilename knot%d\ delay\ %%d;
#X floatatom 483 603 5 0 0 3 delay \$0-delay - 8;
#X obj 749 321 f \$1;
#X obj 189 807 makefilename knot%d;
#X obj 545 497 print;
#X obj 726 555 array get \$0-probabilities;
#X obj 726 531 bng 19 250 50 0 empty empty empty 0 -10 0 12 #fcfcfc #000000 #000000;
#X obj 726 579 print;
#X text 1249 407 to do: allow linear neighbor mode \, where it just uses its itself and its next door neighbors (n-1 \, n \, n+1) as target knots with uniformous probabilities;
#X text 1249 457 to do: allow easy control for adding neighbors to the list;
#X obj 208 931 makefilename net%d;
#X obj 189 879 t a b;
#X obj 149 960 list prepend;
#X obj 217 906 f \$2;
#X obj 149 984 list trim;
#X obj 383 669 makefilename net%d;
#X obj 383 644 f \$2;
#X obj 383 618 t b;
#X obj 383 693 t a b;
#X obj 479 691 f \$1;
#X obj 383 741 list trim;
#X obj 479 716 makefilename knot%d;
#X obj 383 717 list append;
#X obj 100 100 cnv 19 42 42 empty \$0-cnv_r empty 15 6 0 10 #606060 #ff0000 0;
#X obj 106 106 bng 30 250 50 0 \$0-bng_s \$0-bng_r file.0 7 15 0 5 #606060 #ff0000 #ff0000;
#X text 750 531 print probabilities;
#X text 899 873 set positions of canvas and bang;
#X obj 190 166 s \$0-bng_r;
#X obj 107 317 r \$0-bng_s;
#X obj 940 1045 namecanvas \$0-knot;
#X floatatom 818 823 5 0 0 0 - - - 0;
#X text 1027 265 \$3: knot size;
#X obj 809 717 \$3;
#X obj 1460 856 s \$0-cnv_r;
#X obj 1460 576 loadbang;
#X obj 1460 774 pack s s s;
#X text 1027 285 \$4: background color;
#X obj 1569 883 s \$0-bng_r;
#X text 1027 305 \$5: front color;
#X text 1027 325 \$6: label color;
#X obj 1460 798 t l l, f 16;
#X text 1027 345 \$7: alternative label;
#X obj 1460 600 t b b b b b b, f 79;
#X obj 809 741 sel 0;
#X msg 1460 820 color \$1 \$2 \$3;
#X msg 1569 847 color \$1 \$2 \$3;
#X msg 1570 672 symbol #e1e1e1;
#X msg 782 769 30;
#X obj 1143 697 symbol \$7;
#X obj 1142 720 makefilename %s;
#X msg 1142 744 set \$1;
#X obj 1117 777 makefilename;
#X listbox 1117 801 20 0 0 0 - - - 0;
#X obj 1120 674 t b b b;
#X obj 1071 703 t b b;
#X obj 1099 737 bng 19 250 50 0 empty empty empty 0 -10 0 12 #fcfcfc #000000 #000000;
#X obj 1460 624 symbol \$4;
#X obj 2041 278 hsl 162 19 0 127 0 0 empty empty empty -2 -10 0 12 #fcfcfc #000000 #000000 0 1;
#X obj 1460 648 makefilename %s;
#X msg 1460 672 set \$1;
#X obj 1460 699 makefilename;
#X msg 1570 696 set \$1;
#X msg 1790 672 symbol #e1e1e1;
#X obj 1680 648 makefilename %s;
#X msg 1680 672 set \$1;
#X obj 1680 699 makefilename;
#X msg 1790 696 set \$1;
#X msg 2010 672 symbol #e1e1e1;
#X obj 1900 648 makefilename %s;
#X msg 1900 672 set \$1;
#X obj 1900 699 makefilename;
#X msg 2010 696 set \$1;
#X obj 1680 624 symbol \$5;
#X obj 1900 624 symbol \$6;
#X obj 1090 659 bng 19 250 50 0 empty empty empty 0 -10 0 12 #fcfcfc #000000 #000000;
#X obj 1379 530 r init;
#N canvas 295 333 1242 756 positions 0;
#X msg 486 405 size \$1;
#X floatatom 550 89 5 0 0 0 - - - 0;
#X obj 557 340 t f b b;
#X obj 559 446 pack f f;
#X msg 553 473 pos \$1 \$2;
#X msg 568 369 100;
#X msg 610 368 100;
#X msg 891 425 pos 100 100;
#X obj 875 329 + 20;
#X obj 875 353 t f b;
#X msg 876 387 vis_size \$1 \$1;
#X obj 568 393 + 2;
#X obj 611 393 + 2;
#X floatatom 832 222 5 0 0 0 offset - - 0;
#X obj 832 245 t f f f;
#X obj 874 279 * 2;
#X obj 224 475 t b f;
#X floatatom 224 448 5 5 50 0 - - - 0;
#X msg 182 545 label_font \$1 \$2;
#X text 268 446 size;
#X floatatom 336 464 4 -200 100 0 - - - 0;
#X obj 378 491 t b f;
#X floatatom 378 464 5 -150 150 0 - - - 0;
#X msg 336 561 label_pos \$1 \$2;
#X text 318 463 x;
#X text 422 462 y;
#X text 331 440 label offset:;
#X obj 336 519 pack 35 15, f 11;
#X obj 182 504 pack 0 15, f 11;
#X floatatom 172 429 5 0 0 0 - - - 0;
#X msg 301 230 \$1;
#N canvas 260 403 980 686 symbollength 0;
#X obj 122 443 sel s;
#X obj 143 291 makefilename %%.%ds;
#X msg 143 318 set \$1;
#X obj 48 142 until;
#X obj 76 227 + 1;
#X obj 33 553 f;
#X obj 122 241 symbol;
#X obj 48 168 t b b;
#X obj 149 493 s \$0-stop;
#X obj 122 469 t b b;
#X obj 75 104 r \$0-stop;
#X obj 192 398 print;
#X obj 184 43 inlet;
#X obj 184 104 t b b s;
#X obj 184 77 route symbol;
#X obj 33 574 outlet;
#X obj 192 375 spigot 0;
#X obj 237 353 tgl 15 0 empty empty empty 17 7 0 10 #fcfcfc #000000 #000000 0 1;
#X obj 223 134 s \$0-sym;
#X obj 122 210 r \$0-sym;
#X obj 149 420 r \$0-sym;
#X obj 122 352 makefilename;
#X text 31 15 find length of symbol by iterating the first n characters;
#X text 276 292 <- sprintf fun;
#X text 266 353 <- try this on;
#X obj 48 227 f 1;
#X msg 138 162 1;
#X text 531 89 Matt Barber \, on:;
#X text 528 112 https://lists.iem.at/hyperkitty/list/pd-list@lists.iem.at/message/VQVU4CXVC3ZSIEXVGXEWZY2QDNNQZG53/;
#X connect 0 0 9 0;
#X connect 1 0 2 0;
#X connect 2 0 21 0;
#X connect 3 0 7 0;
#X connect 4 0 25 1;
#X connect 5 0 15 0;
#X connect 6 0 21 0;
#X connect 7 0 6 0;
#X connect 7 1 25 0;
#X connect 9 0 5 0;
#X connect 9 1 8 0;
#X connect 10 0 3 1;
#X connect 12 0 14 0;
#X connect 13 0 3 0;
#X connect 13 1 26 0;
#X connect 13 2 18 0;
#X connect 14 0 13 0;
#X connect 16 0 11 0;
#X connect 17 0 16 1;
#X connect 19 0 6 1;
#X connect 20 0 0 1;
#X connect 21 0 0 0;
#X connect 21 0 16 0;
#X connect 25 0 4 0;
#X connect 25 0 5 1;
#X connect 25 0 1 0;
#X connect 26 0 25 1;
#X restore 304 289 pd symbollength;
#X floatatom 304 313 5 0 0 0 - - - 0;
#X obj 298 258 symbol;
#X obj 557 297 t f f f;
#X msg 172 476 3;
#X obj 186 379 / 1;
#X obj 186 403 * 1;
#X obj 331 384 * 0.5;
#X obj 279 407 * 0.25;
#X obj 273 356 t f f f;
#X msg 301 206 label \$1;
#X obj 511 524 s \$0-bng_r;
#X obj 885 525 s \$0-cnv_r;
#X obj 550 31 inlet;
#X obj 696 671 outlet;
#X msg 837 103 6;
#X obj 550 55 t f f b, f 36;
#X obj 692 635 +;
#X obj 301 27 inlet;
#X obj 188 331 t b f;
#X connect 0 0 42 0;
#X connect 1 0 34 0;
#X connect 2 0 0 0;
#X connect 2 1 5 0;
#X connect 2 2 6 0;
#X connect 3 0 4 0;
#X connect 4 0 42 0;
#X connect 5 0 11 0;
#X connect 6 0 12 0;
#X connect 7 0 43 0;
#X connect 8 0 9 0;
#X connect 9 0 10 0;
#X connect 9 1 7 0;
#X connect 10 0 43 0;
#X connect 11 0 3 0;
#X connect 12 0 3 1;
#X connect 13 0 14 0;
#X connect 14 0 11 1;
#X connect 14 1 12 1;
#X connect 14 2 15 0;
#X connect 15 0 8 1;
#X connect 15 0 48 1;
#X connect 16 0 28 0;
#X connect 16 1 28 1;
#X connect 17 0 16 0;
#X connect 18 0 42 0;
#X connect 20 0 27 0;
#X connect 21 0 27 0;
#X connect 21 1 27 1;
#X connect 22 0 21 0;
#X connect 23 0 42 0;
#X connect 27 0 23 0;
#X connect 28 0 18 0;
#X connect 29 0 17 0;
#X connect 30 0 33 0;
#X connect 31 0 32 0;
#X connect 32 0 50 0;
#X connect 33 0 31 0;
#X connect 34 0 2 0;
#X connect 34 1 8 0;
#X connect 34 2 40 0;
#X connect 35 0 28 0;
#X connect 36 0 37 0;
#X connect 37 0 29 0;
#X connect 38 0 22 0;
#X connect 39 0 20 0;
#X connect 40 0 36 0;
#X connect 40 1 39 0;
#X connect 40 2 38 0;
#X connect 41 0 30 0;
#X connect 41 0 42 0;
#X connect 44 0 47 0;
#X connect 46 0 13 0;
#X connect 47 0 1 0;
#X connect 47 1 48 0;
#X connect 47 2 46 0;
#X connect 48 0 45 0;
#X connect 49 0 41 0;
#X connect 50 0 36 0;
#X connect 50 1 36 1;
#X restore 811 873 pd positions;
#X obj 812 898 t f f;
#X obj 812 922 pack f f;
#X obj 812 993 s \$0-knot;
#X msg 812 949 donecanvasdialog 1 -1 2 0 -1 1 1 \$1 \$2 100 100, f 23;
#X obj 874 653 bng 19 250 50 0 empty empty empty 0 -10 0 12 #fcfcfc #000000 #000000;
#X obj 908 700 \$1;
#X obj 908 726 makefilename %s-%%s;
#X obj 871 781 makefilename %s;
#X msg 908 750 set \$1;
#X obj 874 677 t b b;
#X obj 874 701 \$2;
#X listbox 871 805 20 0 0 0 - - - 0;
#X msg 1276 819 symbol test;
#X obj 807 607 r init;
#X obj 807 631 t b b;
#X obj 945 596 loadbang;
#X obj 1431 693 bng 19 250 50 0 empty empty empty 0 -10 0 12 #fcfcfc #000000 #000000;
#X obj 1379 554 t b b b b;
#X text 1027 225 \$1: knot number. All knots are part of a single net;
#X text 1027 245 \$2: net number.;
#X floatatom 792 319 5 0 0 0 - - - 0;
#X floatatom 519 691 5 0 0 0 - - - 0;
#X floatatom 422 645 5 0 0 0 - - - 0;
#X listbox 26 854 20 0 0 0 - - - 0;
#X obj 32 832 symbol;
#X msg 132 17 net2 knot13 play;
#X obj 807 655 t b b;
#X obj 1121 633 bng 19 250 50 0 empty empty empty 0 -10 0 12 #fcfcfc #000000 #000000;
#X connect 0 0 13 0;
#X connect 0 0 32 0;
#X connect 10 0 13 1;
#X connect 13 0 72 0;
#X connect 13 1 11 1;
#X connect 13 2 24 1;
#X connect 13 2 25 1;
#X connect 13 3 30 0;
#X connect 13 4 19 0;
#X connect 13 5 38 0;
#X connect 13 6 26 0;
#X connect 13 7 51 0;
#X connect 13 8 18 0;
#X connect 14 0 27 0;
#X connect 14 1 11 0;
#X connect 15 0 20 0;
#X connect 18 0 42 0;
#X connect 19 0 15 1;
#X connect 20 0 48 0;
#X connect 21 0 20 0;
#X connect 22 0 23 0;
#X connect 23 0 56 0;
#X connect 23 0 146 0;
#X connect 24 0 34 0;
#X connect 24 0 39 0;
#X connect 25 0 49 0;
#X connect 26 0 25 0;
#X connect 27 0 15 0;
#X connect 27 1 31 0;
#X connect 27 1 62 0;
#X connect 28 0 24 0;
#X connect 31 0 33 0;
#X connect 33 0 28 0;
#X connect 34 0 20 1;
#X connect 35 0 36 0;
#X connect 36 0 19 0;
#X connect 40 0 41 0;
#X connect 41 0 44 0;
#X connect 41 0 43 0;
#X connect 42 0 41 0;
#X connect 42 1 47 0;
#X connect 43 0 38 0;
#X connect 45 0 40 0;
#X connect 47 0 45 0;
#X connect 47 0 142 0;
#X connect 48 0 22 0;
#X connect 50 0 52 0;
#X connect 51 0 50 0;
#X connect 55 0 57 1;
#X connect 56 0 57 0;
#X connect 56 1 58 0;
#X connect 57 0 59 0;
#X connect 58 0 55 0;
#X connect 59 0 37 0;
#X connect 60 0 63 0;
#X connect 61 0 60 0;
#X connect 61 0 144 0;
#X connect 62 0 61 0;
#X connect 63 0 67 0;
#X connect 63 1 64 0;
#X connect 64 0 66 0;
#X connect 64 0 143 0;
#X connect 65 0 38 0;
#X connect 66 0 67 1;
#X connect 67 0 65 0;
#X connect 73 0 14 0;
#X connect 75 0 121 1;
#X connect 77 0 88 0;
#X connect 79 0 87 0;
#X connect 80 0 85 0;
#X connect 85 0 89 0;
#X connect 85 1 90 0;
#X connect 87 0 101 0;
#X connect 87 1 91 0;
#X connect 87 2 117 0;
#X connect 87 3 107 0;
#X connect 87 4 118 0;
#X connect 87 5 112 0;
#X connect 88 0 92 0;
#X connect 88 1 75 0;
#X connect 89 0 78 0;
#X connect 90 0 82 0;
#X connect 91 0 106 0;
#X connect 92 0 75 0;
#X connect 93 0 94 0;
#X connect 94 0 95 0;
#X connect 95 0 96 0;
#X connect 96 0 97 0;
#X connect 97 0 121 0;
#X connect 98 0 99 0;
#X connect 98 1 93 0;
#X connect 99 1 96 0;
#X connect 100 0 96 0;
#X connect 101 0 103 0;
#X connect 103 0 104 0;
#X connect 104 0 105 0;
#X connect 105 0 80 0;
#X connect 106 0 105 0;
#X connect 107 0 111 0;
#X connect 108 0 109 0;
#X connect 109 0 110 0;
#X connect 110 0 80 1;
#X connect 111 0 110 0;
#X connect 112 0 116 0;
#X connect 113 0 114 0;
#X connect 114 0 115 0;
#X connect 115 0 80 2;
#X connect 116 0 115 0;
#X connect 117 0 108 0;
#X connect 118 0 113 0;
#X connect 119 0 93 0;
#X connect 120 0 139 0;
#X connect 121 0 122 0;
#X connect 122 0 123 0;
#X connect 122 1 123 1;
#X connect 123 0 125 0;
#X connect 125 0 124 0;
#X connect 126 0 131 0;
#X connect 127 0 128 0;
#X connect 128 0 130 0;
#X connect 129 0 133 0;
#X connect 130 0 129 0;
#X connect 131 0 132 0;
#X connect 131 1 127 0;
#X connect 132 0 129 0;
#X connect 133 0 121 0;
#X connect 134 0 97 0;
#X connect 135 0 136 0;
#X connect 136 0 148 0;
#X connect 136 1 126 0;
#X connect 137 0 98 0;
#X connect 137 0 136 0;
#X connect 138 0 105 0;
#X connect 139 0 138 0;
#X connect 139 1 110 0;
#X connect 139 2 115 0;
#X connect 139 3 87 0;
#X connect 146 0 145 0;
#X connect 147 0 13 0;
#X connect 148 0 98 0;
#X connect 148 1 77 0;
#X connect 149 0 98 0;
#X coords 0 -1 1 1 42 42 2 100 100;
