#N canvas 0 38 1728 1051 12;
#N canvas 0 38 864 1051 \$0-patch 0;
#X obj 110 110 knot 1 3 40 #606060 #ffffff #ffffff A1;
#X obj 260 110 knot 2 3 40 #e1e1e1 #000000 #000000 B2;
#X obj 410 110 knot 3 3 40 #ffc7c7 #000000 #000000 C3;
#X obj 560 110 knot 4 3 40 #ff0f00 #ffffff #000000 D4;
#X obj 110 180 knot 5 3 40 #606060 #ffffff #ffffff E5;
#X obj 260 180 knot 6 3 40 #e1e1e1 #000000 #000000 F6;
#X obj 410 180 knot 7 3 40 #ffc7c7 #000000 #000000 G7;
#X obj 560 180 knot 8 3 40 #ff0f00 #ffffff #000000 H8;
#X coords 0 -1 1 1 526 148 2 100 100;
#X restore 101 101 pd \$0-patch;
#X obj 273 780 s pd-\$0-patch;
#X msg 317 753 clear;
#X obj 611 1249 s pd-\$0-patch;
#X msg 530 1187 clear;
#X obj 697 464 until;
#X obj 697 502 f;
#X obj 735 495 + 1;
#X obj 790 491 sel 0;
#X obj 767 673 list store;
#X obj 779 607 loadbang;
#X msg 767 579 get \$1;
#X obj 697 441 bng 19 250 50 0 empty empty empty 0 -10 0 12 #fcfcfc #000000 #000000;
#X obj 699 720 list store;
#X msg 699 653 get \$1;
#X obj 697 418 t b b;
#X listbox 1006 1064 20 0 0 1 knot\ label - - 0;
#X floatatom 399 950 5 0 0 1 x\ pos - - 0;
#X floatatom 438 972 5 0 0 1 y\ pos - - 0;
#X floatatom 651 1027 5 0 0 1 net\ number - - 0;
#X floatatom 704 1042 5 0 0 1 knot\ number - - 0;
#X listbox 838 1107 20 0 0 1 background\ color - - 0;
#X listbox 878 1137 20 0 0 1 front\ color - - 0;
#X listbox 918 1167 20 0 0 1 label\ color - - 0;
#X floatatom 744 1098 5 0 0 1 knot\ size - - 0;
#X obj 1291 894 t f;
#N canvas 498 536 921 551 color_choose 0;
#X obj 79 20 inlet;
#X obj 131 508 outlet;
#X obj 242 510 outlet;
#X obj 346 511 outlet;
#X obj 112 131 - 1;
#X text 226 195 select different option according to knot number;
#X obj 99 436 unpack s s s;
#X obj 112 83 t f;
#X msg 116 269 #e1e1e1 #000000 #000000;
#X msg 126 299 #ffc7c7 #000000 #000000;
#X msg 138 331 #ff0f00 #ffffff #000000;
#X msg 144 359 #ffc7c7 #000000 #000000;
#X msg 152 392 #e1e1e1 #ffffff #000000;
#X msg 113 236 #606060 #ffffff #ffffff;
#X msg 79 44 0;
#X obj 112 195 sel 0 1 2 3;
#X obj 112 171 % 4;
#X connect 0 0 14 0;
#X connect 0 0 7 0;
#X connect 4 0 16 0;
#X connect 6 0 1 0;
#X connect 6 1 2 0;
#X connect 6 2 3 0;
#X connect 7 0 4 0;
#X connect 8 0 6 0;
#X connect 9 0 6 0;
#X connect 10 0 6 0;
#X connect 11 0 6 0;
#X connect 12 0 6 0;
#X connect 13 0 6 0;
#X connect 15 0 13 0;
#X connect 15 1 8 0;
#X connect 15 2 9 0;
#X connect 15 3 10 0;
#X connect 15 4 11 0;
#X connect 16 0 15 0;
#X restore 854 1079 pd color_choose;
#X obj 635 977 loadbang;
#X obj 704 1065 t f f;
#X obj 697 553 t b f f f f;
#X obj 595 686 loadbang;
#X msg 595 710 0;
#X msg 547 710 1;
#X obj 547 734 + 0;
#X floatatom 547 758 5 0 0 0 - - - 0;
#X floatatom 699 870 5 0 0 1 x\ pos - - 0;
#X floatatom 911 879 5 0 0 1 y\ pos - - 0;
#X listbox 885 933 20 0 0 1 knot\ label - - 0;
#X obj 1517 439 s init;
#X obj 1517 225 bng 200 250 50 0 empty empty empty 0 -10 0 12 #fcfcfc #000000 #000000;
#X msg 297 1100 obj 150 150 knot 1 1 50 #ff0000 #ff0000 #ff00ff a;
#X obj 761 -16 loadbang;
#X msg 269 720 obj 340 340 bng;
#X obj 609 1201 pack f f f f f s s s s, f 54;
#X msg 609 1225 obj \$1 \$2 knot \$3 \$4 \$5 \$6 \$7 \$8 \$9 \;;
#X obj 547 781 t b f;
#X obj 334 985 +;
#X text 253 984 for timing;
#X obj 580 808 - 0;
#X obj 526 250 bng 19 250 50 0 empty empty empty 0 -10 0 12 #606060 #000000 #000000;
#X obj 706 171 t b b, f 84;
#X msg 1291 194 40;
#X obj 699 744 t f f, f 31;
#X obj 909 771 div 4;
#X obj 699 768 mod 4;
#X obj 735 521 mod 8;
#X obj 699 822 + 110;
#X obj 911 831 + 110;
#X msg 746 695 0 1 2 3 4 5 6 7;
#X obj 699 792 * 150;
#X obj 702 143 t b b;
#X msg 635 1001 3;
#X obj 526 324 t b b b, f 14;
#X msg 779 632 A1 B2 C3 D4 E5 F6 G7 H8;
#X obj 909 795 * 70;
#X connect 2 0 1 0;
#X connect 4 0 3 0;
#X connect 5 0 6 0;
#X connect 6 0 7 0;
#X connect 6 0 29 0;
#X connect 7 0 55 0;
#X connect 8 0 5 1;
#X connect 9 0 37 0;
#X connect 10 0 63 0;
#X connect 10 0 58 0;
#X connect 11 0 9 0;
#X connect 12 0 5 0;
#X connect 13 0 52 0;
#X connect 14 0 13 0;
#X connect 15 0 12 0;
#X connect 16 0 43 8;
#X connect 17 0 46 1;
#X connect 18 0 43 1;
#X connect 19 0 43 3;
#X connect 20 0 28 0;
#X connect 21 0 43 5;
#X connect 22 0 43 6;
#X connect 23 0 43 7;
#X connect 24 0 43 4;
#X connect 25 0 24 0;
#X connect 26 0 21 0;
#X connect 26 1 22 0;
#X connect 26 2 23 0;
#X connect 27 0 61 0;
#X connect 28 0 43 2;
#X connect 28 1 26 0;
#X connect 29 0 32 0;
#X connect 29 3 14 0;
#X connect 29 4 11 0;
#X connect 30 0 31 0;
#X connect 31 0 33 1;
#X connect 32 0 33 0;
#X connect 33 0 34 0;
#X connect 34 0 33 1;
#X connect 34 0 45 0;
#X connect 35 0 17 0;
#X connect 36 0 18 0;
#X connect 37 0 16 0;
#X connect 39 0 38 0;
#X connect 40 0 3 0;
#X connect 42 0 1 0;
#X connect 43 0 44 0;
#X connect 44 0 3 0;
#X connect 45 0 46 0;
#X connect 45 1 48 0;
#X connect 46 0 43 0;
#X connect 48 0 20 0;
#X connect 49 0 62 0;
#X connect 50 0 15 0;
#X connect 50 1 51 0;
#X connect 51 0 25 0;
#X connect 52 0 54 0;
#X connect 52 1 53 0;
#X connect 53 0 64 0;
#X connect 54 0 59 0;
#X connect 55 0 6 1;
#X connect 55 0 8 0;
#X connect 56 0 35 0;
#X connect 57 0 36 0;
#X connect 58 0 13 1;
#X connect 59 0 56 0;
#X connect 60 0 39 0;
#X connect 60 1 50 0;
#X connect 61 0 19 0;
#X connect 62 0 60 0;
#X connect 62 1 2 0;
#X connect 62 2 31 0;
#X connect 63 0 9 1;
#X connect 64 0 57 0;
#X coords 0 -1 1 1 528 170 2 100 100;
