#N canvas 0 38 864 1051 12;
#X floatatom 668 119 5 0 0 1 patch\ size - - 0;
#X msg 668 188 donecanvasdialog 1 -1 2 0 -1 1 1 \$1 \$2 100 100;
#N canvas 0 38 864 1051 \$0-patch 0;
#X obj 304 474 knot 1 2 30 #606060 #ff0000 #ff0000 \ C\ ;
#X obj 388 451 knot 2 2 30 #606060 #ff0000 #ff0000 \ G\ ;
#X obj 451 389 knot 3 2 30 #606060 #ff0000 #ff0000 \ D\ ;
#X obj 474 304 knot 4 2 30 #606060 #ff0000 #ff0000 \ A\ ;
#X obj 451 219 knot 5 2 30 #606060 #ff0000 #ff0000 \ E\ ;
#X obj 389 156 knot 6 2 30 #606060 #ff0000 #ff0000 \ H\ ;
#X obj 304 134 knot 7 2 30 #606060 #ff0000 #ff0000 Fis;
#X obj 219 156 knot 8 2 30 #606060 #ff0000 #ff0000 Des;
#X obj 156 218 knot 9 2 30 #606060 #ff0000 #ff0000 \ As;
#X obj 134 303 knot 10 2 30 #606060 #ff0000 #ff0000 \ Es;
#X obj 156 388 knot 11 2 30 #606060 #ff0000 #ff0000 \ B\ ;
#X obj 218 451 knot 12 2 30 #606060 #ff0000 #ff0000 \ F\ ;
#X obj 304 404 knot 13 2 30 #404040 #ff0000 #ff0000 \ a\ ;
#X obj 353 390 knot 14 2 30 #404040 #ff0000 #ff0000 \ e\ ;
#X obj 390 354 knot 15 2 30 #404040 #ff0000 #ff0000 \ h\ ;
#X obj 404 304 knot 16 2 30 #404040 #ff0000 #ff0000 fis;
#X obj 390 254 knot 17 2 30 #404040 #ff0000 #ff0000 cis;
#X obj 354 217 knot 18 2 30 #404040 #ff0000 #ff0000 gis;
#X obj 304 204 knot 19 2 30 #404040 #ff0000 #ff0000 dis;
#X obj 254 217 knot 20 2 30 #404040 #ff0000 #ff0000 \ b\ ;
#X obj 217 253 knot 21 2 30 #404040 #ff0000 #ff0000 \ f\ ;
#X obj 204 303 knot 22 2 30 #404040 #ff0000 #ff0000 \ c\ ;
#X obj 217 353 knot 23 2 30 #404040 #ff0000 #ff0000 \ g\ ;
#X obj 253 390 knot 24 2 30 #404040 #ff0000 #ff0000 \ d\ ;
#X coords 0 -1 1 1 451 451 2 100 100;
#X restore 101 101 pd \$0-patch;
#X obj 668 167 pack f f;
#X obj 668 214 s pd-\$0-patch;
#X obj 668 142 t f f f;
#X obj 706 236 * 0.5;
#X obj 706 260 int;
#X floatatom 706 284 5 0 0 1 center\ point - - 0;
#X floatatom 1051 130 5 0 0 1 knot\ size - - 0;
#X obj 1052 194 * 0.5;
#X obj 1052 218 int;
#X floatatom 1052 242 5 0 0 1 positional\ offset - - 0;
#X obj 273 780 s pd-\$0-patch;
#X msg 317 753 clear;
#X obj 611 1249 s pd-\$0-patch;
#X msg 530 1187 clear;
#X floatatom 1154 103 5 0 0 1 outer\ radius - - 0;
#X obj 697 464 until;
#X obj 697 502 f;
#X obj 735 495 + 1;
#X obj 790 491 sel 0;
#X obj 767 683 list store;
#X floatatom 946 98 5 0 0 1 inner\ radius - - 0;
#X obj 742 395 t f f, f 55;
#X obj 779 617 loadbang;
#X msg 767 579 get \$1;
#X obj 697 441 bng 19 250 50 0 empty empty empty 0 -10 0 12 #fcfcfc #000000 #000000;
#X obj 699 730 list store;
#X msg 693 703 get \$1;
#X obj 699 754 expr sin(2*3.14159*$f1/12)*$f2 \; cos(2*3.14159*$f1/12)*$f2 \;;
#X obj 699 792 +;
#X obj 891 791 +;
#X obj 924 792 f;
#X obj 1015 474 until;
#X obj 1015 512 f;
#X obj 1053 505 + 1;
#X obj 1108 501 sel 0;
#X obj 1085 682 list store;
#X obj 1097 627 loadbang;
#X msg 1085 589 get \$1;
#X obj 1015 451 bng 19 250 50 0 empty empty empty 0 -10 0 12 #fcfcfc #000000 #000000;
#X obj 1017 740 list store;
#X msg 1011 713 get \$1;
#X obj 1017 764 expr sin(2*3.14159*$f1/12)*$f2 \; cos(2*3.14159*$f1/12)*$f2 \;;
#X obj 1017 802 +;
#X obj 1209 801 +;
#X obj 1242 802 f;
#X obj 699 816 -;
#X obj 891 815 -;
#X obj 1017 826 -;
#X obj 1209 825 -;
#X obj 712 367 t b f;
#X obj 698 403 t b b;
#X listbox 1006 1064 20 0 0 1 knot\ label - - 0;
#X floatatom 399 950 5 0 0 1 x\ pos - - 0;
#X floatatom 438 972 5 0 0 1 y\ pos - - 0;
#X floatatom 651 1027 5 0 0 1 net\ number - - 0;
#X floatatom 704 1042 5 0 0 1 knot\ number - - 0;
#X listbox 838 1107 20 0 0 1 background\ color - - 0;
#X listbox 878 1137 20 0 0 1 front\ color - - 0;
#X listbox 918 1167 20 0 0 1 label\ color - - 0;
#X floatatom 744 1098 5 0 0 1 knot\ size - - 0;
#X obj 1051 153 t f f, f 38;
#X obj 1307 894 t f;
#N canvas 864 38 864 1051 color_choose 0;
#X obj 79 20 inlet;
#X obj 131 508 outlet;
#X obj 242 510 outlet;
#X obj 346 511 outlet;
#X text 226 195 select different option according to knot number;
#X obj 99 436 unpack s s s;
#X msg 405 276 #e1e1e1 #000000 #000000;
#X msg 415 306 #ffc7c7 #000000 #000000;
#X msg 427 338 #ff0f00 #ffffff #000000;
#X msg 433 366 #ffc7c7 #000000 #000000;
#X msg 441 399 #e1e1e1 #ffffff #000000;
#X obj 80 114 sel 0 1;
#X obj 80 90 > 12;
#X msg 113 236 #606060 #ff0000 #ff0000;
#X msg 133 276 #404040 #ff0000 #ff0000;
#X connect 0 0 12 0;
#X connect 5 0 1 0;
#X connect 5 1 2 0;
#X connect 5 2 3 0;
#X connect 11 0 13 0;
#X connect 11 1 14 0;
#X connect 12 0 11 0;
#X connect 13 0 5 0;
#X connect 14 0 5 0;
#X restore 854 1079 pd color_choose;
#X obj 635 977 loadbang;
#X obj 704 1065 t f f;
#X obj 697 553 t b f f f f;
#X obj 595 686 loadbang;
#X msg 595 710 0;
#X msg 547 710 1;
#X obj 547 734 + 0;
#X floatatom 547 758 5 0 0 0 - - - 0;
#X floatatom 797 881 5 0 0 1 x\ pos - - 0;
#X floatatom 1074 875 5 0 0 1 y\ pos - - 0;
#X listbox 885 933 20 0 0 1 knot\ label - - 0;
#X text 750 309 offset;
#X obj 1517 439 s init;
#X obj 1517 225 bng 200 250 50 0 empty empty empty 0 -10 0 12 #fcfcfc #000000 #000000;
#X msg 297 1100 obj 150 150 knot 1 1 50 #ff0000 #ff0000 #ff00ff a;
#X obj 761 -16 loadbang;
#X msg 746 705 0 1 2 3 4 5 6 7 8 9 10 11;
#X msg 1064 715 0 1 2 3 4 5 6 7 8 9 10 11;
#X msg 1010 63 30;
#X msg 269 720 obj 340 340 bng;
#X obj 706 307 + 100;
#X obj 609 1201 pack f f f f f s s s s, f 54;
#X msg 609 1225 obj \$1 \$2 knot \$3 \$4 \$5 \$6 \$7 \$8 \$9 \;;
#X obj 1015 563 t b f f f f;
#X obj 706 331 - 6;
#X obj 735 521 mod 12;
#X obj 1053 531 mod 12;
#X obj 547 781 t b f;
#X obj 334 985 +;
#X text 253 984 for timing;
#X msg 628 39 451;
#X msg 635 1001 2;
#X obj 628 63 t f b;
#X msg 779 642 \ a\  \ e\  \ h\  fis cis gis dis \ b\  \ f\  \ c\  \ g\  \ d\ ;
#X msg 1287 649 \ C\  \ G\  \ D\  \ A\  \ E\  \ H\  Fis Des \ As \ Es \ B\  \ F\ ;
#X msg 878 81 100;
#X msg 1135 79 170;
#X msg 1411 530 \ C\  \ G\  \ D\  \ A\  \ E\  \ H\  Fis Des \ As \ Es \ B\  \ F\ ;
#X obj 580 808 - 0;
#X obj 460 553 bng 19 250 50 0 empty empty empty 0 -10 0 12 #606060 #000000 #000000;
#X obj 460 577 t b b, f 14;
#X obj 628 87 t b f;
#X connect 0 0 5 0;
#X connect 1 0 4 0;
#X connect 3 0 1 0;
#X connect 5 0 3 0;
#X connect 5 1 3 1;
#X connect 5 2 6 0;
#X connect 6 0 7 0;
#X connect 7 0 8 0;
#X connect 8 0 86 0;
#X connect 9 0 63 0;
#X connect 10 0 11 0;
#X connect 11 0 12 0;
#X connect 12 0 48 1;
#X connect 12 0 49 1;
#X connect 12 0 50 1;
#X connect 12 0 51 1;
#X connect 14 0 13 0;
#X connect 16 0 15 0;
#X connect 17 0 44 1;
#X connect 18 0 19 0;
#X connect 19 0 20 0;
#X connect 19 0 68 0;
#X connect 20 0 91 0;
#X connect 21 0 18 1;
#X connect 22 0 76 0;
#X connect 23 0 30 1;
#X connect 24 0 33 0;
#X connect 24 1 47 0;
#X connect 25 0 99 0;
#X connect 25 0 82 0;
#X connect 26 0 22 0;
#X connect 27 0 18 0;
#X connect 28 0 30 0;
#X connect 29 0 28 0;
#X connect 30 0 31 0;
#X connect 30 1 32 0;
#X connect 31 0 48 0;
#X connect 32 0 49 0;
#X connect 33 0 32 1;
#X connect 33 0 31 1;
#X connect 34 0 35 0;
#X connect 35 0 36 0;
#X connect 35 0 89 0;
#X connect 36 0 92 0;
#X connect 37 0 34 1;
#X connect 38 0 76 0;
#X connect 39 0 100 0;
#X connect 39 0 83 0;
#X connect 40 0 38 0;
#X connect 41 0 34 0;
#X connect 42 0 44 0;
#X connect 43 0 42 0;
#X connect 44 0 45 0;
#X connect 44 1 46 0;
#X connect 45 0 50 0;
#X connect 46 0 51 0;
#X connect 47 0 46 1;
#X connect 47 0 45 1;
#X connect 48 0 74 0;
#X connect 49 0 75 0;
#X connect 50 0 74 0;
#X connect 51 0 75 0;
#X connect 52 0 53 0;
#X connect 52 1 24 0;
#X connect 53 0 27 0;
#X connect 53 1 41 0;
#X connect 54 0 87 8;
#X connect 55 0 94 1;
#X connect 56 0 87 1;
#X connect 57 0 87 3;
#X connect 58 0 67 0;
#X connect 59 0 87 5;
#X connect 60 0 87 6;
#X connect 61 0 87 7;
#X connect 62 0 87 4;
#X connect 63 0 10 0;
#X connect 63 1 64 0;
#X connect 64 0 62 0;
#X connect 65 0 59 0;
#X connect 65 1 60 0;
#X connect 65 2 61 0;
#X connect 66 0 97 0;
#X connect 67 0 87 2;
#X connect 67 1 65 0;
#X connect 68 0 71 0;
#X connect 68 3 29 0;
#X connect 68 4 26 0;
#X connect 69 0 70 0;
#X connect 70 0 72 1;
#X connect 71 0 72 0;
#X connect 72 0 73 0;
#X connect 73 0 72 1;
#X connect 73 0 93 0;
#X connect 74 0 55 0;
#X connect 75 0 56 0;
#X connect 76 0 54 0;
#X connect 79 0 78 0;
#X connect 80 0 15 0;
#X connect 81 0 101 0;
#X connect 81 0 102 0;
#X connect 81 0 84 0;
#X connect 82 0 28 1;
#X connect 83 0 42 1;
#X connect 84 0 9 0;
#X connect 85 0 13 0;
#X connect 86 0 90 0;
#X connect 87 0 88 0;
#X connect 88 0 15 0;
#X connect 89 0 71 0;
#X connect 89 3 43 0;
#X connect 89 4 40 0;
#X connect 90 0 52 0;
#X connect 91 0 19 1;
#X connect 91 0 21 0;
#X connect 92 0 35 1;
#X connect 92 0 37 0;
#X connect 93 0 94 0;
#X connect 93 1 104 0;
#X connect 94 0 87 0;
#X connect 96 0 98 0;
#X connect 97 0 57 0;
#X connect 98 0 107 0;
#X connect 98 1 70 0;
#X connect 99 0 22 1;
#X connect 100 0 38 1;
#X connect 101 0 23 0;
#X connect 102 0 17 0;
#X connect 104 0 58 0;
#X connect 105 0 106 0;
#X connect 106 0 96 0;
#X connect 106 1 14 0;
#X connect 107 0 79 0;
#X connect 107 1 0 0;
#X coords 0 -1 1 1 453 473 1 100 100;
