#N canvas 0 38 1728 1051 12;
#X floatatom 668 119 5 0 0 1 patch\ size - - 0;
#X msg 668 188 donecanvasdialog 1 -1 2 0 -1 1 1 \$1 \$2 100 100;
#N canvas 0 38 864 1051 \$0-patch 0;
#X obj 249 380 knot 1 1 40 #606060 #ff0000 #ff0000 KCK;
#X obj 299 370 knot 2 1 40 #606060 #ff0000 #ff0000 KCK;
#X obj 341 341 knot 3 1 40 #606060 #ff0000 #ff0000 SNR;
#X obj 370 299 knot 4 1 40 #606060 #ff0000 #ff0000 HAT;
#X obj 380 249 knot 5 1 40 #606060 #ff0000 #ff0000 HAT;
#X obj 370 198 knot 6 1 40 #606060 #ff0000 #ff0000 HAT;
#X obj 341 156 knot 7 1 40 #606060 #ff0000 #ff0000 SNR;
#X obj 299 127 knot 8 1 40 #606060 #ff0000 #ff0000 RID;
#X obj 249 118 knot 9 1 40 #606060 #ff0000 #ff0000 KCK;
#X obj 198 127 knot 10 1 40 #606060 #ff0000 #ff0000 KCK;
#X obj 156 156 knot 11 1 40 #606060 #ff0000 #ff0000 SNR;
#X obj 127 198 knot 12 1 40 #606060 #ff0000 #ff0000 HAT;
#X obj 118 248 knot 13 1 40 #606060 #ff0000 #ff0000 HAT;
#X obj 127 299 knot 14 1 40 #606060 #ff0000 #ff0000 RID;
#X obj 156 341 knot 15 1 40 #606060 #ff0000 #ff0000 SNR;
#X obj 198 370 knot 16 1 40 #606060 #ff0000 #ff0000 RID;
#X obj 249 249 knot 17 1 40 #606060 #ff0000 #ff0000 NTH;
#X coords 0 -1 1 1 351 351 2 100 100;
#X restore 101 101 pd \$0-patch;
#X obj 668 167 pack f f;
#X obj 668 214 s pd-\$0-patch;
#X obj 668 142 t f f f;
#X obj 706 236 * 0.5;
#X obj 706 260 int;
#X floatatom 706 284 5 0 0 1 center\ point - - 0;
#X floatatom 1051 130 5 0 0 1 knot\ size - - 0;
#X obj 1052 194 * 0.5;
#X obj 1052 218 int;
#X floatatom 1052 242 5 0 0 1 positional\ offset - - 0;
#X obj 273 780 s pd-\$0-patch;
#X msg 317 753 clear;
#X obj 611 1249 s pd-\$0-patch;
#X msg 530 1187 clear;
#X obj 697 464 until;
#X obj 697 502 f;
#X obj 735 495 + 1;
#X obj 790 491 sel 0;
#X obj 767 683 list store;
#X floatatom 946 98 5 0 0 1 inner\ radius - - 0;
#X obj 742 395 t f f, f 55;
#X obj 779 617 loadbang;
#X msg 767 579 get \$1;
#X obj 697 441 bng 19 250 50 0 empty empty empty 0 -10 0 12 #fcfcfc #000000 #000000;
#X obj 699 730 list store;
#X msg 693 703 get \$1;
#X obj 699 842 +;
#X obj 891 841 +;
#X obj 924 842 f;
#X obj 699 866 -;
#X obj 891 865 -;
#X obj 712 367 t b f;
#X obj 698 403 t b b;
#X listbox 1006 1064 20 0 0 1 knot\ label - - 0;
#X floatatom 399 950 5 0 0 1 x\ pos - - 0;
#X floatatom 438 972 5 0 0 1 y\ pos - - 0;
#X floatatom 651 1027 5 0 0 1 net\ number - - 0;
#X floatatom 704 1042 5 0 0 1 knot\ number - - 0;
#X listbox 838 1107 20 0 0 1 background\ color - - 0;
#X listbox 878 1137 20 0 0 1 front\ color - - 0;
#X listbox 918 1167 20 0 0 1 label\ color - - 0;
#X floatatom 744 1098 5 0 0 1 knot\ size - - 0;
#X obj 1051 153 t f f, f 38;
#X obj 1307 894 t f;
#N canvas 498 536 921 551 color_choose 0;
#X obj 79 20 inlet;
#X obj 131 508 outlet;
#X obj 242 510 outlet;
#X obj 346 511 outlet;
#X obj 99 436 unpack s s s;
#X msg 79 44 0;
#X msg 113 236 #606060 #ff0000 #ff0000;
#X connect 0 0 5 0;
#X connect 4 0 1 0;
#X connect 4 1 2 0;
#X connect 4 2 3 0;
#X connect 5 0 6 0;
#X connect 6 0 4 0;
#X restore 854 1079 pd color_choose;
#X obj 635 977 loadbang;
#X obj 704 1065 t f f;
#X obj 697 553 t b f f f f;
#X obj 595 686 loadbang;
#X msg 595 710 0;
#X msg 547 710 1;
#X obj 547 734 + 0;
#X floatatom 547 758 5 0 0 0 - - - 0;
#X floatatom 797 881 5 0 0 1 x\ pos - - 0;
#X floatatom 1074 875 5 0 0 1 y\ pos - - 0;
#X listbox 885 933 20 0 0 1 knot\ label - - 0;
#X text 750 309 offset;
#X obj 1517 439 s init;
#X obj 1517 225 bng 200 250 50 0 empty empty empty 0 -10 0 12 #fcfcfc #000000 #000000;
#X msg 297 1100 obj 150 150 knot 1 1 50 #ff0000 #ff0000 #ff00ff a;
#X obj 761 -16 loadbang;
#X msg 269 720 obj 340 340 bng;
#X obj 706 307 + 100;
#X obj 609 1201 pack f f f f f s s s s, f 54;
#X msg 609 1225 obj \$1 \$2 knot \$3 \$4 \$5 \$6 \$7 \$8 \$9 \;;
#X obj 706 331 - 6;
#X obj 547 781 t b f;
#X obj 334 985 +;
#X text 253 984 for timing;
#X obj 628 63 t f b;
#X obj 380 453 bng 19 250 50 0 empty empty empty 0 -10 0 12 #606060 #000000 #000000;
#X obj 580 808 - 0;
#X msg 635 1001 1;
#X msg 878 81 131;
#X msg 1010 63 40;
#X msg 628 39 351;
#X obj 699 794 expr sin(2*3.14159*$f1/16)*$f2 \; cos(2*3.14159*$f1/16)*$f2 \;;
#X msg 746 705 0 1 2 3 4 5 6 7 8 9 10 11 12 13 14 15 16;
#X obj 699 754 moses 16;
#X obj 1392 702 moses 16;
#X floatatom 1390 672 5 0 0 0 - - - 0;
#X floatatom 1392 726 5 0 0 0 - - - 0;
#X floatatom 1449 728 5 0 0 0 - - - 0;
#X msg 815 767 0;
#X obj 735 521 mod 17;
#X obj 380 477 t b b b;
#X msg 779 642 KCK KCK SNR HAT HAT HAT SNR RID KCK KCK SNR HAT HAT RID SNR RID NTH;
#X connect 0 0 5 0;
#X connect 1 0 4 0;
#X connect 3 0 1 0;
#X connect 5 0 3 0;
#X connect 5 1 3 1;
#X connect 5 2 6 0;
#X connect 6 0 7 0;
#X connect 7 0 8 0;
#X connect 8 0 65 0;
#X connect 9 0 45 0;
#X connect 10 0 11 0;
#X connect 11 0 12 0;
#X connect 12 0 32 1;
#X connect 12 0 33 1;
#X connect 14 0 13 0;
#X connect 16 0 15 0;
#X connect 17 0 18 0;
#X connect 18 0 19 0;
#X connect 18 0 50 0;
#X connect 19 0 87 0;
#X connect 20 0 17 1;
#X connect 21 0 58 0;
#X connect 22 0 79 1;
#X connect 23 0 31 0;
#X connect 24 0 89 0;
#X connect 24 0 80 0;
#X connect 25 0 21 0;
#X connect 26 0 17 0;
#X connect 27 0 81 0;
#X connect 28 0 27 0;
#X connect 29 0 32 0;
#X connect 30 0 33 0;
#X connect 31 0 30 1;
#X connect 31 0 29 1;
#X connect 32 0 56 0;
#X connect 33 0 57 0;
#X connect 34 0 35 0;
#X connect 34 1 23 0;
#X connect 35 0 26 0;
#X connect 36 0 66 8;
#X connect 37 0 70 1;
#X connect 38 0 66 1;
#X connect 39 0 66 3;
#X connect 40 0 49 0;
#X connect 41 0 66 5;
#X connect 42 0 66 6;
#X connect 43 0 66 7;
#X connect 44 0 66 4;
#X connect 45 0 10 0;
#X connect 45 1 46 0;
#X connect 46 0 44 0;
#X connect 47 0 41 0;
#X connect 47 1 42 0;
#X connect 47 2 43 0;
#X connect 48 0 75 0;
#X connect 49 0 66 2;
#X connect 49 1 47 0;
#X connect 50 0 53 0;
#X connect 50 3 28 0;
#X connect 50 4 25 0;
#X connect 51 0 52 0;
#X connect 52 0 54 1;
#X connect 53 0 54 0;
#X connect 54 0 55 0;
#X connect 55 0 54 1;
#X connect 55 0 69 0;
#X connect 56 0 37 0;
#X connect 57 0 38 0;
#X connect 58 0 36 0;
#X connect 61 0 60 0;
#X connect 62 0 15 0;
#X connect 63 0 76 0;
#X connect 63 0 77 0;
#X connect 64 0 13 0;
#X connect 65 0 68 0;
#X connect 66 0 67 0;
#X connect 67 0 15 0;
#X connect 68 0 34 0;
#X connect 69 0 70 0;
#X connect 69 1 74 0;
#X connect 70 0 66 0;
#X connect 72 0 0 0;
#X connect 72 1 52 0;
#X connect 73 0 88 0;
#X connect 74 0 40 0;
#X connect 75 0 39 0;
#X connect 76 0 22 0;
#X connect 77 0 9 0;
#X connect 78 0 72 0;
#X connect 79 0 29 0;
#X connect 79 1 30 0;
#X connect 80 0 27 1;
#X connect 81 0 79 0;
#X connect 81 1 86 0;
#X connect 82 0 84 0;
#X connect 82 1 85 0;
#X connect 83 0 82 0;
#X connect 86 0 30 0;
#X connect 86 0 29 0;
#X connect 87 0 18 1;
#X connect 87 0 20 0;
#X connect 88 0 61 0;
#X connect 88 1 78 0;
#X connect 88 2 14 0;
#X connect 89 0 21 1;
#X coords 0 -1 1 1 353 373 1 100 100;
