#N canvas 0 38 1728 1051 12;
#X obj 1 -1 cnv 19 1200 1000 empty empty empty 2 12 0 12 #7c7c7c #404040 0;
#X obj 11 815 puls-clock;
#X obj 11 5 super_tonart;
#X obj 641 5 super_breakcore;
#X obj 641 415 super_states;
#N canvas 203 776 450 300 midiNoteMapping 0;
#X obj 119 16 notein;
#X floatatom 101 120 5 0 0 1 note - - 0;
#X floatatom 101 149 5 0 0 1 velocity - - 0;
#X floatatom 101 178 5 0 0 1 channel - - 0;
#X connect 0 0 1 0;
#X connect 0 1 2 0;
#X connect 0 2 3 0;
#X coords 0 -1 1 1 100 100 1 100 100;
#X restore 1210 7 pd midiNoteMapping;
