#N canvas 0 38 1728 1051 12;
#X obj 1 -1 cnv 19 1200 1000 empty empty empty 2 12 0 12 #7c7c7c #404040 0;
#X obj 11 815 puls-clock;
#X obj 11 5 super_tonart;
#X obj 641 5 super_breakcore;
#X obj 641 415 super_states;
#X obj 1311 947 else/out~;
#X listbox 1211 59 8 0 0 0 - - - 0;
#X listbox 1494 140 6 0 0 0 - - - 0;
#X listbox 1211 295 6 0 0 0 - - - 0;
#X obj 1211 321 S_centials/else-stractions/else_synth1;
#X obj 1210 217 loadbang;
#X obj 1494 49 loadbang;
#X obj 1211 428 throw~ signal;
#X obj 1210 188 throw~ drum;
#X obj 1494 273 throw~ bass;
#N canvas 556 594 718 400 mixing 0;
#X obj 90 317 *~ 1;
#X obj 260 301 *~ 1;
#X obj 90 292 else/plate.rev~;
#X obj 500 146 hsl 128 15 0 1 0 0 empty \$0-fbgain empty -2 -8 0 10 #dcdcdc #000000 #000000 0 1;
#X msg 497 165 size \$1;
#X obj 188 82 catch~ signal;
#X obj 260 277 else/plate.rev~;
#X obj 103 229 catch~ left;
#X obj 308 217 catch~ right;
#X obj 27 88 *~ 1;
#X obj 130 40 catch~ drum;
#X obj 28 28 catch~ bass;
#X obj 116 360 outlet~;
#X obj 266 359 outlet~;
#X msg 493 19 cutoff 1;
#X obj 518 -29 loadbang;
#X msg 518 -5 1;
#X obj 497 189 s \$0-set_rvb;
#X obj 281 255 r \$0-set_rvb;
#X obj 499 70 hsl 128 15 0 1 0 0 empty \$0-drywet empty -2 -8 0 10 #dcdcdc #000000 #000000 0 1;
#X msg 497 90 wet \$1;
#X obj 111 270 r \$0-set_rvb;
#X obj 188 105 +~ 1;
#X connect 0 0 12 0;
#X connect 1 0 13 0;
#X connect 2 0 0 0;
#X connect 3 0 4 0;
#X connect 4 0 17 0;
#X connect 5 0 22 0;
#X connect 6 0 1 0;
#X connect 7 0 2 0;
#X connect 8 0 6 0;
#X connect 9 0 0 0;
#X connect 9 0 1 0;
#X connect 10 0 0 0;
#X connect 10 0 1 0;
#X connect 11 0 9 0;
#X connect 14 0 17 0;
#X connect 15 0 16 0;
#X connect 16 0 14 0;
#X connect 18 0 6 0;
#X connect 19 0 20 0;
#X connect 20 0 17 0;
#X connect 21 0 2 0;
#X connect 22 0 2 0;
#X connect 22 0 1 0;
#X restore 1322 923 pd mixing;
#N canvas 585 623 868 354 delay 0;
#X obj -1 62 r metro_speed;
#X floatatom -1 116 5 0 0 0 - - - 0;
#X obj -1 139 * 2;
#X obj -3 277 throw~ left;
#X obj 327 287 throw~ left;
#X obj -1 86 * 3;
#X obj 120 50 catch~ delay;
#X obj 167 130 else/ping.pong~;
#X obj 525 39 loadbang;
#X obj 56 103 bng 19 250 50 0 empty empty empty 0 -10 0 12 #fcfcfc #000000 #000000;
#X msg 473 37 0.5;
#X connect 0 0 5 0;
#X connect 1 0 2 0;
#X connect 2 0 7 1;
#X connect 5 0 1 0;
#X connect 6 0 7 0;
#X connect 7 0 3 0;
#X connect 7 1 4 0;
#X connect 8 0 10 0;
#X connect 9 0 1 0;
#X connect 10 0 7 2;
#X restore 1327 894 pd delay;
#X obj 1210 451 throw~ delay;
#X obj 1210 36 r 2drums;
#X obj 1211 272 r 2s1;
#X obj 1494 117 r 2bass;
#X listbox 1485 388 8 0 0 0 - - - 0;
#X obj 1486 319 loadbang;
#X obj 1485 517 throw~ signal;
#X obj 1485 541 throw~ delay;
#X obj 1486 366 r 2s2;
#X msg 1210 241 atk 580 \, rel 1600 \, mod 1.1;
#X listbox 1211 568 6 0 0 0 - - - 0;
#X obj 1212 486 loadbang;
#X obj 1212 721 throw~ delay;
#X obj 1211 591 S_centials/else-stractions/else_synth3;
#X obj 1212 546 r 2s3;
#X msg 1212 510 atk 70 \, rel 480 \, fatk 300 \, frel 400 \, mod 0.2, f 27;
#X msg 1486 343 atk 70 \, rel 480 \, mod 0.2;
#X obj 1210 81 S_centials/else-stractions/else_amen;
#X msg 1527 814 1 \, 0 100;
#X obj 1527 838 vline~;
#X obj 1527 862 *~;
#X obj 1583 845 noise~;
#X obj 1437 902 *~;
#X obj 1467 915 tgl 19 0 empty empty empty 0 -10 0 12 #fcfcfc #000000 #000000 0 1;
#X obj 1527 886 *~ 1;
#X obj 1485 412 S_centials/else-stractions/else_synth2;
#N canvas 440 478 1040 603 drum_rvb 0;
#X obj 36 88 inlet~;
#X obj 31 303 outlet~;
#X obj 113 102 hsl 128 15 0 1 0 0 \$0-drumdrywet_s \$0-drumdrywet_r dry/wet:\ 0.972603 10 8 0 10 #bbbbbb #000000 #ffffff 0 1;
#X msg 56 126 wet \$1;
#X obj 31 153 else/plate.rev~;
#X msg 483 198 label \$1;
#X text 493 87 show values;
#X obj 485 106 r \$0-drumdrywet_s;
#X obj 483 226 s \$0-drumdrywet_r;
#X msg 483 170 symbol dry/wet:\\\ \$1;
#X obj 257 8 loadbang;
#X msg 257 32 0;
#X connect 0 0 4 0;
#X connect 2 0 3 0;
#X connect 3 0 4 0;
#X connect 4 0 1 0;
#X connect 5 0 8 0;
#X connect 7 0 9 0;
#X connect 9 0 5 0;
#X connect 10 0 11 0;
#X connect 11 0 8 0;
#X coords 0 -1 1 1 160 20 2 100 100;
#X restore 1210 163 pd drum_rvb;
#N canvas 440 478 1040 603 drum_rvb 0;
#X obj 36 88 inlet~;
#X obj 31 303 outlet~;
#X obj 113 102 hsl 128 15 20 20000 1 0 \$0-drumlop_s \$0-drumlop_r freq:\ 20 10 8 0 10 #7c7c7c #ff0400 #ffffff 0 1;
#X msg 528 231 label \$1;
#X text 538 120 show values;
#X obj 192 152 r \$0-drumlop_s;
#X obj 528 259 s \$0-drumlop_r;
#X msg 528 203 symbol freq:\\\ \$1;
#X obj 530 139 r \$0-drumlop_s;
#X obj 42 153 else/lowpass~ 2000 2;
#X connect 0 0 9 0;
#X connect 3 0 6 0;
#X connect 5 0 9 1;
#X connect 7 0 3 0;
#X connect 8 0 7 0;
#X connect 9 0 1 0;
#X coords 0 -1 1 1 160 20 2 100 100;
#X restore 1210 143 pd drum_rvb;
#X obj 1494 164 S_centials/else-stractions/else_synth_bass;
#X msg 1494 73 atk 200 \, dec 200 \, sus 0.87 \, rel 100 \, mod 0.1, f 24;
#N canvas 548 302 854 433 mapPreset 0;
#X obj 143 255 outlet;
#X msg 154 173 dec \$1;
#X msg 260 174 sus \$1;
#X msg 370 175 rel \$1;
#X msg 508 174 mod \$1;
#X msg 68 172 atk \$1;
#X obj 68 21 r chord_attack;
#X obj 154 51 r chord_decay;
#X obj 260 82 r chord_sustain;
#X obj 370 112 r chord_release;
#X obj 508 142 r chord_modulation;
#X obj 668 142 r chord_gain;
#X msg 668 174 gain \$1;
#X connect 1 0 0 0;
#X connect 2 0 0 0;
#X connect 3 0 0 0;
#X connect 4 0 0 0;
#X connect 5 0 0 0;
#X connect 6 0 5 0;
#X connect 7 0 1 0;
#X connect 8 0 2 0;
#X connect 9 0 3 0;
#X connect 10 0 4 0;
#X connect 11 0 12 0;
#X connect 12 0 0 0;
#X restore 1287 291 pd mapPreset;
#N canvas 576 38 864 1051 mapPreset 0;
#X obj 569 79 r drum_freq;
#X obj 674 191 r drum_drywet;
#X obj 108 36 r drum_gain;
#X obj 106 564 outlet;
#X obj 674 220 s \$0-drumdrywet_r;
#X msg 108 60 gain \$1;
#X obj 118 105 r drum_duration;
#X msg 118 129 duration \$1;
#X obj 128 175 r drum_speed;
#X msg 128 199 speed \$1;
#X obj 148 295 r drum_reverse_aut;
#X msg 148 319 reverse_aut \$1;
#X obj 158 355 r drum_repeat_aut;
#X msg 158 379 repeat_aut \$1;
#X obj 168 415 r drum_speed_aut;
#X msg 168 439 speed_aut \$1;
#X obj 178 475 r drum_duration_aut;
#X msg 178 499 duration_aut \$1;
#X floatatom 331 494 5 0 0 0 - - - 0;
#X floatatom 357 434 5 0 0 0 - - - 0;
#X floatatom 308 374 5 0 0 0 - - - 0;
#X floatatom 288 314 5 0 0 0 - - - 0;
#X floatatom 226 194 5 0 0 0 - - - 0;
#X floatatom 227 124 5 0 0 0 - - - 0;
#X floatatom 217 55 5 0 0 0 - - - 0;
#X floatatom 614 210 5 0 0 0 - - - 0;
#X floatatom 509 128 5 0 0 0 - - - 0;
#X obj 569 138 s \$0-drumlop_r;
#X obj 569 103 clip 20 20000;
#X connect 0 0 26 0;
#X connect 0 0 28 0;
#X connect 1 0 4 0;
#X connect 1 0 25 0;
#X connect 2 0 5 0;
#X connect 2 0 24 0;
#X connect 5 0 3 0;
#X connect 6 0 7 0;
#X connect 6 0 23 0;
#X connect 7 0 3 0;
#X connect 8 0 9 0;
#X connect 8 0 22 0;
#X connect 9 0 3 0;
#X connect 10 0 11 0;
#X connect 10 0 21 0;
#X connect 11 0 3 0;
#X connect 12 0 13 0;
#X connect 12 0 20 0;
#X connect 13 0 3 0;
#X connect 14 0 15 0;
#X connect 14 0 19 0;
#X connect 15 0 3 0;
#X connect 16 0 17 0;
#X connect 16 0 18 0;
#X connect 17 0 3 0;
#X connect 28 0 27 0;
#X restore 1281 62 pd mapPreset;
#N canvas 159 789 1054 300 mapPreset 0;
#X obj 143 255 outlet;
#X msg 154 173 dec \$1;
#X msg 260 174 sus \$1;
#X msg 370 175 rel \$1;
#X msg 508 174 mod \$1;
#X msg 68 172 atk \$1;
#X obj 68 21 r bass_attack;
#X obj 154 51 r bass_decay;
#X obj 260 82 r bass_sustain;
#X obj 370 112 r bass_release;
#X obj 508 142 r bass_modulation;
#X obj 675 166 r bass_gain;
#X msg 675 190 gain \$1;
#X connect 1 0 0 0;
#X connect 2 0 0 0;
#X connect 3 0 0 0;
#X connect 4 0 0 0;
#X connect 5 0 0 0;
#X connect 6 0 5 0;
#X connect 7 0 1 0;
#X connect 8 0 2 0;
#X connect 9 0 3 0;
#X connect 10 0 4 0;
#X connect 11 0 12 0;
#X connect 12 0 0 0;
#X restore 1551 145 pd mapPreset;
#N canvas 548 302 854 433 mapPreset 0;
#X obj 143 255 outlet;
#X msg 154 173 dec \$1;
#X msg 260 174 sus \$1;
#X msg 370 175 rel \$1;
#X msg 508 174 mod \$1;
#X msg 68 172 atk \$1;
#X obj 68 21 r chord_attack;
#X obj 154 51 r chord_decay;
#X obj 260 82 r chord_sustain;
#X obj 370 112 r chord_release;
#X obj 508 142 r chord_modulation;
#X obj 668 142 r chord_gain;
#X msg 668 174 gain \$1;
#X connect 1 0 0 0;
#X connect 2 0 0 0;
#X connect 3 0 0 0;
#X connect 4 0 0 0;
#X connect 5 0 0 0;
#X connect 6 0 5 0;
#X connect 7 0 1 0;
#X connect 8 0 2 0;
#X connect 9 0 3 0;
#X connect 10 0 4 0;
#X connect 11 0 12 0;
#X connect 12 0 0 0;
#X restore 1268 572 pd mapPreset;
#N canvas 548 302 854 433 mapPreset 0;
#X obj 143 255 outlet;
#X msg 154 173 dec \$1;
#X msg 260 174 sus \$1;
#X msg 370 175 rel \$1;
#X msg 508 174 mod \$1;
#X msg 68 172 atk \$1;
#X obj 68 21 r chord_attack;
#X obj 154 51 r chord_decay;
#X obj 260 82 r chord_sustain;
#X obj 370 112 r chord_release;
#X obj 508 142 r chord_modulation;
#X obj 668 142 r chord_gain;
#X msg 668 174 gain \$1;
#X connect 1 0 0 0;
#X connect 2 0 0 0;
#X connect 3 0 0 0;
#X connect 4 0 0 0;
#X connect 5 0 0 0;
#X connect 6 0 5 0;
#X connect 7 0 1 0;
#X connect 8 0 2 0;
#X connect 9 0 3 0;
#X connect 10 0 4 0;
#X connect 11 0 12 0;
#X connect 12 0 0 0;
#X restore 1551 393 pd mapPreset;
#N canvas 203 776 450 300 midiNoteMapping 0;
#X obj 119 16 notein;
#X obj 119 90 pack f f f;
#X obj 119 40 t b f;
#X obj 119 64 f;
#X floatatom 191 36 5 0 0 0 - - - 0;
#X obj 119 138 s 2drums;
#X obj 160 181 s 2s1;
#X obj 139 159 s 2bass;
#X obj 180 203 s 2s2;
#X obj 119 114 route 1 2 3 4 5 6 7 8;
#X obj 219 159 s s 2s4;
#X obj 240 181 s 2s5;
#X obj 260 203 s 2s6;
#X obj 199 138 s 2s3;
#X connect 0 0 2 0;
#X connect 0 1 1 2;
#X connect 0 2 3 1;
#X connect 0 2 4 0;
#X connect 1 0 9 0;
#X connect 2 0 3 0;
#X connect 2 1 1 1;
#X connect 3 0 1 0;
#X connect 9 0 5 0;
#X connect 9 1 7 0;
#X connect 9 2 6 0;
#X connect 9 3 8 0;
#X connect 9 4 13 0;
#X connect 9 5 10 0;
#X connect 9 6 11 0;
#X connect 9 7 12 0;
#X restore 1210 7 pd midiNoteMapping;
#X obj 1526 762 tgl 19 0 empty empty empty 0 -10 0 12 #fcfcfc #000000 #000000 0 1;
#X obj 1526 786 metro 400;
#X obj 1322 721 throw~ delay;
#X obj 1212 696 throw~ left;
#X obj 1322 696 throw~ right;
#X connect 6 0 34 0;
#X connect 7 0 45 0;
#X connect 9 0 12 0;
#X connect 9 0 17 0;
#X connect 10 0 26 0;
#X connect 11 0 46 0;
#X connect 15 0 5 0;
#X connect 15 1 5 1;
#X connect 18 0 6 0;
#X connect 19 0 8 0;
#X connect 19 0 9 0;
#X connect 20 0 7 0;
#X connect 21 0 42 0;
#X connect 22 0 33 0;
#X connect 25 0 21 0;
#X connect 27 0 30 0;
#X connect 28 0 32 0;
#X connect 30 0 29 0;
#X connect 30 0 56 0;
#X connect 30 1 57 0;
#X connect 31 0 27 0;
#X connect 32 0 30 0;
#X connect 33 0 42 0;
#X connect 34 0 44 0;
#X connect 35 0 36 0;
#X connect 36 0 37 0;
#X connect 37 0 41 0;
#X connect 38 0 37 1;
#X connect 39 0 5 0;
#X connect 39 0 5 1;
#X connect 40 0 39 1;
#X connect 41 0 39 0;
#X connect 42 0 23 0;
#X connect 42 0 24 0;
#X connect 43 0 13 0;
#X connect 44 0 43 0;
#X connect 45 0 14 0;
#X connect 46 0 45 0;
#X connect 47 0 9 0;
#X connect 48 0 34 0;
#X connect 49 0 45 0;
#X connect 50 0 30 0;
#X connect 51 0 42 0;
#X connect 53 0 54 0;
#X connect 54 0 35 0;
