#N canvas 0 38 960 1027 12;
#X obj 101 101 cnv 19 618 118 empty empty empty 20 12 0 12 #404040 #404040 0;
#X obj 690 112 tgl 19 0 empty empty Metro -40 10 0 12 #202020 #ff0400 #ff0400 0 1;
#X msg 742 270 1;
#X obj 742 293 + 0;
#X floatatom 742 342 5 0 0 0 - - - 0;
#X obj 762 425 s pulse;
#X obj 742 318 % 128;
#X obj 829 169 sel 0;
#X msg 829 193 0;
#X obj 101 -110 r pulse;
#X obj 137 160 hradio 10 1 0 32 empty empty empty 0 -10 0 12 #202020 #ff0400 #000000 0;
#X obj 137 170 hradio 10 1 0 32 empty empty empty 0 -10 0 12 #202020 #ff0400 #000000 0;
#X obj 232 6 - 32;
#X obj 137 180 hradio 10 1 0 32 empty empty empty 0 -10 0 12 #202020 #ff0400 #000000 0;
#X obj 137 190 hradio 10 1 0 32 empty empty empty 0 -10 0 12 #202020 #ff0400 #000000 0;
#X obj 272 31 - 64;
#X obj 311 56 - 96;
#X obj 179 -42 moses 32;
#X obj 232 -18 moses 64;
#X obj 272 7 moses 96;
#X obj 134 -73 moses -1;
#X obj 741 246 metro 100;
#X obj 131 -22 + 32;
#X obj 79 -73 sel -1;
#X msg 79 -48 0;
#X obj 448 101 cnv 19 10 118 empty empty empty 20 12 0 12 #404040 #404040 0;
#X obj 482 124 cnv 19 80 76 empty empty BPM 10 12 0 30 #606060 #ff0400 0;
#X obj 774 217 +;
#X msg 781 276 0;
#X obj 488 164 cnv 19 60 30 empty empty empty 20 12 0 30 #ff0400 #ff0400 0;
#X floatatom 492 169 5 0 0 0 - - - 16;
#X obj 506 232 expr 60/$f1;
#X floatatom 506 256 5 0 0 0 - - - 0;
#X obj 506 303 * 1000;
#X obj 516 16 loadbang;
#X obj 506 279 / 4;
#X obj 506 327 s metro_speed;
#X msg 516 40 136;
#X obj 762 395 - 1;
#X connect 1 0 7 0;
#X connect 1 0 21 0;
#X connect 2 0 3 0;
#X connect 3 0 6 0;
#X connect 4 0 3 1;
#X connect 4 0 38 0;
#X connect 6 0 4 0;
#X connect 7 0 8 0;
#X connect 8 0 3 1;
#X connect 9 0 23 0;
#X connect 12 0 11 0;
#X connect 15 0 13 0;
#X connect 16 0 14 0;
#X connect 17 0 10 0;
#X connect 17 1 18 0;
#X connect 18 0 12 0;
#X connect 18 1 19 0;
#X connect 19 0 15 0;
#X connect 19 1 16 0;
#X connect 20 1 17 0;
#X connect 21 0 2 0;
#X connect 21 0 28 0;
#X connect 22 0 14 0;
#X connect 23 0 24 0;
#X connect 23 1 20 0;
#X connect 24 0 22 0;
#X connect 27 0 21 1;
#X connect 28 0 27 0;
#X connect 30 0 31 0;
#X connect 31 0 32 0;
#X connect 32 0 35 0;
#X connect 33 0 27 1;
#X connect 33 0 36 0;
#X connect 34 0 37 0;
#X connect 35 0 33 0;
#X connect 37 0 30 0;
#X connect 38 0 5 0;
#X coords 0 -1 1 1 620 120 1 100 100;
