#N canvas 0 38 1728 1027 12;
#X obj 33 0 inlet;
#X obj 115 813 outlet;
#X obj 160 5 loadbang;
#X obj 1388 382 spigot;
#X obj 1438 391 tgl 19 0 empty \$0-seq14_s empty 0 -10 0 12 #fcfcfc #000000 #000000 0 1;
#X obj 1468 382 spigot;
#X obj 1518 391 tgl 19 0 empty \$0-seq15_s empty 0 -10 0 12 #fcfcfc #000000 #000000 0 1;
#X obj 2668 382 spigot;
#X obj 2718 391 tgl 19 0 empty \$0-seq30_s empty 0 -10 0 12 #fcfcfc #000000 #000000 0 1;
#X obj 2748 382 spigot;
#X obj 2798 391 tgl 19 0 empty \$0-seq31_s empty 0 -10 0 12 #fcfcfc #000000 #000000 0 1;
#X obj 3948 382 spigot;
#X obj 3998 391 tgl 19 0 empty \$0-seq46_s empty 0 -10 0 12 #fcfcfc #000000 #000000 0 1;
#X obj 4028 382 spigot;
#X obj 4078 391 tgl 19 0 empty \$0-seq47_s empty 0 -10 0 12 #fcfcfc #000000 #000000 0 1;
#X obj 5232 381 spigot;
#X obj 5282 390 tgl 19 0 empty \$0-seq62_s empty 0 -10 0 12 #fcfcfc #000000 #000000 0 1;
#X obj 5312 381 spigot;
#X obj 5362 390 tgl 19 0 empty \$0-seq63_s empty 0 -10 0 12 #fcfcfc #000000 #000000 0 1;
#X obj 268 382 spigot;
#X obj 318 391 tgl 19 0 empty \$0-seq0_s empty 0 -10 0 12 #fcfcfc #000000 #000000 0 1;
#X obj 348 382 spigot;
#X obj 398 391 tgl 19 0 empty \$0-seq1_s empty 0 -10 0 12 #fcfcfc #000000 #000000 0 1;
#X obj 428 382 spigot;
#X obj 478 391 tgl 19 0 empty \$0-seq2_s empty 0 -10 0 12 #fcfcfc #000000 #000000 0 1;
#X obj 508 382 spigot;
#X obj 558 391 tgl 19 0 empty \$0-seq3_s empty 0 -10 0 12 #fcfcfc #000000 #000000 0 1;
#X obj 588 382 spigot;
#X obj 638 391 tgl 19 0 empty \$0-seq4_s empty 0 -10 0 12 #fcfcfc #000000 #000000 0 1;
#X obj 668 382 spigot;
#X obj 718 391 tgl 19 0 empty \$0-seq5_s empty 0 -10 0 12 #fcfcfc #000000 #000000 0 1;
#X obj 748 382 spigot;
#X obj 798 391 tgl 19 0 empty \$0-seq6_s empty 0 -10 0 12 #fcfcfc #000000 #000000 0 1;
#X obj 828 382 spigot;
#X obj 878 391 tgl 19 0 empty \$0-seq7_s empty 0 -10 0 12 #fcfcfc #000000 #000000 0 1;
#X obj 908 382 spigot;
#X obj 958 391 tgl 19 0 empty \$0-seq8_s empty 0 -10 0 12 #fcfcfc #000000 #000000 0 1;
#X obj 988 382 spigot;
#X obj 1038 391 tgl 19 0 empty \$0-seq9_s empty 0 -10 0 12 #fcfcfc #000000 #000000 0 1;
#X obj 1068 382 spigot;
#X obj 1118 391 tgl 19 0 empty \$0-seq10_s empty 0 -10 0 12 #fcfcfc #000000 #000000 0 1;
#X obj 1148 382 spigot;
#X obj 1198 391 tgl 19 0 empty \$0-seq11_s empty 0 -10 0 12 #fcfcfc #000000 #000000 0 1;
#X obj 1228 382 spigot;
#X obj 1278 391 tgl 19 0 empty \$0-seq12_s empty 0 -10 0 12 #fcfcfc #000000 #000000 0 1;
#X obj 1308 382 spigot;
#X obj 1358 391 tgl 19 0 empty \$0-seq13_s empty 0 -10 0 12 #fcfcfc #000000 #000000 0 1;
#X obj 1548 382 spigot;
#X obj 1598 391 tgl 19 0 empty \$0-seq16_s empty 0 -10 0 12 #fcfcfc #000000 #000000 0 1;
#X obj 1628 382 spigot;
#X obj 1678 391 tgl 19 0 empty \$0-seq17_s empty 0 -10 0 12 #fcfcfc #000000 #000000 0 1;
#X obj 1708 382 spigot;
#X obj 1758 391 tgl 19 0 empty \$0-seq18_s empty 0 -10 0 12 #fcfcfc #000000 #000000 0 1;
#X obj 1788 382 spigot;
#X obj 1838 391 tgl 19 0 empty \$0-seq19_s empty 0 -10 0 12 #fcfcfc #000000 #000000 0 1;
#X obj 1868 382 spigot;
#X obj 1918 391 tgl 19 0 empty \$0-seq20_s empty 0 -10 0 12 #fcfcfc #000000 #000000 0 1;
#X obj 1948 382 spigot;
#X obj 1998 391 tgl 19 0 empty \$0-seq21_s empty 0 -10 0 12 #fcfcfc #000000 #000000 0 1;
#X obj 2028 382 spigot;
#X obj 2078 391 tgl 19 0 empty \$0-seq22_s empty 0 -10 0 12 #fcfcfc #000000 #000000 0 1;
#X obj 2108 382 spigot;
#X obj 2158 391 tgl 19 0 empty \$0-seq23_s empty 0 -10 0 12 #fcfcfc #000000 #000000 0 1;
#X obj 2188 382 spigot;
#X obj 2238 391 tgl 19 0 empty \$0-seq24_s empty 0 -10 0 12 #fcfcfc #000000 #000000 0 1;
#X obj 2268 382 spigot;
#X obj 2318 391 tgl 19 0 empty \$0-seq25_s empty 0 -10 0 12 #fcfcfc #000000 #000000 0 1;
#X obj 2348 382 spigot;
#X obj 2398 391 tgl 19 0 empty \$0-seq26_s empty 0 -10 0 12 #fcfcfc #000000 #000000 0 1;
#X obj 2428 382 spigot;
#X obj 2478 391 tgl 19 0 empty \$0-seq27_s empty 0 -10 0 12 #fcfcfc #000000 #000000 0 1;
#X obj 2508 382 spigot;
#X obj 2558 391 tgl 19 0 empty \$0-seq28_s empty 0 -10 0 12 #fcfcfc #000000 #000000 0 1;
#X obj 2588 382 spigot;
#X obj 2638 391 tgl 19 0 empty \$0-seq29_s empty 0 -10 0 12 #fcfcfc #000000 #000000 0 1;
#X obj 2828 382 spigot;
#X obj 2878 391 tgl 19 0 empty \$0-seq32_s empty 0 -10 0 12 #fcfcfc #000000 #000000 0 1;
#X obj 2908 382 spigot;
#X obj 2958 391 tgl 19 0 empty \$0-seq33_s empty 0 -10 0 12 #fcfcfc #000000 #000000 0 1;
#X obj 2988 382 spigot;
#X obj 3038 391 tgl 19 0 empty \$0-seq34_s empty 0 -10 0 12 #fcfcfc #000000 #000000 0 1;
#X obj 3068 382 spigot;
#X obj 3118 391 tgl 19 0 empty \$0-seq35_s empty 0 -10 0 12 #fcfcfc #000000 #000000 0 1;
#X obj 3148 382 spigot;
#X obj 3198 391 tgl 19 0 empty \$0-seq36_s empty 0 -10 0 12 #fcfcfc #000000 #000000 0 1;
#X obj 3228 382 spigot;
#X obj 3278 391 tgl 19 0 empty \$0-seq37_s empty 0 -10 0 12 #fcfcfc #000000 #000000 0 1;
#X obj 3308 382 spigot;
#X obj 3358 391 tgl 19 0 empty \$0-seq38_s empty 0 -10 0 12 #fcfcfc #000000 #000000 0 1;
#X obj 3388 382 spigot;
#X obj 3438 391 tgl 19 0 empty \$0-seq39_s empty 0 -10 0 12 #fcfcfc #000000 #000000 0 1;
#X obj 3468 382 spigot;
#X obj 3518 391 tgl 19 0 empty \$0-seq40_s empty 0 -10 0 12 #fcfcfc #000000 #000000 0 1;
#X obj 3548 382 spigot;
#X obj 3598 391 tgl 19 0 empty \$0-seq41_s empty 0 -10 0 12 #fcfcfc #000000 #000000 0 1;
#X obj 3628 382 spigot;
#X obj 3678 391 tgl 19 0 empty \$0-seq42_s empty 0 -10 0 12 #fcfcfc #000000 #000000 0 1;
#X obj 3708 382 spigot;
#X obj 3758 391 tgl 19 0 empty \$0-seq43_s empty 0 -10 0 12 #fcfcfc #000000 #000000 0 1;
#X obj 3788 382 spigot;
#X obj 3838 391 tgl 19 0 empty \$0-seq44_s empty 0 -10 0 12 #fcfcfc #000000 #000000 0 1;
#X obj 3868 382 spigot;
#X obj 3918 391 tgl 19 0 empty \$0-seq45_s empty 0 -10 0 12 #fcfcfc #000000 #000000 0 1;
#X obj 4112 381 spigot;
#X obj 4162 390 tgl 19 0 empty \$0-seq48_s empty 0 -10 0 12 #fcfcfc #000000 #000000 0 1;
#X obj 4192 381 spigot;
#X obj 4242 390 tgl 19 0 empty \$0-seq49_s empty 0 -10 0 12 #fcfcfc #000000 #000000 0 1;
#X obj 4272 381 spigot;
#X obj 4322 390 tgl 19 0 empty \$0-seq50_s empty 0 -10 0 12 #fcfcfc #000000 #000000 0 1;
#X obj 4352 381 spigot;
#X obj 4402 390 tgl 19 0 empty \$0-seq51_s empty 0 -10 0 12 #fcfcfc #000000 #000000 0 1;
#X obj 4432 381 spigot;
#X obj 4482 390 tgl 19 0 empty \$0-seq52_s empty 0 -10 0 12 #fcfcfc #000000 #000000 0 1;
#X obj 4512 381 spigot;
#X obj 4562 390 tgl 19 0 empty \$0-seq53_s empty 0 -10 0 12 #fcfcfc #000000 #000000 0 1;
#X obj 4592 381 spigot;
#X obj 4642 390 tgl 19 0 empty \$0-seq54_s empty 0 -10 0 12 #fcfcfc #000000 #000000 0 1;
#X obj 4672 381 spigot;
#X obj 4722 390 tgl 19 0 empty \$0-seq55_s empty 0 -10 0 12 #fcfcfc #000000 #000000 0 1;
#X obj 4752 381 spigot;
#X obj 4802 390 tgl 19 0 empty \$0-seq56_s empty 0 -10 0 12 #fcfcfc #000000 #000000 0 1;
#X obj 4832 381 spigot;
#X obj 4882 390 tgl 19 0 empty \$0-seq57_s empty 0 -10 0 12 #fcfcfc #000000 #000000 0 1;
#X obj 4912 381 spigot;
#X obj 4962 390 tgl 19 0 empty \$0-seq58_s empty 0 -10 0 12 #fcfcfc #000000 #000000 0 1;
#X obj 4992 381 spigot;
#X obj 5042 390 tgl 19 0 empty \$0-seq59_s empty 0 -10 0 12 #fcfcfc #000000 #000000 0 1;
#X obj 5072 381 spigot;
#X obj 5122 390 tgl 19 0 empty \$0-seq60_s empty 0 -10 0 12 #fcfcfc #000000 #000000 0 1;
#X obj 5152 381 spigot;
#X obj 5202 390 tgl 19 0 empty \$0-seq61_s empty 0 -10 0 12 #fcfcfc #000000 #000000 0 1;
#X obj 321 224 route 0 1 2 3 4 5 6 7 8 9 10 11 12 13 14 15 16 17 18 19 20 21 22 23 24 25 26 27 28 29 30 31 32 33 34 35 36 37 38 39 40 41 42 43 44 45 46 47 48 49 50 51 52 53 54 55 56 57 58 59 60 61 62 63, f 367;
#X obj 275 460 route 64 65 66 67 68 69 70 71 72 73 74 75 76 77 78 79 80 81 82 83 84 85 86 87 88 89 90 91 92 93 94 95 96 97 98 99 100 101 102 103 104 105 106 107 108 109 110 111 112 113 114 115 116 117 118 119 120 121 122 123 124 125 126 127, f 733;
#X obj 1391 563 spigot;
#X obj 1441 572 tgl 19 0 empty \$0-seq78_s empty 0 -10 0 12 #fcfcfc #000000 #000000 0 1;
#X obj 1471 563 spigot;
#X obj 1521 572 tgl 19 0 empty \$0-seq79_s empty 0 -10 0 12 #fcfcfc #000000 #000000 0 1;
#X obj 2673 566 spigot;
#X obj 2723 575 tgl 19 0 empty \$0-seq94_s empty 0 -10 0 12 #fcfcfc #000000 #000000 0 1;
#X obj 2753 566 spigot;
#X obj 2803 575 tgl 19 0 empty \$0-seq95_s empty 0 -10 0 12 #fcfcfc #000000 #000000 0 1;
#X obj 3965 565 spigot;
#X obj 4015 574 tgl 19 0 empty \$0-seq110_s empty 0 -10 0 12 #fcfcfc #000000 #000000 0 1;
#X obj 4045 565 spigot;
#X obj 4095 574 tgl 19 0 empty \$0-seq111_s empty 0 -10 0 12 #fcfcfc #000000 #000000 0 1;
#X obj 5242 574 spigot;
#X obj 5292 583 tgl 19 0 empty \$0-seq126_s empty 0 -10 0 12 #fcfcfc #000000 #000000 0 1;
#X obj 5322 574 spigot;
#X obj 5372 583 tgl 19 0 empty \$0-seq127_s empty 0 -10 0 12 #fcfcfc #000000 #000000 0 1;
#X obj 271 563 spigot;
#X obj 321 572 tgl 19 0 empty \$0-seq64_s empty 0 -10 0 12 #fcfcfc #000000 #000000 0 1;
#X obj 351 563 spigot;
#X obj 401 572 tgl 19 0 empty \$0-seq65_s empty 0 -10 0 12 #fcfcfc #000000 #000000 0 1;
#X obj 431 563 spigot;
#X obj 481 572 tgl 19 0 empty \$0-seq66_s empty 0 -10 0 12 #fcfcfc #000000 #000000 0 1;
#X obj 511 563 spigot;
#X obj 561 572 tgl 19 0 empty \$0-seq67_s empty 0 -10 0 12 #fcfcfc #000000 #000000 0 1;
#X obj 591 563 spigot;
#X obj 641 572 tgl 19 0 empty \$0-seq68_s empty 0 -10 0 12 #fcfcfc #000000 #000000 0 1;
#X obj 671 563 spigot;
#X obj 721 572 tgl 19 0 empty \$0-seq69_s empty 0 -10 0 12 #fcfcfc #000000 #000000 0 1;
#X obj 751 563 spigot;
#X obj 801 572 tgl 19 0 empty \$0-seq70_s empty 0 -10 0 12 #fcfcfc #000000 #000000 0 1;
#X obj 831 563 spigot;
#X obj 881 572 tgl 19 0 empty \$0-seq71_s empty 0 -10 0 12 #fcfcfc #000000 #000000 0 1;
#X obj 911 563 spigot;
#X obj 961 572 tgl 19 0 empty \$0-seq72_s empty 0 -10 0 12 #fcfcfc #000000 #000000 0 1;
#X obj 991 563 spigot;
#X obj 1041 572 tgl 19 0 empty \$0-seq73_s empty 0 -10 0 12 #fcfcfc #000000 #000000 0 1;
#X obj 1071 563 spigot;
#X obj 1121 572 tgl 19 0 empty \$0-seq74_s empty 0 -10 0 12 #fcfcfc #000000 #000000 0 1;
#X obj 1151 563 spigot;
#X obj 1201 572 tgl 19 0 empty \$0-seq75_s empty 0 -10 0 12 #fcfcfc #000000 #000000 0 1;
#X obj 1231 563 spigot;
#X obj 1281 572 tgl 19 0 empty \$0-seq76_s empty 0 -10 0 12 #fcfcfc #000000 #000000 0 1;
#X obj 1311 563 spigot;
#X obj 1361 572 tgl 19 0 empty \$0-seq77_s empty 0 -10 0 12 #fcfcfc #000000 #000000 0 1;
#X obj 1553 566 spigot;
#X obj 1603 575 tgl 19 0 empty \$0-seq80_s empty 0 -10 0 12 #fcfcfc #000000 #000000 0 1;
#X obj 1633 566 spigot;
#X obj 1683 575 tgl 19 0 empty \$0-seq81_s empty 0 -10 0 12 #fcfcfc #000000 #000000 0 1;
#X obj 1713 566 spigot;
#X obj 1763 575 tgl 19 0 empty \$0-seq82_s empty 0 -10 0 12 #fcfcfc #000000 #000000 0 1;
#X obj 1793 566 spigot;
#X obj 1843 575 tgl 19 0 empty \$0-seq83_s empty 0 -10 0 12 #fcfcfc #000000 #000000 0 1;
#X obj 1873 566 spigot;
#X obj 1923 575 tgl 19 0 empty \$0-seq84_s empty 0 -10 0 12 #fcfcfc #000000 #000000 0 1;
#X obj 1953 566 spigot;
#X obj 2003 575 tgl 19 0 empty \$0-seq85_s empty 0 -10 0 12 #fcfcfc #000000 #000000 0 1;
#X obj 2033 566 spigot;
#X obj 2083 575 tgl 19 0 empty \$0-seq86_s empty 0 -10 0 12 #fcfcfc #000000 #000000 0 1;
#X obj 2113 566 spigot;
#X obj 2163 575 tgl 19 0 empty \$0-seq87_s empty 0 -10 0 12 #fcfcfc #000000 #000000 0 1;
#X obj 2193 566 spigot;
#X obj 2243 575 tgl 19 0 empty \$0-seq88_s empty 0 -10 0 12 #fcfcfc #000000 #000000 0 1;
#X obj 2273 566 spigot;
#X obj 2323 575 tgl 19 0 empty \$0-seq89_s empty 0 -10 0 12 #fcfcfc #000000 #000000 0 1;
#X obj 2353 566 spigot;
#X obj 2403 575 tgl 19 0 empty \$0-seq90_s empty 0 -10 0 12 #fcfcfc #000000 #000000 0 1;
#X obj 2433 566 spigot;
#X obj 2483 575 tgl 19 0 empty \$0-seq91_s empty 0 -10 0 12 #fcfcfc #000000 #000000 0 1;
#X obj 2513 566 spigot;
#X obj 2563 575 tgl 19 0 empty \$0-seq92_s empty 0 -10 0 12 #fcfcfc #000000 #000000 0 1;
#X obj 2593 566 spigot;
#X obj 2643 575 tgl 19 0 empty \$0-seq93_s empty 0 -10 0 12 #fcfcfc #000000 #000000 0 1;
#X obj 2845 565 spigot;
#X obj 2895 574 tgl 19 0 empty \$0-seq96_s empty 0 -10 0 12 #fcfcfc #000000 #000000 0 1;
#X obj 2925 565 spigot;
#X obj 2975 574 tgl 19 0 empty \$0-seq97_s empty 0 -10 0 12 #fcfcfc #000000 #000000 0 1;
#X obj 3005 565 spigot;
#X obj 3055 574 tgl 19 0 empty \$0-seq98_s empty 0 -10 0 12 #fcfcfc #000000 #000000 0 1;
#X obj 3085 565 spigot;
#X obj 3135 574 tgl 19 0 empty \$0-seq99_s empty 0 -10 0 12 #fcfcfc #000000 #000000 0 1;
#X obj 3165 565 spigot;
#X obj 3215 574 tgl 19 0 empty \$0-seq100_s empty 0 -10 0 12 #fcfcfc #000000 #000000 0 1;
#X obj 3245 565 spigot;
#X obj 3295 574 tgl 19 0 empty \$0-seq101_s empty 0 -10 0 12 #fcfcfc #000000 #000000 0 1;
#X obj 3325 565 spigot;
#X obj 3375 574 tgl 19 0 empty \$0-seq102_s empty 0 -10 0 12 #fcfcfc #000000 #000000 0 1;
#X obj 3405 565 spigot;
#X obj 3455 574 tgl 19 0 empty \$0-seq103_s empty 0 -10 0 12 #fcfcfc #000000 #000000 0 1;
#X obj 3485 565 spigot;
#X obj 3535 574 tgl 19 0 empty \$0-seq104_s empty 0 -10 0 12 #fcfcfc #000000 #000000 0 1;
#X obj 3565 565 spigot;
#X obj 3615 574 tgl 19 0 empty \$0-seq105_s empty 0 -10 0 12 #fcfcfc #000000 #000000 0 1;
#X obj 3645 565 spigot;
#X obj 3695 574 tgl 19 0 empty \$0-seq106_s empty 0 -10 0 12 #fcfcfc #000000 #000000 0 1;
#X obj 3725 565 spigot;
#X obj 3775 574 tgl 19 0 empty \$0-seq107_s empty 0 -10 0 12 #fcfcfc #000000 #000000 0 1;
#X obj 3805 565 spigot;
#X obj 3855 574 tgl 19 0 empty \$0-seq108_s empty 0 -10 0 12 #fcfcfc #000000 #000000 0 1;
#X obj 3885 565 spigot;
#X obj 3935 574 tgl 19 0 empty \$0-seq109_s empty 0 -10 0 12 #fcfcfc #000000 #000000 0 1;
#X obj 4122 574 spigot;
#X obj 4172 583 tgl 19 0 empty \$0-seq112_s empty 0 -10 0 12 #fcfcfc #000000 #000000 0 1;
#X obj 4202 574 spigot;
#X obj 4252 583 tgl 19 0 empty \$0-seq113_s empty 0 -10 0 12 #fcfcfc #000000 #000000 0 1;
#X obj 4282 574 spigot;
#X obj 4332 583 tgl 19 0 empty \$0-seq114_s empty 0 -10 0 12 #fcfcfc #000000 #000000 0 1;
#X obj 4362 574 spigot;
#X obj 4412 583 tgl 19 0 empty \$0-seq115_s empty 0 -10 0 12 #fcfcfc #000000 #000000 0 1;
#X obj 4442 574 spigot;
#X obj 4492 583 tgl 19 0 empty \$0-seq116_s empty 0 -10 0 12 #fcfcfc #000000 #000000 0 1;
#X obj 4522 574 spigot;
#X obj 4572 583 tgl 19 0 empty \$0-seq117_s empty 0 -10 0 12 #fcfcfc #000000 #000000 0 1;
#X obj 4602 574 spigot;
#X obj 4652 583 tgl 19 0 empty \$0-seq118_s empty 0 -10 0 12 #fcfcfc #000000 #000000 0 1;
#X obj 4682 574 spigot;
#X obj 4732 583 tgl 19 0 empty \$0-seq119_s empty 0 -10 0 12 #fcfcfc #000000 #000000 0 1;
#X obj 4762 574 spigot;
#X obj 4812 583 tgl 19 0 empty \$0-seq120_s empty 0 -10 0 12 #fcfcfc #000000 #000000 0 1;
#X obj 4842 574 spigot;
#X obj 4892 583 tgl 19 0 empty \$0-seq121_s empty 0 -10 0 12 #fcfcfc #000000 #000000 0 1;
#X obj 4922 574 spigot;
#X obj 4972 583 tgl 19 0 empty \$0-seq122_s empty 0 -10 0 12 #fcfcfc #000000 #000000 0 1;
#X obj 5002 574 spigot;
#X obj 5052 583 tgl 19 0 empty \$0-seq123_s empty 0 -10 0 12 #fcfcfc #000000 #000000 0 1;
#X obj 5082 574 spigot;
#X obj 5132 583 tgl 19 0 empty \$0-seq124_s empty 0 -10 0 12 #fcfcfc #000000 #000000 0 1;
#X obj 5162 574 spigot;
#X obj 5212 583 tgl 19 0 empty \$0-seq125_s empty 0 -10 0 12 #fcfcfc #000000 #000000 0 1;
#X obj 341 105 t f f, f 16;
#X floatatom 145 778 5 0 0 0 - - - 0;
#X obj 144 754 + 0;
#X msg 145 714 0;
#X obj 145 690 t f;
#X floatatom 81 720 5 0 0 0 - - - 0;
#X obj 95 768 bng 19 250 50 0 empty empty empty 0 -10 0 12 #fcfcfc #000000 #000000;
#X floatatom 363 134 5 0 0 0 - - - 0;
#X obj 151 476 bng 19 250 50 0 empty empty empty 0 -10 0 12 #fcfcfc #000000 #000000;
#X obj 101 101 cnv 19 188 128 empty empty empty 20 12 0 12 #606060 #404040 0;
#X obj 121 139 tgl 10 0 \$0-seq0_s \$0-seq0_r empty 0 -10 0 12 #000000 #ffffff #000000 0 1;
#X obj 131 139 tgl 10 0 \$0-seq1_s \$0-seq1_r empty 0 -10 0 12 #fcfcfc #000000 #000000 0 1;
#X obj 141 139 tgl 10 0 \$0-seq2_s \$0-seq2_r empty 0 -10 0 12 #fcfcfc #000000 #000000 0 1;
#X obj 151 139 tgl 10 0 \$0-seq3_s \$0-seq3_r empty 0 -10 0 12 #fcfcfc #000000 #000000 0 1;
#X obj 161 139 tgl 10 0 \$0-seq4_s \$0-seq4_r empty 0 -10 0 12 #dfdfdf #000000 #000000 0 1;
#X obj 171 139 tgl 10 0 \$0-seq5_s \$0-seq5_r empty 0 -10 0 12 #fcfcfc #000000 #000000 0 1;
#X obj 181 139 tgl 10 0 \$0-seq6_s \$0-seq6_r empty 0 -10 0 12 #fcfcfc #000000 #000000 0 1;
#X obj 191 139 tgl 10 0 \$0-seq7_s \$0-seq7_r empty 0 -10 0 12 #fcfcfc #000000 #000000 0 1;
#X obj 201 139 tgl 10 0 \$0-seq8_s \$0-seq8_r empty 0 -10 0 12 #000000 #ffffff #000000 0 1;
#X obj 211 139 tgl 10 0 \$0-seq9_s \$0-seq9_r empty 0 -10 0 12 #fcfcfc #000000 #000000 0 1;
#X obj 221 139 tgl 10 0 \$0-seq10_s \$0-seq10_r empty 0 -10 0 12 #fcfcfc #000000 #000000 0 1;
#X obj 231 139 tgl 10 0 \$0-seq11_s \$0-seq11_r empty 0 -10 0 12 #fcfcfc #000000 #000000 0 1;
#X obj 241 139 tgl 10 0 \$0-seq12_s \$0-seq12_r empty 0 -10 0 12 #dfdfdf #000000 #000000 0 1;
#X obj 251 139 tgl 10 0 \$0-seq13_s \$0-seq13_r empty 0 -10 0 12 #fcfcfc #000000 #000000 0 1;
#X obj 261 139 tgl 10 0 \$0-seq14_s \$0-seq14_r empty 0 -10 0 12 #fcfcfc #000000 #000000 0 1;
#X obj 271 139 tgl 10 0 \$0-seq15_s \$0-seq15_r empty 0 -10 0 12 #fcfcfc #000000 #000000 0 1;
#X obj 121 149 tgl 10 0 \$0-seq16_s \$0-seq16_r empty 0 -10 0 12 #000000 #ffffff #000000 0 1;
#X obj 131 149 tgl 10 0 \$0-seq17_s \$0-seq17_r empty 0 -10 0 12 #fcfcfc #000000 #000000 0 1;
#X obj 141 149 tgl 10 0 \$0-seq18_s \$0-seq18_r empty 0 -10 0 12 #fcfcfc #000000 #000000 0 1;
#X obj 151 149 tgl 10 0 \$0-seq19_s \$0-seq19_r empty 0 -10 0 12 #fcfcfc #000000 #000000 0 1;
#X obj 161 149 tgl 10 0 \$0-seq20_s \$0-seq20_r empty 0 -10 0 12 #dfdfdf #000000 #000000 0 1;
#X obj 171 149 tgl 10 0 \$0-seq21_s \$0-seq21_r empty 0 -10 0 12 #fcfcfc #000000 #000000 0 1;
#X obj 181 149 tgl 10 0 \$0-seq22_s \$0-seq22_r empty 0 -10 0 12 #fcfcfc #000000 #000000 0 1;
#X obj 191 149 tgl 10 0 \$0-seq23_s \$0-seq23_r empty 0 -10 0 12 #fcfcfc #000000 #000000 0 1;
#X obj 201 149 tgl 10 0 \$0-seq24_s \$0-seq24_r empty 0 -10 0 12 #000000 #ffffff #000000 0 1;
#X obj 211 149 tgl 10 0 \$0-seq25_s \$0-seq25_r empty 0 -10 0 12 #fcfcfc #000000 #000000 0 1;
#X obj 221 149 tgl 10 0 \$0-seq26_s \$0-seq26_r empty 0 -10 0 12 #fcfcfc #000000 #000000 0 1;
#X obj 231 149 tgl 10 0 \$0-seq27_s \$0-seq27_r empty 0 -10 0 12 #fcfcfc #000000 #000000 0 1;
#X obj 241 149 tgl 10 0 \$0-seq28_s \$0-seq28_r empty 0 -10 0 12 #dfdfdf #000000 #000000 0 1;
#X obj 251 149 tgl 10 0 \$0-seq29_s \$0-seq29_r empty 0 -10 0 12 #fcfcfc #000000 #000000 0 1;
#X obj 261 149 tgl 10 0 \$0-seq30_s \$0-seq30_r empty 0 -10 0 12 #fcfcfc #000000 #000000 0 1;
#X obj 271 149 tgl 10 0 \$0-seq31_s \$0-seq31_r empty 0 -10 0 12 #fcfcfc #000000 #000000 0 1;
#X obj 121 159 tgl 10 0 \$0-seq32_s \$0-seq32_r empty 0 -10 0 12 #000000 #ffffff #000000 0 1;
#X obj 131 159 tgl 10 0 \$0-seq33_s \$0-seq33_r empty 0 -10 0 12 #fcfcfc #000000 #000000 0 1;
#X obj 141 159 tgl 10 0 \$0-seq34_s \$0-seq34_r empty 0 -10 0 12 #fcfcfc #000000 #000000 0 1;
#X obj 151 159 tgl 10 0 \$0-seq35_s \$0-seq35_r empty 0 -10 0 12 #fcfcfc #000000 #000000 0 1;
#X obj 161 159 tgl 10 0 \$0-seq36_s \$0-seq36_r empty 0 -10 0 12 #dfdfdf #000000 #000000 0 1;
#X obj 171 159 tgl 10 0 \$0-seq37_s \$0-seq37_r empty 0 -10 0 12 #fcfcfc #000000 #000000 0 1;
#X obj 181 159 tgl 10 0 \$0-seq38_s \$0-seq38_r empty 0 -10 0 12 #fcfcfc #000000 #000000 0 1;
#X obj 191 159 tgl 10 0 \$0-seq39_s \$0-seq39_r empty 0 -10 0 12 #fcfcfc #000000 #000000 0 1;
#X obj 201 159 tgl 10 0 \$0-seq40_s \$0-seq40_r empty 0 -10 0 12 #000000 #ffffff #000000 0 1;
#X obj 211 159 tgl 10 0 \$0-seq41_s \$0-seq41_r empty 0 -10 0 12 #fcfcfc #000000 #000000 0 1;
#X obj 221 159 tgl 10 0 \$0-seq42_s \$0-seq42_r empty 0 -10 0 12 #fcfcfc #000000 #000000 0 1;
#X obj 231 159 tgl 10 0 \$0-seq43_s \$0-seq43_r empty 0 -10 0 12 #fcfcfc #000000 #000000 0 1;
#X obj 241 159 tgl 10 0 \$0-seq44_s \$0-seq44_r empty 0 -10 0 12 #dfdfdf #000000 #000000 0 1;
#X obj 251 159 tgl 10 0 \$0-seq45_s \$0-seq45_r empty 0 -10 0 12 #fcfcfc #000000 #000000 0 1;
#X obj 261 159 tgl 10 0 \$0-seq46_s \$0-seq46_r empty 0 -10 0 12 #fcfcfc #000000 #000000 0 1;
#X obj 271 159 tgl 10 0 \$0-seq47_s \$0-seq47_r empty 0 -10 0 12 #fcfcfc #000000 #000000 0 1;
#X obj 121 169 tgl 10 0 \$0-seq48_s \$0-seq48_r empty 0 -10 0 12 #000000 #ffffff #000000 0 1;
#X obj 131 169 tgl 10 0 \$0-seq49_s \$0-seq49_r empty 0 -10 0 12 #fcfcfc #000000 #000000 0 1;
#X obj 141 169 tgl 10 0 \$0-seq50_s \$0-seq50_r empty 0 -10 0 12 #fcfcfc #000000 #000000 0 1;
#X obj 151 169 tgl 10 0 \$0-seq51_s \$0-seq51_r empty 0 -10 0 12 #fcfcfc #000000 #000000 0 1;
#X obj 161 169 tgl 10 0 \$0-seq52_s \$0-seq52_r empty 0 -10 0 12 #dfdfdf #000000 #000000 0 1;
#X obj 171 169 tgl 10 0 \$0-seq53_s \$0-seq53_r empty 0 -10 0 12 #fcfcfc #000000 #000000 0 1;
#X obj 181 169 tgl 10 0 \$0-seq54_s \$0-seq54_r empty 0 -10 0 12 #fcfcfc #000000 #000000 0 1;
#X obj 191 169 tgl 10 0 \$0-seq55_s \$0-seq55_r empty 0 -10 0 12 #fcfcfc #000000 #000000 0 1;
#X obj 201 169 tgl 10 0 \$0-seq56_s \$0-seq56_r empty 0 -10 0 12 #000000 #ffffff #000000 0 1;
#X obj 211 169 tgl 10 0 \$0-seq57_s \$0-seq57_r empty 0 -10 0 12 #fcfcfc #000000 #000000 0 1;
#X obj 221 169 tgl 10 0 \$0-seq58_s \$0-seq58_r empty 0 -10 0 12 #fcfcfc #000000 #000000 0 1;
#X obj 231 169 tgl 10 0 \$0-seq59_s \$0-seq59_r empty 0 -10 0 12 #fcfcfc #000000 #000000 0 1;
#X obj 241 169 tgl 10 0 \$0-seq60_s \$0-seq60_r empty 0 -10 0 12 #dfdfdf #000000 #000000 0 1;
#X obj 251 169 tgl 10 0 \$0-seq61_s \$0-seq61_r empty 0 -10 0 12 #fcfcfc #000000 #000000 0 1;
#X obj 261 169 tgl 10 0 \$0-seq62_s \$0-seq62_r empty 0 -10 0 12 #fcfcfc #000000 #000000 0 1;
#X obj 271 169 tgl 10 0 \$0-seq63_s \$0-seq63_r empty 0 -10 0 12 #fcfcfc #000000 #000000 0 1;
#X obj 121 179 tgl 10 0 \$0-seq64_s \$0-seq64_r empty 0 -10 0 12 #000000 #ffffff #000000 0 1;
#X obj 131 179 tgl 10 0 \$0-seq65_s \$0-seq65_r empty 0 -10 0 12 #fcfcfc #000000 #000000 0 1;
#X obj 141 179 tgl 10 0 \$0-seq66_s \$0-seq66_r empty 0 -10 0 12 #fcfcfc #000000 #000000 0 1;
#X obj 151 179 tgl 10 0 \$0-seq67_s \$0-seq67_r empty 0 -10 0 12 #fcfcfc #000000 #000000 0 1;
#X obj 161 179 tgl 10 0 \$0-seq68_s \$0-seq68_r empty 0 -10 0 12 #dfdfdf #000000 #000000 0 1;
#X obj 171 179 tgl 10 0 \$0-seq69_s \$0-seq69_r empty 0 -10 0 12 #fcfcfc #000000 #000000 0 1;
#X obj 181 179 tgl 10 0 \$0-seq70_s \$0-seq70_r empty 0 -10 0 12 #fcfcfc #000000 #000000 0 1;
#X obj 191 179 tgl 10 0 \$0-seq71_s \$0-seq71_r empty 0 -10 0 12 #fcfcfc #000000 #000000 0 1;
#X obj 201 179 tgl 10 0 \$0-seq72_s \$0-seq72_r empty 0 -10 0 12 #000000 #ffffff #000000 0 1;
#X obj 211 179 tgl 10 0 \$0-seq73_s \$0-seq73_r empty 0 -10 0 12 #fcfcfc #000000 #000000 0 1;
#X obj 221 179 tgl 10 0 \$0-seq74_s \$0-seq74_r empty 0 -10 0 12 #fcfcfc #000000 #000000 0 1;
#X obj 231 179 tgl 10 0 \$0-seq75_s \$0-seq75_r empty 0 -10 0 12 #fcfcfc #000000 #000000 0 1;
#X obj 241 179 tgl 10 0 \$0-seq76_s \$0-seq76_r empty 0 -10 0 12 #dfdfdf #000000 #000000 0 1;
#X obj 251 179 tgl 10 0 \$0-seq77_s \$0-seq77_r empty 0 -10 0 12 #fcfcfc #000000 #000000 0 1;
#X obj 261 179 tgl 10 0 \$0-seq78_s \$0-seq78_r empty 0 -10 0 12 #fcfcfc #000000 #000000 0 1;
#X obj 271 179 tgl 10 0 \$0-seq79_s \$0-seq79_r empty 0 -10 0 12 #fcfcfc #000000 #000000 0 1;
#X obj 121 189 tgl 10 0 \$0-seq80_s \$0-seq80_r empty 0 -10 0 12 #000000 #ffffff #000000 0 1;
#X obj 131 189 tgl 10 0 \$0-seq81_s \$0-seq81_r empty 0 -10 0 12 #fcfcfc #000000 #000000 0 1;
#X obj 141 189 tgl 10 0 \$0-seq82_s \$0-seq82_r empty 0 -10 0 12 #fcfcfc #000000 #000000 0 1;
#X obj 151 189 tgl 10 0 \$0-seq83_s \$0-seq83_r empty 0 -10 0 12 #fcfcfc #000000 #000000 0 1;
#X obj 161 189 tgl 10 0 \$0-seq84_s \$0-seq84_r empty 0 -10 0 12 #dfdfdf #000000 #000000 0 1;
#X obj 171 189 tgl 10 0 \$0-seq85_s \$0-seq85_r empty 0 -10 0 12 #fcfcfc #000000 #000000 0 1;
#X obj 181 189 tgl 10 0 \$0-seq86_s \$0-seq86_r empty 0 -10 0 12 #fcfcfc #000000 #000000 0 1;
#X obj 191 189 tgl 10 0 \$0-seq87_s \$0-seq87_r empty 0 -10 0 12 #fcfcfc #000000 #000000 0 1;
#X obj 201 189 tgl 10 0 \$0-seq88_s \$0-seq88_r empty 0 -10 0 12 #000000 #ffffff #000000 0 1;
#X obj 211 189 tgl 10 0 \$0-seq89_s \$0-seq89_r empty 0 -10 0 12 #fcfcfc #000000 #000000 0 1;
#X obj 221 189 tgl 10 0 \$0-seq90_s \$0-seq90_r empty 0 -10 0 12 #fcfcfc #000000 #000000 0 1;
#X obj 231 189 tgl 10 0 \$0-seq91_s \$0-seq91_r empty 0 -10 0 12 #fcfcfc #000000 #000000 0 1;
#X obj 241 189 tgl 10 0 \$0-seq92_s \$0-seq92_r empty 0 -10 0 12 #dfdfdf #000000 #000000 0 1;
#X obj 251 189 tgl 10 0 \$0-seq93_s \$0-seq93_r empty 0 -10 0 12 #fcfcfc #000000 #000000 0 1;
#X obj 261 189 tgl 10 0 \$0-seq94_s \$0-seq94_r empty 0 -10 0 12 #fcfcfc #000000 #000000 0 1;
#X obj 271 189 tgl 10 0 \$0-seq95_s \$0-seq95_r empty 0 -10 0 12 #fcfcfc #000000 #000000 0 1;
#X obj 121 199 tgl 10 0 \$0-seq96_s \$0-seq96_r empty 0 -10 0 12 #000000 #ffffff #000000 0 1;
#X obj 131 199 tgl 10 0 \$0-seq97_s \$0-seq97_r empty 0 -10 0 12 #fcfcfc #000000 #000000 0 1;
#X obj 141 199 tgl 10 0 \$0-seq98_s \$0-seq98_r empty 0 -10 0 12 #fcfcfc #000000 #000000 0 1;
#X obj 151 199 tgl 10 0 \$0-seq99_s \$0-seq99_r empty 0 -10 0 12 #fcfcfc #000000 #000000 0 1;
#X obj 161 199 tgl 10 0 \$0-seq100_s \$0-seq100_r empty 0 -10 0 12 #dfdfdf #000000 #000000 0 1;
#X obj 171 199 tgl 10 0 \$0-seq101_s \$0-seq101_r empty 0 -10 0 12 #fcfcfc #000000 #000000 0 1;
#X obj 181 199 tgl 10 0 \$0-seq102_s \$0-seq102_r empty 0 -10 0 12 #fcfcfc #000000 #000000 0 1;
#X obj 191 199 tgl 10 0 \$0-seq103_s \$0-seq103_r empty 0 -10 0 12 #fcfcfc #000000 #000000 0 1;
#X obj 201 199 tgl 10 0 \$0-seq104_s \$0-seq104_r empty 0 -10 0 12 #000000 #ffffff #000000 0 1;
#X obj 211 199 tgl 10 0 \$0-seq105_s \$0-seq105_r empty 0 -10 0 12 #fcfcfc #000000 #000000 0 1;
#X obj 221 199 tgl 10 0 \$0-seq106_s \$0-seq106_r empty 0 -10 0 12 #fcfcfc #000000 #000000 0 1;
#X obj 231 199 tgl 10 0 \$0-seq107_s \$0-seq107_r empty 0 -10 0 12 #fcfcfc #000000 #000000 0 1;
#X obj 241 199 tgl 10 0 \$0-seq108_s \$0-seq108_r empty 0 -10 0 12 #dfdfdf #000000 #000000 0 1;
#X obj 251 199 tgl 10 0 \$0-seq109_s \$0-seq109_r empty 0 -10 0 12 #fcfcfc #000000 #000000 0 1;
#X obj 261 199 tgl 10 0 \$0-seq110_s \$0-seq110_r empty 0 -10 0 12 #fcfcfc #000000 #000000 0 1;
#X obj 271 199 tgl 10 0 \$0-seq111_s \$0-seq111_r empty 0 -10 0 12 #fcfcfc #000000 #000000 0 1;
#X obj 121 209 tgl 10 0 \$0-seq112_s \$0-seq112_r empty 0 -10 0 12 #000000 #ffffff #000000 0 1;
#X obj 131 209 tgl 10 0 \$0-seq113_s \$0-seq113_r empty 0 -10 0 12 #fcfcfc #000000 #000000 0 1;
#X obj 141 209 tgl 10 0 \$0-seq114_s \$0-seq114_r empty 0 -10 0 12 #fcfcfc #000000 #000000 0 1;
#X obj 151 209 tgl 10 0 \$0-seq115_s \$0-seq115_r empty 0 -10 0 12 #fcfcfc #000000 #000000 0 1;
#X obj 161 209 tgl 10 0 \$0-seq116_s \$0-seq116_r empty 0 -10 0 12 #dfdfdf #000000 #000000 0 1;
#X obj 171 209 tgl 10 0 \$0-seq117_s \$0-seq117_r empty 0 -10 0 12 #fcfcfc #000000 #000000 0 1;
#X obj 181 209 tgl 10 0 \$0-seq118_s \$0-seq118_r empty 0 -10 0 12 #fcfcfc #000000 #000000 0 1;
#X obj 191 209 tgl 10 0 \$0-seq119_s \$0-seq119_r empty 0 -10 0 12 #fcfcfc #000000 #000000 0 1;
#X obj 201 209 tgl 10 0 \$0-seq120_s \$0-seq120_r empty 0 -10 0 12 #000000 #ffffff #000000 0 1;
#X obj 211 209 tgl 10 0 \$0-seq121_s \$0-seq121_r empty 0 -10 0 12 #fcfcfc #000000 #000000 0 1;
#X obj 221 209 tgl 10 0 \$0-seq122_s \$0-seq122_r empty 0 -10 0 12 #fcfcfc #000000 #000000 0 1;
#X obj 231 209 tgl 10 0 \$0-seq123_s \$0-seq123_r empty 0 -10 0 12 #fcfcfc #000000 #000000 0 1;
#X obj 241 209 tgl 10 0 \$0-seq124_s \$0-seq124_r empty 0 -10 0 12 #dfdfdf #000000 #000000 0 1;
#X obj 251 209 tgl 10 0 \$0-seq125_s \$0-seq125_r empty 0 -10 0 12 #fcfcfc #000000 #000000 0 1;
#X obj 261 209 tgl 10 0 \$0-seq126_s \$0-seq126_r empty 0 -10 0 12 #fcfcfc #000000 #000000 0 1;
#X obj 271 209 tgl 10 0 \$0-seq127_s \$0-seq127_r empty 0 -10 0 12 #fcfcfc #000000 #000000 0 1;
#X obj 33 54 div 16;
#X floatatom 33 78 5 0 0 0 - - - 0;
#X obj 110 139 vradio 10 1 0 8 empty empty empty 0 -10 0 12 #7c7c7c #ff0400 #000000 0;
#X obj 121 128 hradio 10 1 0 16 empty empty empty 0 -10 0 12 #606060 #ff0400 #000000 0;
#X obj 90 47 % 16;
#X obj 33 24 t f f f;
#X obj 201 108 hradio 10 1 0 8 empty empty preset -40 5 0 10 #9f9f9f #ff0400 #ff0400 0;
#X msg 160 29 0;
#N canvas 424 400 1267 640 setter 0;
#X obj 150 16 inlet;
#X obj 149 71 sel 0 1 2 3 4 5 6 7, f 94;
#X obj 149 95 t b b;
#X obj 98 251 until;
#X obj 98 289 f;
#X obj 136 282 + 1;
#X obj 191 278 sel 0;
#X obj 136 308 mod 128;
#X obj 88 471 s;
#X obj 132 430 pack f f;
#X text 47 242 reset;
#X obj 101 136 bng 19 250 50 0 empty empty empty 0 -10 0 12 #fcfcfc #000000 #000000;
#X obj 81 364 t b b f, f 15;
#X obj 131 395 \$0;
#X msg 81 388 0;
#X listbox 144 499 20 0 0 0 - - - 0;
#X msg 132 454 symbol \$1-seq\$2_r;
#X obj 521 581 s;
#X obj 565 540 pack f f;
#X obj 514 474 t b b f, f 15;
#X obj 564 505 \$0;
#X listbox 577 609 20 0 0 0 - - - 0;
#X msg 565 564 symbol \$1-seq\$2_r;
#X obj 468 346 until;
#X obj 481 429 list store;
#X obj 502 313 t b b l;
#X obj 475 373 f;
#X obj 506 372 + 1;
#X msg 525 346 0, f 2;
#X msg 468 402 get \$1 1;
#X msg 179 128 0 64 96;
#X obj 504 288 t l, f 39;
#X obj 233 100 t b b;
#X obj 313 100 t b b;
#X obj 399 95 t b b;
#X obj 483 100 t b b;
#X obj 563 100 t b b;
#X obj 643 100 t b b;
#X obj 723 100 t b b;
#X msg 514 498 1;
#X msg 258 166 0 20 32 52 64 84 96 116;
#X msg 343 133 4 36 68 100;
#X msg 435 191 0 12 24 36 48 60 64 76 88 100 112 124;
#X msg 761 166;
#X msg 512 133 0;
#X msg 595 161 0 64 116;
#X msg 673 133 0 16 32 48 64 80 96 112 128;
#X obj 150 40 t f b;
#X connect 0 0 47 0;
#X connect 1 0 2 0;
#X connect 1 1 32 0;
#X connect 1 2 33 0;
#X connect 1 3 34 0;
#X connect 1 4 35 0;
#X connect 1 5 36 0;
#X connect 1 6 37 0;
#X connect 1 7 38 0;
#X connect 2 1 30 0;
#X connect 3 0 4 0;
#X connect 4 0 5 0;
#X connect 4 0 12 0;
#X connect 5 0 7 0;
#X connect 6 0 3 1;
#X connect 7 0 4 1;
#X connect 7 0 6 0;
#X connect 9 0 16 0;
#X connect 11 0 3 0;
#X connect 12 0 14 0;
#X connect 12 1 13 0;
#X connect 12 2 9 1;
#X connect 13 0 9 0;
#X connect 14 0 8 0;
#X connect 16 0 8 1;
#X connect 16 0 15 0;
#X connect 18 0 22 0;
#X connect 19 0 39 0;
#X connect 19 1 20 0;
#X connect 19 2 18 1;
#X connect 20 0 18 0;
#X connect 22 0 17 1;
#X connect 22 0 21 0;
#X connect 23 0 26 0;
#X connect 24 0 19 0;
#X connect 24 1 23 1;
#X connect 25 0 23 0;
#X connect 25 1 28 0;
#X connect 25 2 24 1;
#X connect 26 0 27 0;
#X connect 26 0 29 0;
#X connect 27 0 26 1;
#X connect 28 0 26 1;
#X connect 29 0 24 0;
#X connect 30 0 31 0;
#X connect 31 0 25 0;
#X connect 32 1 40 0;
#X connect 33 1 41 0;
#X connect 34 1 42 0;
#X connect 35 1 44 0;
#X connect 36 1 45 0;
#X connect 37 1 46 0;
#X connect 38 1 43 0;
#X connect 39 0 17 0;
#X connect 40 0 31 0;
#X connect 41 0 31 0;
#X connect 42 0 31 0;
#X connect 43 0 31 0;
#X connect 44 0 31 0;
#X connect 45 0 31 0;
#X connect 46 0 31 0;
#X connect 47 0 1 0;
#X connect 47 1 11 0;
#X restore 338 165 pd setter;
#X obj 279 12 inlet;
#X connect 0 0 404 0;
#X connect 2 0 406 0;
#X connect 3 0 265 0;
#X connect 4 0 3 1;
#X connect 5 0 265 0;
#X connect 6 0 5 1;
#X connect 7 0 265 0;
#X connect 8 0 7 1;
#X connect 9 0 265 0;
#X connect 10 0 9 1;
#X connect 11 0 265 0;
#X connect 12 0 11 1;
#X connect 13 0 265 0;
#X connect 14 0 13 1;
#X connect 15 0 265 0;
#X connect 16 0 15 1;
#X connect 17 0 265 0;
#X connect 18 0 17 1;
#X connect 19 0 265 0;
#X connect 20 0 19 1;
#X connect 21 0 265 0;
#X connect 22 0 21 1;
#X connect 23 0 265 0;
#X connect 24 0 23 1;
#X connect 25 0 265 0;
#X connect 26 0 25 1;
#X connect 27 0 265 0;
#X connect 28 0 27 1;
#X connect 29 0 265 0;
#X connect 30 0 29 1;
#X connect 31 0 265 0;
#X connect 32 0 31 1;
#X connect 33 0 265 0;
#X connect 34 0 33 1;
#X connect 35 0 265 0;
#X connect 36 0 35 1;
#X connect 37 0 265 0;
#X connect 38 0 37 1;
#X connect 39 0 265 0;
#X connect 40 0 39 1;
#X connect 41 0 265 0;
#X connect 42 0 41 1;
#X connect 43 0 265 0;
#X connect 44 0 43 1;
#X connect 45 0 265 0;
#X connect 46 0 45 1;
#X connect 47 0 265 0;
#X connect 48 0 47 1;
#X connect 49 0 265 0;
#X connect 50 0 49 1;
#X connect 51 0 265 0;
#X connect 52 0 51 1;
#X connect 53 0 265 0;
#X connect 54 0 53 1;
#X connect 55 0 265 0;
#X connect 56 0 55 1;
#X connect 57 0 265 0;
#X connect 58 0 57 1;
#X connect 59 0 265 0;
#X connect 60 0 59 1;
#X connect 61 0 265 0;
#X connect 62 0 61 1;
#X connect 63 0 265 0;
#X connect 64 0 63 1;
#X connect 65 0 265 0;
#X connect 66 0 65 1;
#X connect 67 0 265 0;
#X connect 68 0 67 1;
#X connect 69 0 265 0;
#X connect 70 0 69 1;
#X connect 71 0 265 0;
#X connect 72 0 71 1;
#X connect 73 0 265 0;
#X connect 74 0 73 1;
#X connect 75 0 265 0;
#X connect 76 0 75 1;
#X connect 77 0 265 0;
#X connect 78 0 77 1;
#X connect 79 0 265 0;
#X connect 80 0 79 1;
#X connect 81 0 265 0;
#X connect 82 0 81 1;
#X connect 83 0 265 0;
#X connect 84 0 83 1;
#X connect 85 0 265 0;
#X connect 86 0 85 1;
#X connect 87 0 265 0;
#X connect 88 0 87 1;
#X connect 89 0 265 0;
#X connect 90 0 89 1;
#X connect 91 0 265 0;
#X connect 92 0 91 1;
#X connect 93 0 265 0;
#X connect 94 0 93 1;
#X connect 95 0 265 0;
#X connect 96 0 95 1;
#X connect 97 0 265 0;
#X connect 98 0 97 1;
#X connect 99 0 265 0;
#X connect 100 0 99 1;
#X connect 101 0 265 0;
#X connect 102 0 101 1;
#X connect 103 0 265 0;
#X connect 104 0 103 1;
#X connect 105 0 265 0;
#X connect 106 0 105 1;
#X connect 107 0 265 0;
#X connect 108 0 107 1;
#X connect 109 0 265 0;
#X connect 110 0 109 1;
#X connect 111 0 265 0;
#X connect 112 0 111 1;
#X connect 113 0 265 0;
#X connect 114 0 113 1;
#X connect 115 0 265 0;
#X connect 116 0 115 1;
#X connect 117 0 265 0;
#X connect 118 0 117 1;
#X connect 119 0 265 0;
#X connect 120 0 119 1;
#X connect 121 0 265 0;
#X connect 122 0 121 1;
#X connect 123 0 265 0;
#X connect 124 0 123 1;
#X connect 125 0 265 0;
#X connect 126 0 125 1;
#X connect 127 0 265 0;
#X connect 128 0 127 1;
#X connect 129 0 265 0;
#X connect 130 0 129 1;
#X connect 131 0 19 0;
#X connect 131 1 21 0;
#X connect 131 2 23 0;
#X connect 131 3 25 0;
#X connect 131 4 27 0;
#X connect 131 5 29 0;
#X connect 131 6 31 0;
#X connect 131 7 33 0;
#X connect 131 8 35 0;
#X connect 131 9 37 0;
#X connect 131 10 39 0;
#X connect 131 11 41 0;
#X connect 131 12 43 0;
#X connect 131 13 45 0;
#X connect 131 14 3 0;
#X connect 131 15 5 0;
#X connect 131 16 47 0;
#X connect 131 17 49 0;
#X connect 131 18 51 0;
#X connect 131 19 53 0;
#X connect 131 20 55 0;
#X connect 131 21 57 0;
#X connect 131 22 59 0;
#X connect 131 23 61 0;
#X connect 131 24 63 0;
#X connect 131 25 65 0;
#X connect 131 26 67 0;
#X connect 131 27 69 0;
#X connect 131 28 71 0;
#X connect 131 29 73 0;
#X connect 131 30 7 0;
#X connect 131 31 9 0;
#X connect 131 32 75 0;
#X connect 131 33 77 0;
#X connect 131 34 79 0;
#X connect 131 35 81 0;
#X connect 131 36 83 0;
#X connect 131 37 85 0;
#X connect 131 38 87 0;
#X connect 131 39 89 0;
#X connect 131 40 91 0;
#X connect 131 41 93 0;
#X connect 131 42 95 0;
#X connect 131 43 97 0;
#X connect 131 44 99 0;
#X connect 131 45 101 0;
#X connect 131 46 11 0;
#X connect 131 47 13 0;
#X connect 131 48 103 0;
#X connect 131 49 105 0;
#X connect 131 50 107 0;
#X connect 131 51 109 0;
#X connect 131 52 111 0;
#X connect 131 53 113 0;
#X connect 131 54 115 0;
#X connect 131 55 117 0;
#X connect 131 56 119 0;
#X connect 131 57 121 0;
#X connect 131 58 123 0;
#X connect 131 59 125 0;
#X connect 131 60 127 0;
#X connect 131 61 129 0;
#X connect 131 62 15 0;
#X connect 131 63 17 0;
#X connect 131 64 132 0;
#X connect 132 0 149 0;
#X connect 132 1 151 0;
#X connect 132 2 153 0;
#X connect 132 3 155 0;
#X connect 132 4 157 0;
#X connect 132 5 159 0;
#X connect 132 6 161 0;
#X connect 132 7 163 0;
#X connect 132 8 165 0;
#X connect 132 9 167 0;
#X connect 132 10 169 0;
#X connect 132 11 171 0;
#X connect 132 12 173 0;
#X connect 132 13 175 0;
#X connect 132 14 133 0;
#X connect 132 15 135 0;
#X connect 132 16 177 0;
#X connect 132 17 179 0;
#X connect 132 18 181 0;
#X connect 132 19 183 0;
#X connect 132 20 185 0;
#X connect 132 21 187 0;
#X connect 132 22 189 0;
#X connect 132 23 191 0;
#X connect 132 24 193 0;
#X connect 132 25 195 0;
#X connect 132 26 197 0;
#X connect 132 27 199 0;
#X connect 132 28 201 0;
#X connect 132 29 203 0;
#X connect 132 30 137 0;
#X connect 132 31 139 0;
#X connect 132 32 205 0;
#X connect 132 33 207 0;
#X connect 132 34 209 0;
#X connect 132 35 211 0;
#X connect 132 36 213 0;
#X connect 132 37 215 0;
#X connect 132 38 217 0;
#X connect 132 39 219 0;
#X connect 132 40 221 0;
#X connect 132 41 223 0;
#X connect 132 42 225 0;
#X connect 132 43 227 0;
#X connect 132 44 229 0;
#X connect 132 45 231 0;
#X connect 132 46 141 0;
#X connect 132 47 143 0;
#X connect 132 48 233 0;
#X connect 132 49 235 0;
#X connect 132 50 237 0;
#X connect 132 51 239 0;
#X connect 132 52 241 0;
#X connect 132 53 243 0;
#X connect 132 54 245 0;
#X connect 132 55 247 0;
#X connect 132 56 249 0;
#X connect 132 57 251 0;
#X connect 132 58 253 0;
#X connect 132 59 255 0;
#X connect 132 60 257 0;
#X connect 132 61 259 0;
#X connect 132 62 145 0;
#X connect 132 63 147 0;
#X connect 133 0 265 0;
#X connect 134 0 133 1;
#X connect 135 0 265 0;
#X connect 136 0 135 1;
#X connect 137 0 265 0;
#X connect 138 0 137 1;
#X connect 139 0 265 0;
#X connect 140 0 139 1;
#X connect 141 0 265 0;
#X connect 142 0 141 1;
#X connect 143 0 265 0;
#X connect 144 0 143 1;
#X connect 145 0 265 0;
#X connect 146 0 145 1;
#X connect 147 0 265 0;
#X connect 148 0 147 1;
#X connect 149 0 265 0;
#X connect 150 0 149 1;
#X connect 151 0 265 0;
#X connect 152 0 151 1;
#X connect 153 0 265 0;
#X connect 154 0 153 1;
#X connect 155 0 265 0;
#X connect 156 0 155 1;
#X connect 157 0 265 0;
#X connect 158 0 157 1;
#X connect 159 0 265 0;
#X connect 160 0 159 1;
#X connect 161 0 265 0;
#X connect 162 0 161 1;
#X connect 163 0 265 0;
#X connect 164 0 163 1;
#X connect 165 0 265 0;
#X connect 166 0 165 1;
#X connect 167 0 265 0;
#X connect 168 0 167 1;
#X connect 169 0 265 0;
#X connect 170 0 169 1;
#X connect 171 0 265 0;
#X connect 172 0 171 1;
#X connect 173 0 265 0;
#X connect 174 0 173 1;
#X connect 175 0 265 0;
#X connect 176 0 175 1;
#X connect 177 0 265 0;
#X connect 178 0 177 1;
#X connect 179 0 265 0;
#X connect 180 0 179 1;
#X connect 181 0 265 0;
#X connect 182 0 181 1;
#X connect 183 0 265 0;
#X connect 184 0 183 1;
#X connect 185 0 265 0;
#X connect 186 0 185 1;
#X connect 187 0 265 0;
#X connect 188 0 187 1;
#X connect 189 0 265 0;
#X connect 190 0 189 1;
#X connect 191 0 265 0;
#X connect 192 0 191 1;
#X connect 193 0 265 0;
#X connect 194 0 193 1;
#X connect 195 0 265 0;
#X connect 196 0 195 1;
#X connect 197 0 265 0;
#X connect 198 0 197 1;
#X connect 199 0 265 0;
#X connect 200 0 199 1;
#X connect 201 0 265 0;
#X connect 202 0 201 1;
#X connect 203 0 265 0;
#X connect 204 0 203 1;
#X connect 205 0 265 0;
#X connect 206 0 205 1;
#X connect 207 0 265 0;
#X connect 208 0 207 1;
#X connect 209 0 265 0;
#X connect 210 0 209 1;
#X connect 211 0 265 0;
#X connect 212 0 211 1;
#X connect 213 0 265 0;
#X connect 214 0 213 1;
#X connect 215 0 265 0;
#X connect 216 0 215 1;
#X connect 217 0 265 0;
#X connect 218 0 217 1;
#X connect 219 0 265 0;
#X connect 220 0 219 1;
#X connect 221 0 265 0;
#X connect 222 0 221 1;
#X connect 223 0 265 0;
#X connect 224 0 223 1;
#X connect 225 0 265 0;
#X connect 226 0 225 1;
#X connect 227 0 265 0;
#X connect 228 0 227 1;
#X connect 229 0 265 0;
#X connect 230 0 229 1;
#X connect 231 0 265 0;
#X connect 232 0 231 1;
#X connect 233 0 265 0;
#X connect 234 0 233 1;
#X connect 235 0 265 0;
#X connect 236 0 235 1;
#X connect 237 0 265 0;
#X connect 238 0 237 1;
#X connect 239 0 265 0;
#X connect 240 0 239 1;
#X connect 241 0 265 0;
#X connect 242 0 241 1;
#X connect 243 0 265 0;
#X connect 244 0 243 1;
#X connect 245 0 265 0;
#X connect 246 0 245 1;
#X connect 247 0 265 0;
#X connect 248 0 247 1;
#X connect 249 0 265 0;
#X connect 250 0 249 1;
#X connect 251 0 265 0;
#X connect 252 0 251 1;
#X connect 253 0 265 0;
#X connect 254 0 253 1;
#X connect 255 0 265 0;
#X connect 256 0 255 1;
#X connect 257 0 265 0;
#X connect 258 0 257 1;
#X connect 259 0 265 0;
#X connect 260 0 259 1;
#X connect 261 0 131 0;
#X connect 261 0 268 0;
#X connect 261 1 263 1;
#X connect 262 0 1 0;
#X connect 263 0 262 0;
#X connect 264 0 263 0;
#X connect 265 0 264 0;
#X connect 265 0 266 0;
#X connect 265 0 267 0;
#X connect 399 0 400 0;
#X connect 400 0 401 0;
#X connect 403 0 402 0;
#X connect 404 0 399 0;
#X connect 404 1 403 0;
#X connect 404 2 261 0;
#X connect 405 0 407 0;
#X connect 406 0 405 0;
#X connect 408 0 405 0;
#X coords 0 -1 1 1 190 130 2 100 100;
