#N canvas 0 38 1728 1051 12;
#X obj 101 101 cnv 19 618 798 empty empty empty 20 12 0 12 #404040 #404040 0;
#X obj 1208 646 s delay_31415926;
#X floatatom 1224 621 5 0 0 1 delay\ in\ ms - - 0;
#X obj 1191 146 r feed_out_31415926;
#N canvas 0 38 1728 1051 routing_knots 0;
#X obj 36 -28 inlet;
#X msg 1120 517 knot1 set knots 1 2 3 4 5 6 7 8 9 10 11 12 13 14 15 16 17 18 19 20 21 22 23 24 \, knot2 set knots 1 2 3 4 5 6 7 8 9 10 11 12 13 14 15 16 17 18 19 20 21 22 23 24 \, knot3 set knots 1 2 3 4 5 6 7 8 9 10 11 12 13 14 15 16 17 18 19 20 21 22 23 24 \, knot4 set knots 1 2 3 4 5 6 7 8 9 10 11 12 13 14 15 16 17 18 19 20 21 22 23 24 \, knot5 set knots 1 2 3 4 5 6 7 8 9 10 11 12 13 14 15 16 17 18 19 20 21 22 23 24 \, knot6 set knots 1 2 3 4 5 6 7 8 9 10 11 12 13 14 15 16 17 18 19 20 21 22 23 24 \, knot7 set knots 1 2 3 4 5 6 7 8 9 10 11 12 13 14 15 16 17 18 19 20 21 22 23 24 \, knot8 set knots 1 2 3 4 5 6 7 8 9 10 11 12 13 14 15 16 17 18 19 20 21 22 23 24 \, knot9 set knots 1 2 3 4 5 6 7 8 9 10 11 12 13 14 15 16 17 18 19 20 21 22 23 24 \, knot10 set knots 1 2 3 4 5 6 7 8 9 10 11 12 13 14 15 16 17 18 19 20 21 22 23 24 \, knot11 set knots 1 2 3 4 5 6 7 8 9 10 11 12 13 14 15 16 17 18 19 20 21 22 23 24 \, knot12 set knots 1 2 3 4 5 6 7 8 9 10 11 12 13 14 15 16 17 18 19 20 21 22 23 24 \, knot13 set knots 1 2 3 4 5 6 7 8 9 10 11 12 13 14 15 16 17 18 19 20 21 22 23 24 \, knot14 set knots 1 2 3 4 5 6 7 8 9 10 11 12 13 14 15 16 17 18 19 20 21 22 23 24 \, knot15 set knots 1 2 3 4 5 6 7 8 9 10 11 12 13 14 15 16 17 18 19 20 21 22 23 24 \, knot16 set knots 1 2 3 4 5 6 7 8 9 10 11 12 13 14 15 16 17 18 19 20 21 22 23 24 \, knot17 set knots 1 2 3 4 5 6 7 8 9 10 11 12 13 14 15 16 17 18 19 20 21 22 23 24 \, knot18 set knots 1 2 3 4 5 6 7 8 9 10 11 12 13 14 15 16 17 18 19 20 21 22 23 24 \, knot19 set knots 1 2 3 4 5 6 7 8 9 10 11 12 13 14 15 16 17 18 19 20 21 22 23 24 \, knot20 set knots 1 2 3 4 5 6 7 8 9 10 11 12 13 14 15 16 17 18 19 20 21 22 23 24 \, knot21 set knots 1 2 3 4 5 6 7 8 9 10 11 12 13 14 15 16 17 18 19 20 21 22 23 24 \, knot22 set knots 1 2 3 4 5 6 7 8 9 10 11 12 13 14 15 16 17 18 19 20 21 22 23 24 \, knot23 set knots 1 2 3 4 5 6 7 8 9 10 11 12 13 14 15 16 17 18 19 20 21 22 23 24 \, knot24 set knots 1 2 3 4 5 6 7 8 9 10 11 12 13 14 15 16 17 18 19 20 21 22 23 24 \,, f 81;
#X msg 36 81 knot1 set probab 1 1 0 0 0 0 0 0 0 0 0 1 1 1 0 0 0 0 0 0 0 0 0 1 \, knot2 set probab 1 1 1 0 0 0 0 0 0 0 0 0 1 1 1 0 0 0 0 0 0 0 0 0 \, knot3 set probab 0 1 1 1 0 0 0 0 0 0 0 0 0 1 1 1 0 0 0 0 0 0 0 0 \, knot4 set probab 0 0 1 1 1 0 0 0 0 0 0 0 0 0 1 1 1 0 0 0 0 0 0 0 \, knot5 set probab 0 0 0 1 1 1 0 0 0 0 0 0 0 0 0 1 1 1 0 0 0 0 0 0 \, knot6 set probab 0 0 0 0 1 1 1 0 0 0 0 0 0 0 0 0 1 1 1 0 0 0 0 0 \, knot7 set probab 0 0 0 0 0 1 1 1 0 0 0 0 0 0 0 0 0 1 1 1 0 0 0 0 \, knot8 set probab 0 0 0 0 0 0 1 1 1 0 0 0 0 0 0 0 0 0 1 1 1 0 0 0 \, knot9 set probab 0 0 0 0 0 0 0 1 1 1 0 0 0 0 0 0 0 0 0 1 1 1 0 0 \, knot10 set probab 0 0 0 0 0 0 0 0 1 1 1 0 0 0 0 0 0 0 0 0 1 1 1 0 \, knot11 set probab 0 0 0 0 0 0 0 0 0 1 1 1 0 0 0 0 0 0 0 0 0 1 1 1 \, knot12 set probab 1 0 0 0 0 0 0 0 0 0 1 1 1 0 0 0 0 0 0 0 0 0 1 1 \, knot13 set probab 1 1 0 0 0 0 0 0 0 0 0 1 1 1 0 0 0 0 0 0 0 0 0 1 \, knot14 set probab 1 1 1 0 0 0 0 0 0 0 0 0 1 1 1 0 0 0 0 0 0 0 0 0 \, knot15 set probab 0 1 1 1 0 0 0 0 0 0 0 0 0 1 1 1 0 0 0 0 0 0 0 0 \, knot16 set probab 0 0 1 1 1 0 0 0 0 0 0 0 0 0 1 1 1 0 0 0 0 0 0 0 \, knot17 set probab 0 0 0 1 1 1 0 0 0 0 0 0 0 0 0 1 1 1 0 0 0 0 0 0 \, knot18 set probab 0 0 0 0 1 1 1 0 0 0 0 0 0 0 0 0 1 1 1 0 0 0 0 0 \, knot19 set probab 0 0 0 0 0 1 1 1 0 0 0 0 0 0 0 0 0 1 1 1 0 0 0 0 \, knot20 set probab 0 0 0 0 0 0 1 1 1 0 0 0 0 0 0 0 0 0 1 1 1 0 0 0 \, knot21 set probab 0 0 0 0 0 0 0 1 1 1 0 0 0 0 0 0 0 0 0 1 1 1 0 0 \, knot22 set probab 0 0 0 0 0 0 0 0 1 1 1 0 0 0 0 0 0 0 0 0 1 1 1 0 \, knot23 set probab 0 0 0 0 0 0 0 0 0 1 1 1 0 0 0 0 0 0 0 0 0 1 1 1 \, knot24 set probab 1 0 0 0 0 0 0 0 0 0 1 1 1 0 0 0 0 0 0 0 0 0 1 1 \,, f 67;
#X obj 36 26 sel 0 1 2 3 4, f 268;
#X obj 1120 487 loadbang;
#X obj 89 769 s feed_in_31415926;
#X msg 520 81 knot1 set probab 0 0 0 0 0 0 0 0 0 0 0 0 0 5 1 0 0 0 0 0 0 0 1 5 \, knot2 set probab 0 0 0 0 0 0 0 0 0 0 0 0 5 0 5 1 0 0 0 0 0 0 0 1 \, knot3 set probab 0 0 0 0 0 0 0 0 0 0 0 0 1 5 0 5 1 0 0 0 0 0 0 0 \, knot4 set probab 0 0 0 0 0 0 0 0 0 0 0 0 0 1 5 0 5 1 0 0 0 0 0 0 \, knot5 set probab 0 0 0 0 0 0 0 0 0 0 0 0 0 0 1 5 0 5 1 0 0 0 0 0 \, knot6 set probab 0 0 0 0 0 0 0 0 0 0 0 0 0 0 0 1 5 0 5 1 0 0 0 0 \, knot7 set probab 0 0 0 0 0 0 0 0 0 0 0 0 0 0 0 0 1 5 0 5 1 0 0 0 \, knot8 set probab 0 0 0 0 0 0 0 0 0 0 0 0 0 0 0 0 0 1 5 0 5 1 0 0 \, knot9 set probab 0 0 0 0 0 0 0 0 0 0 0 0 0 0 0 0 0 0 1 5 0 5 1 0 \, knot10 set probab 0 0 0 0 0 0 0 0 0 0 0 0 0 0 0 0 0 0 0 1 5 0 5 1 \, knot11 set probab 0 0 0 0 0 0 0 0 0 0 0 0 1 0 0 0 0 0 0 0 1 5 0 5 \, knot12 set probab 0 0 0 0 0 0 0 0 0 0 0 0 5 1 0 0 0 0 0 0 0 1 5 0 \, knot13 set probab 0 0 0 0 0 0 0 0 0 0 0 0 0 5 1 0 0 0 0 0 0 0 1 5 \, knot14 set probab 0 0 0 0 0 0 0 0 0 0 0 0 5 0 5 1 0 0 0 0 0 0 0 1 \, knot15 set probab 0 0 0 0 0 0 0 0 0 0 0 0 1 5 0 5 1 0 0 0 0 0 0 0 \, knot16 set probab 0 0 0 0 0 0 0 0 0 0 0 0 0 1 5 0 5 1 0 0 0 0 0 0 \, knot17 set probab 0 0 0 0 0 0 0 0 0 0 0 0 0 0 1 5 0 5 1 0 0 0 0 0 \, knot18 set probab 0 0 0 0 0 0 0 0 0 0 0 0 0 0 0 1 5 0 5 1 0 0 0 0 \, knot19 set probab 0 0 0 0 0 0 0 0 0 0 0 0 0 0 0 0 1 5 0 5 1 0 0 0 \, knot20 set probab 0 0 0 0 0 0 0 0 0 0 0 0 0 0 0 0 0 1 5 0 5 1 0 0 \, knot21 set probab 0 0 0 0 0 0 0 0 0 0 0 0 0 0 0 0 0 0 1 5 0 5 1 0 \, knot22 set probab 0 0 0 0 0 0 0 0 0 0 0 0 0 0 0 0 0 0 0 1 5 0 5 1 \, knot23 set probab 0 0 0 0 0 0 0 0 0 0 0 0 1 0 0 0 0 0 0 0 1 5 0 5 \, knot24 set probab 0 0 0 0 0 0 0 0 0 0 0 0 5 1 0 0 0 0 0 0 0 1 5 0 \,, f 67;
#X obj 36 565 list prepend net2;
#X obj 36 589 list trim;
#X obj 36 -3 t f b;
#X msg 1066 81 knot1 set probab 0 5 1 0 0 0 0 0 0 0 1 5 0 0 0 0 0 0 0 0 0 0 0 0 \, knot2 set probab 5 0 5 1 0 0 0 0 0 0 0 1 0 0 0 0 0 0 0 0 0 0 0 0 \, knot3 set probab 1 5 0 5 1 0 0 0 0 0 0 0 0 0 0 0 0 0 0 0 0 0 0 0 \, knot4 set probab 0 1 5 0 5 1 0 0 0 0 0 0 0 0 0 0 0 0 0 0 0 0 0 0 \, knot5 set probab 0 0 1 5 0 5 1 0 0 0 0 0 0 0 0 0 0 0 0 0 0 0 0 0 \, knot6 set probab 0 0 0 1 5 0 5 1 0 0 0 0 0 0 0 0 0 0 0 0 0 0 0 0 \, knot7 set probab 0 0 0 0 1 5 0 5 1 0 0 0 0 0 0 0 0 0 0 0 0 0 0 0 \, knot8 set probab 0 0 0 0 0 1 5 0 5 1 0 0 0 0 0 0 0 0 0 0 0 0 0 0 \, knot9 set probab 0 0 0 0 0 0 1 5 0 5 1 0 0 0 0 0 0 0 0 0 0 0 0 0 \, knot10 set probab 0 0 0 0 0 0 0 1 5 0 5 1 0 0 0 0 0 0 0 0 0 0 0 0 \, knot11 set probab 1 0 0 0 0 0 0 0 1 5 0 5 0 0 0 0 0 0 0 0 0 0 0 0 \, knot12 set probab 5 1 0 0 0 0 0 0 0 1 5 0 0 0 0 0 0 0 0 0 0 0 0 0 \, knot13 set probab 0 5 1 0 0 0 0 0 0 0 1 5 0 0 0 0 0 0 0 0 0 0 0 0 \, knot14 set probab 5 0 5 1 0 0 0 0 0 0 0 1 0 0 0 0 0 0 0 0 0 0 0 0 \, knot15 set probab 1 5 0 5 1 0 0 0 0 0 0 0 0 0 0 0 0 0 0 0 0 0 0 0 \, knot16 set probab 0 1 5 0 5 1 0 0 0 0 0 0 0 0 0 0 0 0 0 0 0 0 0 0 \, knot17 set probab 0 0 1 5 0 5 1 0 0 0 0 0 0 0 0 0 0 0 0 0 0 0 0 0 \, knot18 set probab 0 0 0 1 5 0 5 1 0 0 0 0 0 0 0 0 0 0 0 0 0 0 0 0 \, knot19 set probab 0 0 0 0 1 5 0 5 1 0 0 0 0 0 0 0 0 0 0 0 0 0 0 0 \, knot20 set probab 0 0 0 0 0 1 5 0 5 1 0 0 0 0 0 0 0 0 0 0 0 0 0 0 \, knot21 set probab 0 0 0 0 0 0 1 5 0 5 1 0 0 0 0 0 0 0 0 0 0 0 0 0 \, knot22 set probab 0 0 0 0 0 0 0 1 5 0 5 1 0 0 0 0 0 0 0 0 0 0 0 0 \, knot23 set probab 1 0 0 0 0 0 0 0 1 5 0 5 0 0 0 0 0 0 0 0 0 0 0 0 \, knot24 set probab 5 1 0 0 0 0 0 0 0 1 5 0 0 0 0 0 0 0 0 0 0 0 0 0 \,, f 67;
#X connect 0 0 9 0;
#X connect 1 0 7 0;
#X connect 2 0 7 0;
#X connect 3 0 2 0;
#X connect 3 1 6 0;
#X connect 3 2 10 0;
#X connect 4 0 1 0;
#X connect 6 0 7 0;
#X connect 7 0 8 0;
#X connect 8 0 5 0;
#X connect 9 0 3 0;
#X connect 9 1 1 0;
#X connect 10 0 7 0;
#X restore 731 279 pd routing_knots;
#N canvas 746 38 982 1027 routing_notes 0;
#X obj 46 162 inlet;
#X msg 46 211 knot1 set event C \, knot2 set event G \, knot3 set event D \, knot4 set event A \, knot5 set event E \, knot6 set event H \, knot7 set event Fis \, knot8 set event Cis \, knot9 set event Ab \, knot10 set event Eb \, knot11 set event B \, knot12 set event F \, knot13 set event am \, knot14 set event em \, knot15 set event hm \, knot16 set event fism \, knot17 set event cism \, knot18 set event gism \, knot19 set event dism \, knot20 set event aism \, knot21 set event fm \, knot22 set event cm \, knot23 set event gm \, knot24 set event dm \,, f 23;
#X obj 46 799 s feed_in_31415926;
#X obj 46 749 list prepend net2;
#X obj 46 773 list trim;
#X connect 0 0 1 0;
#X connect 1 0 3 0;
#X connect 3 0 4 0;
#X connect 4 0 2 0;
#X restore 745 418 pd routing_notes;
#N canvas 0 38 1728 1051 notes_out 0;
#X obj 65 -8 r C;
#X obj 165 -8 r D;
#X obj 115 -8 r G;
#X msg 65 40 0 0;
#X msg 365 40 6 0;
#X msg 465 40 8 0;
#X msg 565 40 10 0;
#X obj 215 -8 r A;
#X obj 265 -8 r E;
#X obj 315 -8 r H;
#X obj 365 -8 r Fis;
#X obj 415 -8 r Cis;
#X obj 475 122 r am;
#X obj 525 122 r em;
#X obj 575 122 r hm;
#X obj 625 122 r fism;
#X obj 675 122 r cism;
#X obj 725 122 r gism;
#X obj 775 122 r dism;
#X obj 825 122 r aism;
#X obj 875 122 r fm;
#X obj 925 122 r cm;
#X obj 975 122 r gm;
#X obj 1025 122 r dm;
#X msg 475 170 0 1;
#X msg 575 170 2 1;
#X msg 675 170 4 1;
#X msg 775 170 6 1;
#X msg 875 170 8 1;
#X msg 975 170 10 1;
#X msg 160 621 \$2;
#X obj 65 381 t l l;
#X msg 54 489 \$1;
#X obj 146 780 sel 0;
#X obj 65 846 + 0;
#X obj 243 842 + 7;
#X obj 68 991 makenote 100 100;
#X obj 96 1021 makenote 100 100;
#X obj 126 1051 makenote 100 100;
#X obj 86 1091 pack f f;
#X obj 86 1115 unpack f f;
#X obj 86 1209 noteout;
#X listbox 227 1113 20 0 0 0 - - - 0;
#X msg 115 40 7 0;
#X msg 215 40 9 0;
#X msg 165 40 2 0;
#X msg 265 40 4 0;
#X msg 315 40 11 0;
#X msg 415 40 1 0;
#X msg 515 40 3 0;
#X msg 615 40 5 0;
#X msg 525 170 7 1;
#X msg 625 170 9 1;
#X msg 725 170 11 1;
#X msg 825 170 1 1;
#X msg 925 170 3 1;
#X msg 1025 170 5 1;
#X obj 38 553 + 48;
#X floatatom 763 900 5 0 0 0 - - - 0;
#X obj 802 906 loadbang;
#X msg 765 930 2000;
#X obj 475 254 unpack f f;
#X obj 475 278 + 9;
#X obj 475 302 pack f f;
#X obj 465 -8 r Ab;
#X obj 515 -8 r Eb;
#X obj 565 -8 r B;
#X obj 615 -8 r F;
#X obj 117 1159 t f b;
#X obj 17 29 bng 19 250 50 0 empty empty empty 0 -10 0 12 #fcfcfc #000000 #000000;
#X obj 63 689 t f f f f, f 28;
#X obj 52 659 spigot;
#X obj 166 394 inlet;
#X obj 936 791 +;
#X msg 283 935 stop;
#X obj 890 459 inlet;
#X obj 166 418 pack f;
#X obj 145 1189 +;
#X obj 890 835 change;
#X obj 890 859 t f b;
#X obj 38 577 + 0;
#X obj 166 535 unpack f f;
#X obj 57 629 s root;
#X obj 39 604 t f f;
#X obj 381 393 inlet;
#X text 428 392 chord;
#X text 209 395 gate;
#X text 936 459 instrument channel;
#X obj 767 421 inlet;
#X text 811 425 duration;
#X obj 190 447 tgl 19 0 empty empty empty 0 -10 0 12 #fcfcfc #000000 #000000 0 1;
#X floatatom 65 870 5 0 0 0 - - - 0;
#X floatatom 114 874 5 0 0 0 - - - 0;
#X floatatom 243 866 5 0 0 0 - - - 0;
#X obj 114 850 + 0;
#X msg 177 806 0;
#X msg 146 804 0;
#X floatatom 183 647 5 0 0 0 - - - 0;
#X obj 184 850 + 3;
#X obj 146 851 + 4;
#X obj 381 793 unpack f f f f;
#X obj 376 613 t l;
#X msg 378 450 0 4 3 7;
#X msg 414 519 0 4 3 14;
#X msg 435 547 0 7 7 14;
#X msg 449 585 0 10 10 14;
#X msg 470 614 7 16 15 19;
#X obj 381 417 sel 0 1 2 3 4 5 6;
#X msg 475 644 0 16 15 24;
#X obj 881 1186 + 1;
#X floatatom 180 1206 5 0 0 0 - - - 0;
#X obj 353 1207 outlet;
#X obj 407 1067 bng 19 250 50 0 empty empty empty 0 -10 0 12 #fcfcfc #000000 #000000;
#X msg 401 481 12 4 3 5;
#X connect 0 0 3 0;
#X connect 0 0 69 0;
#X connect 1 0 45 0;
#X connect 2 0 43 0;
#X connect 3 0 31 0;
#X connect 4 0 31 0;
#X connect 5 0 31 0;
#X connect 6 0 31 0;
#X connect 7 0 44 0;
#X connect 8 0 46 0;
#X connect 9 0 47 0;
#X connect 10 0 4 0;
#X connect 11 0 48 0;
#X connect 12 0 24 0;
#X connect 13 0 51 0;
#X connect 14 0 25 0;
#X connect 15 0 52 0;
#X connect 16 0 26 0;
#X connect 17 0 53 0;
#X connect 18 0 27 0;
#X connect 19 0 54 0;
#X connect 20 0 28 0;
#X connect 21 0 55 0;
#X connect 22 0 29 0;
#X connect 23 0 56 0;
#X connect 24 0 61 0;
#X connect 25 0 61 0;
#X connect 26 0 61 0;
#X connect 27 0 61 0;
#X connect 28 0 61 0;
#X connect 29 0 61 0;
#X connect 30 0 33 0;
#X connect 30 0 97 0;
#X connect 31 0 32 0;
#X connect 31 0 112 0;
#X connect 31 1 30 0;
#X connect 32 0 57 0;
#X connect 33 0 96 0;
#X connect 33 1 95 0;
#X connect 34 0 36 0;
#X connect 34 0 91 0;
#X connect 35 0 38 0;
#X connect 35 0 93 0;
#X connect 36 0 39 0;
#X connect 36 1 39 1;
#X connect 37 0 39 0;
#X connect 37 1 39 1;
#X connect 38 0 39 0;
#X connect 38 1 39 1;
#X connect 39 0 40 0;
#X connect 39 0 42 0;
#X connect 40 0 41 0;
#X connect 40 1 68 0;
#X connect 43 0 31 0;
#X connect 44 0 31 0;
#X connect 45 0 31 0;
#X connect 46 0 31 0;
#X connect 47 0 31 0;
#X connect 48 0 31 0;
#X connect 49 0 31 0;
#X connect 50 0 31 0;
#X connect 51 0 61 0;
#X connect 52 0 61 0;
#X connect 53 0 61 0;
#X connect 54 0 61 0;
#X connect 55 0 61 0;
#X connect 56 0 61 0;
#X connect 57 0 80 0;
#X connect 58 0 36 2;
#X connect 58 0 37 2;
#X connect 58 0 38 2;
#X connect 59 0 60 0;
#X connect 60 0 58 0;
#X connect 61 0 62 0;
#X connect 61 1 63 1;
#X connect 62 0 63 0;
#X connect 63 0 31 0;
#X connect 64 0 5 0;
#X connect 65 0 49 0;
#X connect 66 0 6 0;
#X connect 67 0 50 0;
#X connect 68 0 41 1;
#X connect 68 1 77 0;
#X connect 70 0 34 0;
#X connect 70 1 94 0;
#X connect 70 2 35 0;
#X connect 71 0 70 0;
#X connect 72 0 76 0;
#X connect 73 0 78 0;
#X connect 74 0 36 0;
#X connect 74 0 37 0;
#X connect 74 0 38 0;
#X connect 75 0 73 0;
#X connect 76 0 81 0;
#X connect 76 0 90 0;
#X connect 77 0 41 2;
#X connect 77 0 110 0;
#X connect 78 0 79 0;
#X connect 79 0 109 0;
#X connect 79 1 74 0;
#X connect 80 0 83 0;
#X connect 81 0 71 1;
#X connect 81 1 74 0;
#X connect 83 0 71 0;
#X connect 83 1 82 0;
#X connect 84 0 107 0;
#X connect 88 0 58 0;
#X connect 94 0 37 0;
#X connect 94 0 92 0;
#X connect 95 0 98 0;
#X connect 96 0 99 0;
#X connect 98 0 94 1;
#X connect 99 0 94 1;
#X connect 100 0 34 1;
#X connect 100 1 99 1;
#X connect 100 2 98 1;
#X connect 100 3 35 1;
#X connect 101 0 100 0;
#X connect 102 0 101 0;
#X connect 103 0 101 0;
#X connect 104 0 101 0;
#X connect 105 0 101 0;
#X connect 106 0 101 0;
#X connect 107 0 102 0;
#X connect 107 1 113 0;
#X connect 107 2 103 0;
#X connect 107 3 104 0;
#X connect 107 4 105 0;
#X connect 107 5 106 0;
#X connect 107 6 108 0;
#X connect 108 0 101 0;
#X connect 109 0 77 1;
#X connect 112 0 111 0;
#X connect 113 0 101 0;
#X restore 13 924 pd notes_out;
#X obj 745 394 bng 19 250 50 0 empty empty empty 0 -10 0 12 #fcfcfc #000000 #000000;
#X obj 745 370 loadbang;
#X obj 1002 412 s feed_in_31415926;
#X obj 1002 325 list store;
#X obj 1208 577 loadbang;
#X obj 835 55 spigot;
#X obj 690 111 tgl 19 0 empty empty Gate -40 10 0 12 #ff0400 #000000 #000000 0 1;
#X obj 824 174 loadbang;
#X obj 692 168 vradio 19 1 0 5 empty empty empty 0 -10 0 12 #7c7c7c #ff0400 #000000 0;
#X msg 824 198 0;
#X obj 1002 349 list prepend net2;
#X obj 1002 373 list trim;
#X obj 1191 211 route net2;
#X obj -25 743 r chord_synth;
#N canvas 532 329 986 685 synth_chooser 0;
#X obj 101 101 cnv 19 148 88 empty empty SYNTH(S) 2 12 0 15 #606060 #ffffff 0;
#X obj 41 31 inlet;
#X obj 107 124 hradio 19 1 0 7 empty empty instr 10 10 0 12 #202020 #ff0400 #ffffff 0;
#X obj 494 232 sel 0;
#X msg 494 256 1;
#X obj 428 251 spigot;
#X obj 438 306 f;
#X obj 552 275 t b f;
#X msg 467 281 0;
#X obj 438 330 outlet;
#X floatatom 174 104 5 0 0 0 - - - 0;
#X obj 107 144 hradio 19 1 0 7 empty empty chord 10 10 0 12 #404040 #ff0400 #ffffff 0;
#X obj 221 105 tgl 19 0 empty empty empty 25 10 0 12 #7c7c7c #ff0400 #ff0400 0 1;
#X obj 110 163 hsl 128 19 100 4000 1 0 empty empty duration 10 10 0 12 #7c7c7c #ff0400 #ff0400 0 1;
#X floatatom 203 164 5 0 0 0 - - - 0;
#X obj 74 342 outlet;
#X obj 215 342 outlet;
#X obj 171 25 inlet;
#X obj 295 27 inlet;
#X obj -19 338 outlet;
#X obj 393 30 inlet;
#X obj 491 31 inlet;
#X connect 1 0 5 0;
#X connect 2 0 3 0;
#X connect 3 0 4 0;
#X connect 3 1 7 0;
#X connect 4 0 5 1;
#X connect 5 0 6 0;
#X connect 6 0 9 0;
#X connect 6 0 10 0;
#X connect 7 0 8 0;
#X connect 7 1 6 0;
#X connect 8 0 5 1;
#X connect 11 0 15 0;
#X connect 12 0 19 0;
#X connect 13 0 14 0;
#X connect 13 0 16 0;
#X connect 17 0 11 0;
#X connect 18 0 12 0;
#X connect 20 0 2 0;
#X connect 21 0 13 0;
#X coords 0 -1 1 1 150 90 2 100 100;
#X restore 120 799 pd synth_chooser;
#X obj 43 997 s chord_synth_UI;
#X obj 120 661 sequencer;
#X obj 999 266 bng 19 250 50 0 empty empty empty 0 -10 0 12 #fcfcfc #000000 #000000;
#X obj 1059 240 list store;
#X obj 1056 211 bng 19 250 50 0 empty empty empty 0 -10 0 12 #fcfcfc #000000 #000000;
#X obj 993 46 r pulse;
#X obj 512 693 sequencer;
#N canvas 0 38 960 1027 bass_out 0;
#X obj 276 709 pack f f;
#X obj 276 733 unpack f f;
#X obj 276 827 noteout;
#X obj 307 777 t f b;
#X obj 461 70 inlet;
#X obj 273 651 spigot;
#X msg 320 805 2;
#X obj 273 675 makenote 100 1000, f 25;
#X obj 60 523 f;
#X obj 138 612 + 0;
#X msg 202 557 0;
#X msg 256 557 5;
#X obj 66 56 inlet;
#X obj 89 499 r root;
#X obj 20 284 moses 1;
#X obj 20 308 == 0;
#X obj 20 332 sel 1;
#X obj 203 424 tgl 19 0 empty empty empty 0 -10 0 12 #fcfcfc #000000 #000000 0 1;
#X obj 20 386 t b b, f 19;
#X msg 150 417 0;
#X obj 203 448 sel 0;
#X obj 93 284 t b b, f 19;
#X floatatom 89 523 5 0 0 0 - - - 0;
#X obj 101 101 cnv 19 186 48 empty empty BASS 20 12 0 15 #606060 #ffffff 0;
#X obj 182 102 tgl 19 0 empty empty bass\ toggle 25 10 0 12 #404040 #ff0400 #ff0400 0 1;
#X obj 112 126 hsl 162 19 100 4000 1 0 empty empty duration 10 10 0 12 #404040 #ff0400 #ff0400 0 1;
#X floatatom 238 127 5 0 0 0 - - - 0;
#X obj 445 206 t f;
#X obj 312 248 t f;
#X text 85 477 get root from chord_out;
#X text 229 423 alternate between root and fifth;
#X text 39 259 play when getting input;
#X text 78 332 0 needs to be treated differently \, because it plays before root arrives;
#X obj 645 64 inlet;
#X obj 138 588 - 12;
#X connect 0 0 1 0;
#X connect 1 0 2 0;
#X connect 1 1 3 0;
#X connect 3 0 2 1;
#X connect 3 1 6 0;
#X connect 4 0 24 0;
#X connect 5 0 7 0;
#X connect 6 0 2 2;
#X connect 7 0 0 0;
#X connect 7 1 0 1;
#X connect 8 0 34 0;
#X connect 9 0 5 0;
#X connect 10 0 9 1;
#X connect 11 0 9 1;
#X connect 12 0 14 0;
#X connect 13 0 8 1;
#X connect 13 0 22 0;
#X connect 14 0 15 0;
#X connect 14 1 21 0;
#X connect 15 0 16 0;
#X connect 16 0 18 0;
#X connect 17 0 20 0;
#X connect 18 0 8 0;
#X connect 18 1 19 0;
#X connect 19 0 17 0;
#X connect 20 0 10 0;
#X connect 20 1 11 0;
#X connect 21 0 8 0;
#X connect 21 1 17 0;
#X connect 24 0 28 0;
#X connect 25 0 26 0;
#X connect 25 0 27 0;
#X connect 27 0 7 2;
#X connect 28 0 5 1;
#X connect 33 0 25 0;
#X connect 34 0 9 0;
#X coords 0 -1 1 1 188 50 1 100 100;
#X restore 512 832 pd bass_out;
#X obj 805 785 tgl 19 0 empty empty bass\ toggle 25 10 0 12 #fcfcfc #000000 #000000 0 1;
#X obj 805 756 r bass_toggle;
#X obj 43 969 + 1;
#X obj -11 654 tgl 19 0 empty empty chord\ toggle 25 10 0 12 #fcfcfc #000000 #000000 0 1;
#X obj -13 628 r chord_toggle;
#X text 562 168 5 direct neighbors;
#X text 653 188 minor;
#X obj -22 508 r chord_type;
#X obj 1213 376 s chord_type;
#X obj 999 290 t b b;
#X obj 1213 351 random 6;
#X obj 1211 324 spigot;
#X obj 260 849 tgl 8 0 empty empty empty 0 -10 0 12 #000000 #ff0400 #000000 0 1;
#X obj 1097 57 r change_interval;
#X floatatom 1097 81 5 0 0 0 - - - 0;
#X obj 1305 75 sel;
#X floatatom 993 70 5 0 0 0 - - - 0;
#X obj 993 113 % 64;
#X obj 1059 152 sel 0;
#X obj 118 152 cnv 19 74 18 empty empty empty 20 12 0 12 #9f9f9f #404040 0;
#X obj 117 134 hradio 19 1 0 4 empty empty set\ change\ interval\ for\ chord\ change 0 -10 0 12 #7c7c7c #ff0400 #000000 0;
#N canvas 295 333 450 300 set_change_interval 0;
#X obj 76 31 inlet;
#X obj 74 205 outlet;
#X floatatom 76 79 5 0 0 0 - - - 0;
#X obj 76 55 expr 64/(pow(2 \, $f1));
#X connect 0 0 3 0;
#X connect 2 0 1 0;
#X connect 3 0 2 0;
#X restore -64 161 pd set_change_interval;
#X obj -64 225 s change_interval;
#X floatatom 118 153 5 0 0 1 beats - - 0;
#X obj 34 22 loadbang;
#X msg 37 44 0;
#X obj 193 134 bng 19 250 50 0 empty empty empty 0 -10 0 12 #000000 #ff0400 #000000;
#X obj 1300 238 print;
#X obj 1306 198 spigot;
#X obj 1360 197 tgl 19 0 empty empty empty 0 -10 0 12 #fcfcfc #000000 #000000 0 1;
#X obj -60 451 r chord_rhythm_preset;
#X obj 804 703 r bass_rhythm_preset;
#X obj -41 787 r chord_duration;
#X obj 804 729 r bass_duration;
#X obj -31 708 r instrument_type;
#X obj 688 32 r tonart_gate;
#X obj 229 968 s synth_pulse;
#X obj 223 934 bng 19 250 50 0 empty empty empty 0 -10 0 12 #fcfcfc #000000 #000000;
#X msg 1208 600 0.01;
#X obj 937 85 t f f;
#X obj 899 113 s notepulse;
#X obj 803 673 r notepulse;
#X obj -5 566 r notepulse;
#X obj -61 820 r chord_change_toggle;
#X text 653 206 major;
#X obj 741 115 r tonart_mode;
#X floatatom 741 139 5 0 0 0 - - - 0;
#X obj 184 185 cnv 19 453 473 empty empty empty 20 12 0 12 #202020 #404040 0;
#X obj 183 184 net_tonart;
#X connect 2 0 1 0;
#X connect 3 0 19 0;
#X connect 3 0 58 0;
#X connect 6 0 67 0;
#X connect 7 0 5 0;
#X connect 8 0 7 0;
#X connect 10 0 17 0;
#X connect 11 0 68 0;
#X connect 12 0 24 0;
#X connect 13 0 12 1;
#X connect 14 0 16 0;
#X connect 15 0 4 0;
#X connect 15 0 7 0;
#X connect 16 0 15 0;
#X connect 17 0 18 0;
#X connect 18 0 9 0;
#X connect 19 0 25 1;
#X connect 20 0 21 0;
#X connect 21 0 6 0;
#X connect 21 1 6 1;
#X connect 21 2 6 2;
#X connect 21 3 32 0;
#X connect 23 0 12 0;
#X connect 24 0 39 0;
#X connect 25 0 10 1;
#X connect 26 0 25 0;
#X connect 26 0 56 0;
#X connect 27 0 46 0;
#X connect 28 0 29 0;
#X connect 30 0 29 1;
#X connect 31 0 30 0;
#X connect 32 0 22 0;
#X connect 32 0 6 3;
#X connect 33 0 21 2;
#X connect 34 0 33 0;
#X connect 37 0 21 1;
#X connect 39 0 10 0;
#X connect 39 1 41 0;
#X connect 40 0 38 0;
#X connect 41 0 40 0;
#X connect 42 0 41 1;
#X connect 43 0 44 0;
#X connect 44 0 47 1;
#X connect 46 0 69 0;
#X connect 47 0 48 0;
#X connect 48 0 26 0;
#X connect 50 0 51 0;
#X connect 51 0 53 0;
#X connect 53 0 52 0;
#X connect 54 0 55 0;
#X connect 55 0 50 0;
#X connect 58 0 57 0;
#X connect 59 0 58 1;
#X connect 60 0 23 1;
#X connect 61 0 28 1;
#X connect 62 0 21 4;
#X connect 63 0 29 2;
#X connect 64 0 21 3;
#X connect 65 0 13 0;
#X connect 67 0 66 0;
#X connect 68 0 2 0;
#X connect 69 0 70 0;
#X connect 69 1 47 0;
#X connect 71 0 28 0;
#X connect 72 0 23 0;
#X connect 73 0 42 0;
#X connect 75 0 76 0;
#X connect 76 0 15 0;
#X coords 0 -1 1 1 620 800 1 100 100;
