#N canvas 0 38 1728 1051 12;
#X obj 100 100 cnv 19 549 519 empty empty empty 20 12 0 12 #404040 #404040 0;
#X obj 1188 1 text define -k \$0-presets;
#A set;
#N canvas 507 385 1017 665 (subpatch) 0;
#X array preset1 40 float 3;
#A 0 1 2 3 1 2050 0 0 874.658 0 0 0 1 0 157.534 609.589 0.253425 684.932 0.89726 349.315 410.959 0.657534 369.863 0.520548 0.890411 0.561644 20000 0 1 0.328767 1 0 0 0 0 0 1 0 0 0 0;
#X coords 0 665 1 664 200 140 0;
#X restore 1345 59 graph;
#X obj 1192 526 makefilename preset%d;
#X listbox 1192 550 20 0 0 0 - - - 0;
#X obj 1192 426 + 1;
#X obj 111 310 bng 19 250 50 0 empty empty press\ to\ save\ state 30 10 0 12 #202020 #ff0400 #ffffff;
#X obj 15 329 s save_bang;
#X obj 1224 603 s preset_address;
#N canvas 0 22 450 278 (subpatch) 0;
#X array preset2 40 float 3;
#A 0 1 2 3 1 1489.04 1 1 1729.45 0 92.2055 0 1 1 527.397 609.589 0.239726 684.932 0.89726 27.3973 410.959 0.657534 369.863 0.883562 0.739726 0.157534 0 0 0 0 0 0 0 0 0 0 1 0 0 0 0;
#X coords 0 278 1 277 200 140 0;
#X restore 1345 89 graph;
#N canvas 0 22 450 278 (subpatch) 0;
#X array preset3 40 float 3;
#A 0 1 2 3 3 367.123 1 0 1676.03 0 89.0411 1 1 1 171.233 609.589 1 767.123 0.945205 349.315 410.959 0.657534 369.863 0.520548 1 0.410959 801.253 0 0.5 -2.63014 0.623288 0 0 0 0 0 1 0 0 0 0;
#X coords 0 278 1 277 200 140 0;
#X restore 1345 119 graph;
#N canvas 0 22 450 278 (subpatch) 0;
#X array preset4 40 float 3;
#A 0 1 1 0 3 1943.15 1 0 1622.6 1 301.37 1 1 3 171.233 609.589 1 767.123 0.650685 349.315 410.959 0.657534 369.863 0.520548 0.506849 0.561644 1482.15 0 0.719178 0.328767 1 0 0 0 0 0 1 0 0 0 0;
#X coords 0 278 1 277 200 140 0;
#X restore 1345 149 graph;
#N canvas 0 22 450 278 (subpatch) 0;
#X array preset5 40 float 3;
#A 0 1 2 3 3 1863.01 1 3 500.685 2 397.26 1 1 5 239.726 472.603 0.0684932 205.479 0.0958904 0 1753.42 0 0 0 0.863014 0 20000 0 0.691781 -4.27397 1 1 1 0 0 1 1 0 0 0 0;
#X coords 0 278 1 277 200 140 0;
#X restore 1345 179 graph;
#N canvas 0 22 450 278 (subpatch) 0;
#X array preset6 40 float 3;
#A 0 1 2 0 5 4000 1 0 4000 5 212.329 1 1 2 691.781 828.767 0.383562 1835.62 0.80137 1561.64 1753.42 0.0342466 0 0.10274 0.589041 0.547945 0 0 0 0 0 0 0 0 0 0 2 0 0 0 0;
#X coords 0 278 1 277 200 140 0;
#X restore 1345 209 graph;
#N canvas 0 22 450 278 (subpatch) 0;
#X array preset7 40 float 3;
#A 0 1 3 5 1 4000 1 2 1168.49 2 1000 1 1 4 260.274 472.603 0.136986 342.466 0.335616 1520.55 1753.42 0.109589 410.959 0.335616 0 0.328767 20000 0.30137 0.19863 6.08219 0.0273973 1 1 0 0 0 2 0 0 0 0;
#X coords 0 278 1 277 200 140 0;
#X restore 1345 239 graph;
#N canvas 643 681 450 278 (subpatch) 0;
#X array preset8 40 float 3;
#A 0 1 2 3 1 1889.73 0 0 0 0 0 0 1 0 191.781 280.822 0.815068 643.836 0.890411 0 1753.42 0 0 0 0.253425 0 0 0.30137 0 0 0 0 0 0 0 0 0 0 0 0 0;
#X coords 0 278 1 277 200 140 0;
#X restore 1345 269 graph;
#X obj 1192 573 t b a;
#X obj 1192 630 s refesh;
#N canvas 0 38 1241 1051 preseting 0;
#X obj 112 92 s chord_toggle;
#X obj 112 68 t a a;
#X obj 111 183 tabwrite;
#X obj 226 79 r preset_address;
#X obj 22 44 r save_bang;
#X msg 226 103 set \$1;
#X obj 22 68 t b b b;
#X msg 166 161 0;
#X obj 93 134 f;
#X obj 371 134 tabread;
#X msg 370 108 0;
#X floatatom 371 158 5 0 0 0 - - - 0;
#X obj 409 77 r preset_address;
#X msg 409 101 set \$1;
#X obj 22 99 bng 19 250 50 0 empty empty empty 0 -10 0 12 #fcfcfc #000000 #000000;
#X obj 231 133 bng 19 250 50 0 empty empty empty 0 -10 0 12 #fcfcfc #000000 #000000;
#X obj 168 124 bng 19 250 50 0 empty empty empty 0 -10 0 12 #fcfcfc #000000 #000000;
#X obj 112 44 r chord_toggle_interface_s;
#X obj 195 166 cnv 10 10 10 empty empty empty 20 12 0 12 #ff0400 #404040 0;
#X obj 300 48 cnv 10 10 10 empty empty empty 20 12 0 12 #ff0400 #404040 0;
#X obj 370 47 r refesh;
#X obj 397 82 cnv 10 10 10 empty empty empty 20 12 0 12 #0400ff #404040 0;
#X obj 692 68 t a a;
#X obj 691 183 tabwrite;
#X obj 806 79 r preset_address;
#X obj 602 44 r save_bang;
#X msg 806 103 set \$1;
#X obj 602 68 t b b b;
#X obj 673 134 f;
#X obj 951 134 tabread;
#X floatatom 951 158 5 0 0 0 - - - 0;
#X obj 989 77 r preset_address;
#X msg 989 101 set \$1;
#X obj 602 99 bng 19 250 50 0 empty empty empty 0 -10 0 12 #fcfcfc #000000 #000000;
#X obj 811 133 bng 19 250 50 0 empty empty empty 0 -10 0 12 #fcfcfc #000000 #000000;
#X obj 748 124 bng 19 250 50 0 empty empty empty 0 -10 0 12 #fcfcfc #000000 #000000;
#X obj 775 166 cnv 10 10 10 empty empty empty 20 12 0 12 #ff0400 #404040 0;
#X obj 880 48 cnv 10 10 10 empty empty empty 20 12 0 12 #ff0400 #404040 0;
#X obj 950 47 r refesh;
#X obj 977 82 cnv 10 10 10 empty empty empty 20 12 0 12 #0400ff #404040 0;
#X obj 692 44 r bass_toggle_interface_s;
#X obj 692 92 s bass_toggle;
#X obj 112 258 t a a;
#X obj 111 373 tabwrite;
#X obj 226 269 r preset_address;
#X obj 22 234 r save_bang;
#X msg 226 293 set \$1;
#X obj 22 258 t b b b;
#X obj 93 324 f;
#X obj 371 324 tabread;
#X floatatom 371 348 5 0 0 0 - - - 0;
#X obj 409 267 r preset_address;
#X msg 409 291 set \$1;
#X obj 22 289 bng 19 250 50 0 empty empty empty 0 -10 0 12 #fcfcfc #000000 #000000;
#X obj 231 323 bng 19 250 50 0 empty empty empty 0 -10 0 12 #fcfcfc #000000 #000000;
#X obj 168 314 bng 19 250 50 0 empty empty empty 0 -10 0 12 #fcfcfc #000000 #000000;
#X obj 195 356 cnv 10 10 10 empty empty empty 20 12 0 12 #ff0400 #404040 0;
#X obj 322 238 cnv 10 10 10 empty empty empty 20 12 0 12 #ff0400 #404040 0;
#X obj 370 237 r refesh;
#X obj 397 272 cnv 10 10 10 empty empty empty 20 12 0 12 #0400ff #404040 0;
#X obj 112 234 r instrument_type_interface_s;
#X obj 112 282 s instrument_type;
#X msg 166 351 1;
#X msg 370 298 1;
#X obj 112 448 t a a;
#X obj 111 563 tabwrite;
#X obj 226 459 r preset_address;
#X obj 22 424 r save_bang;
#X msg 226 483 set \$1;
#X obj 22 448 t b b b;
#X obj 93 514 f;
#X obj 371 514 tabread;
#X floatatom 371 538 5 0 0 0 - - - 0;
#X obj 409 457 r preset_address;
#X msg 409 481 set \$1;
#X obj 22 479 bng 19 250 50 0 empty empty empty 0 -10 0 12 #fcfcfc #000000 #000000;
#X obj 231 513 bng 19 250 50 0 empty empty empty 0 -10 0 12 #fcfcfc #000000 #000000;
#X obj 168 504 bng 19 250 50 0 empty empty empty 0 -10 0 12 #fcfcfc #000000 #000000;
#X obj 195 546 cnv 10 10 10 empty empty empty 20 12 0 12 #ff0400 #404040 0;
#X obj 289 428 cnv 10 10 10 empty empty empty 20 12 0 12 #ff0400 #404040 0;
#X obj 370 427 r refesh;
#X obj 397 462 cnv 10 10 10 empty empty empty 20 12 0 12 #0400ff #404040 0;
#X obj 112 424 r chord_type_interface_s;
#X obj 112 472 s chord_type;
#X msg 166 541 2;
#X msg 370 488 2;
#X obj 112 638 t a a;
#X obj 111 753 tabwrite;
#X obj 226 649 r preset_address;
#X obj 22 614 r save_bang;
#X msg 226 673 set \$1;
#X obj 22 638 t b b b;
#X obj 93 704 f;
#X obj 371 704 tabread;
#X floatatom 371 728 5 0 0 0 - - - 0;
#X obj 409 647 r preset_address;
#X msg 409 671 set \$1;
#X obj 22 669 bng 19 250 50 0 empty empty empty 0 -10 0 12 #fcfcfc #000000 #000000;
#X obj 231 703 bng 19 250 50 0 empty empty empty 0 -10 0 12 #fcfcfc #000000 #000000;
#X obj 168 694 bng 19 250 50 0 empty empty empty 0 -10 0 12 #fcfcfc #000000 #000000;
#X obj 195 736 cnv 10 10 10 empty empty empty 20 12 0 12 #ff0400 #404040 0;
#X obj 289 618 cnv 10 10 10 empty empty empty 20 12 0 12 #ff0400 #404040 0;
#X obj 370 617 r refesh;
#X obj 397 652 cnv 10 10 10 empty empty empty 20 12 0 12 #0400ff #404040 0;
#X obj 112 614 r chord_rhythm_interface_s;
#X obj 112 662 s chord_rhythm_preset;
#X msg 166 731 3;
#X msg 370 678 3;
#X obj 937 112 cnv 10 10 10 empty empty empty 20 12 0 12 #0400ff #404040 0;
#X obj 357 112 cnv 10 10 10 empty empty empty 20 12 0 12 #0400ff #404040 0;
#X obj 357 302 cnv 10 10 10 empty empty empty 20 12 0 12 #0400ff #404040 0;
#X obj 357 492 cnv 10 10 10 empty empty empty 20 12 0 12 #0400ff #404040 0;
#X obj 357 682 cnv 10 10 10 empty empty empty 20 12 0 12 #0400ff #404040 0;
#X obj 692 248 t a a;
#X obj 691 363 tabwrite;
#X obj 806 259 r preset_address;
#X obj 602 224 r save_bang;
#X msg 806 283 set \$1;
#X obj 602 248 t b b b;
#X obj 673 314 f;
#X obj 951 314 tabread;
#X floatatom 951 338 5 0 0 0 - - - 0;
#X obj 989 257 r preset_address;
#X msg 989 281 set \$1;
#X obj 602 279 bng 19 250 50 0 empty empty empty 0 -10 0 12 #fcfcfc #000000 #000000;
#X obj 811 313 bng 19 250 50 0 empty empty empty 0 -10 0 12 #fcfcfc #000000 #000000;
#X obj 748 304 bng 19 250 50 0 empty empty empty 0 -10 0 12 #fcfcfc #000000 #000000;
#X obj 775 346 cnv 10 10 10 empty empty empty 20 12 0 12 #ff0400 #404040 0;
#X obj 880 228 cnv 10 10 10 empty empty empty 20 12 0 12 #ff0400 #404040 0;
#X obj 950 227 r refesh;
#X obj 977 262 cnv 10 10 10 empty empty empty 20 12 0 12 #0400ff #404040 0;
#X obj 937 292 cnv 10 10 10 empty empty empty 20 12 0 12 #0400ff #404040 0;
#X obj 692 224 r bass_rhythm_interface_s;
#X obj 692 272 s bass_rhythm_preset;
#X obj 371 182 s chord_toggle_interface_r;
#X obj 371 372 s instrument_type_interface_r;
#X obj 951 182 s bass_toggle_interface_r;
#X obj 951 362 s bass_rhythm_interface_r;
#X msg 746 161 5;
#X msg 746 341 6;
#X msg 950 108 5;
#X msg 950 288 6;
#X obj 1272 68 t a a;
#X obj 1271 183 tabwrite;
#X obj 1386 79 r preset_address;
#X obj 1182 44 r save_bang;
#X msg 1386 103 set \$1;
#X obj 1182 68 t b b b;
#X obj 1253 134 f;
#X obj 1531 134 tabread;
#X floatatom 1531 158 5 0 0 0 - - - 0;
#X obj 1569 77 r preset_address;
#X msg 1569 101 set \$1;
#X obj 1182 99 bng 19 250 50 0 empty empty empty 0 -10 0 12 #fcfcfc #000000 #000000;
#X obj 1391 133 bng 19 250 50 0 empty empty empty 0 -10 0 12 #fcfcfc #000000 #000000;
#X obj 1328 124 bng 19 250 50 0 empty empty empty 0 -10 0 12 #fcfcfc #000000 #000000;
#X obj 1355 166 cnv 10 10 10 empty empty empty 20 12 0 12 #ff0400 #404040 0;
#X obj 1460 48 cnv 10 10 10 empty empty empty 20 12 0 12 #ff0400 #404040 0;
#X obj 1530 47 r refesh;
#X obj 1557 82 cnv 10 10 10 empty empty empty 20 12 0 12 #0400ff #404040 0;
#X obj 1517 112 cnv 10 10 10 empty empty empty 20 12 0 12 #0400ff #404040 0;
#X msg 1326 161 8;
#X msg 1530 108 8;
#X obj 1531 182 s drum_mode_interface_r;
#X obj 1272 44 r drum_mode_interface_s;
#X obj 1272 92 s drum_mode;
#X obj 937 186 cnv 10 10 10 empty empty empty 20 12 0 12 #0400ff #404040 0;
#X obj 357 186 cnv 10 10 10 empty empty empty 20 12 0 12 #0400ff #404040 0;
#X obj 357 376 cnv 10 10 10 empty empty empty 20 12 0 12 #0400ff #404040 0;
#X obj 357 566 cnv 10 10 10 empty empty empty 20 12 0 12 #0400ff #404040 0;
#X obj 357 756 cnv 10 10 10 empty empty empty 20 12 0 12 #0400ff #404040 0;
#X obj 937 366 cnv 10 10 10 empty empty empty 20 12 0 12 #0400ff #404040 0;
#X obj 1517 186 cnv 10 10 10 empty empty empty 20 12 0 12 #0400ff #404040 0;
#X obj 1272 248 t a a;
#X obj 1271 363 tabwrite;
#X obj 1386 259 r preset_address;
#X obj 1182 224 r save_bang;
#X msg 1386 283 set \$1;
#X obj 1182 248 t b b b;
#X obj 1253 314 f;
#X obj 1531 314 tabread;
#X floatatom 1531 338 5 0 0 0 - - - 0;
#X obj 1569 257 r preset_address;
#X msg 1569 281 set \$1;
#X obj 1182 279 bng 19 250 50 0 empty empty empty 0 -10 0 12 #fcfcfc #000000 #000000;
#X obj 1391 313 bng 19 250 50 0 empty empty empty 0 -10 0 12 #fcfcfc #000000 #000000;
#X obj 1328 304 bng 19 250 50 0 empty empty empty 0 -10 0 12 #fcfcfc #000000 #000000;
#X obj 1355 346 cnv 10 10 10 empty empty empty 20 12 0 12 #ff0400 #404040 0;
#X obj 1460 228 cnv 10 10 10 empty empty empty 20 12 0 12 #ff0400 #404040 0;
#X obj 1530 227 r refesh;
#X obj 1557 262 cnv 10 10 10 empty empty empty 20 12 0 12 #0400ff #404040 0;
#X obj 1517 292 cnv 10 10 10 empty empty empty 20 12 0 12 #0400ff #404040 0;
#X obj 1517 366 cnv 10 10 10 empty empty empty 20 12 0 12 #0400ff #404040 0;
#X obj 1272 224 r drum_duration_interface_s;
#X obj 1531 362 s drum_duration_interface_r;
#X msg 1326 341 9;
#X msg 1530 288 9;
#X obj 1272 272 s note_len;
#X obj 1272 448 t a a;
#X obj 1271 563 tabwrite;
#X obj 1386 459 r preset_address;
#X obj 1182 424 r save_bang;
#X msg 1386 483 set \$1;
#X obj 1182 448 t b b b;
#X obj 1253 514 f;
#X obj 1531 514 tabread;
#X floatatom 1531 538 5 0 0 0 - - - 0;
#X obj 1569 457 r preset_address;
#X msg 1569 481 set \$1;
#X obj 1182 479 bng 19 250 50 0 empty empty empty 0 -10 0 12 #fcfcfc #000000 #000000;
#X obj 1391 513 bng 19 250 50 0 empty empty empty 0 -10 0 12 #fcfcfc #000000 #000000;
#X obj 1328 504 bng 19 250 50 0 empty empty empty 0 -10 0 12 #fcfcfc #000000 #000000;
#X obj 1355 546 cnv 10 10 10 empty empty empty 20 12 0 12 #ff0400 #404040 0;
#X obj 1460 428 cnv 10 10 10 empty empty empty 20 12 0 12 #ff0400 #404040 0;
#X obj 1530 427 r refesh;
#X obj 1557 462 cnv 10 10 10 empty empty empty 20 12 0 12 #0400ff #404040 0;
#X obj 1517 492 cnv 10 10 10 empty empty empty 20 12 0 12 #0400ff #404040 0;
#X obj 1517 566 cnv 10 10 10 empty empty empty 20 12 0 12 #0400ff #404040 0;
#X obj 1272 424 r drum_gate_interface_s;
#X obj 1531 562 s drum_gate_interface_r;
#X obj 1272 472 s drum_gate;
#X msg 1326 541 10;
#X msg 1530 488 10;
#X obj 692 748 t a a;
#X obj 691 863 tabwrite;
#X obj 806 759 r preset_address;
#X obj 602 724 r save_bang;
#X msg 806 783 set \$1;
#X obj 602 748 t b b b;
#X obj 673 814 f;
#X obj 951 814 tabread;
#X floatatom 951 838 5 0 0 0 - - - 0;
#X obj 989 757 r preset_address;
#X msg 989 781 set \$1;
#X obj 602 779 bng 19 250 50 0 empty empty empty 0 -10 0 12 #fcfcfc #000000 #000000;
#X obj 811 813 bng 19 250 50 0 empty empty empty 0 -10 0 12 #fcfcfc #000000 #000000;
#X obj 748 804 bng 19 250 50 0 empty empty empty 0 -10 0 12 #fcfcfc #000000 #000000;
#X obj 775 846 cnv 10 10 10 empty empty empty 20 12 0 12 #ff0400 #404040 0;
#X obj 880 728 cnv 10 10 10 empty empty empty 20 12 0 12 #ff0400 #404040 0;
#X obj 950 727 r refesh;
#X obj 977 762 cnv 10 10 10 empty empty empty 20 12 0 12 #0400ff #404040 0;
#X obj 937 792 cnv 10 10 10 empty empty empty 20 12 0 12 #0400ff #404040 0;
#X obj 937 866 cnv 10 10 10 empty empty empty 20 12 0 12 #0400ff #404040 0;
#X obj 692 724 r tonart_gate_interface_s;
#X obj 692 772 s tonart_gate;
#X msg 746 841 11;
#X msg 950 788 11;
#X obj 951 862 s tonart_gate_interface_r;
#X obj 1272 638 t a a;
#X obj 1271 753 tabwrite;
#X obj 1386 649 r preset_address;
#X obj 1182 614 r save_bang;
#X msg 1386 673 set \$1;
#X obj 1182 638 t b b b;
#X obj 1253 704 f;
#X obj 1531 704 tabread;
#X floatatom 1531 728 5 0 0 0 - - - 0;
#X obj 1569 647 r preset_address;
#X msg 1569 671 set \$1;
#X obj 1182 669 bng 19 250 50 0 empty empty empty 0 -10 0 12 #fcfcfc #000000 #000000;
#X obj 1391 703 bng 19 250 50 0 empty empty empty 0 -10 0 12 #fcfcfc #000000 #000000;
#X obj 1328 694 bng 19 250 50 0 empty empty empty 0 -10 0 12 #fcfcfc #000000 #000000;
#X obj 1355 736 cnv 10 10 10 empty empty empty 20 12 0 12 #ff0400 #404040 0;
#X obj 1460 618 cnv 10 10 10 empty empty empty 20 12 0 12 #ff0400 #404040 0;
#X obj 1530 617 r refesh;
#X obj 1557 652 cnv 10 10 10 empty empty empty 20 12 0 12 #0400ff #404040 0;
#X obj 1517 682 cnv 10 10 10 empty empty empty 20 12 0 12 #0400ff #404040 0;
#X obj 1517 756 cnv 10 10 10 empty empty empty 20 12 0 12 #0400ff #404040 0;
#X obj 1272 614 r fill_mode_interface_s;
#X obj 1272 662 s fill_mode;
#X obj 1531 752 s fill_mode_interface_r;
#X msg 1530 678 12;
#X msg 1326 731 12;
#X obj 623 596 cnv 50 500 50 empty empty last\ setting:\ 35 20 30 0 40 #c7c6ff #404040 0;
#X obj 112 1018 t a a;
#X obj 111 1133 tabwrite;
#X obj 226 1029 r preset_address;
#X obj 22 994 r save_bang;
#X msg 226 1053 set \$1;
#X obj 22 1018 t b b b;
#X obj 93 1084 f;
#X obj 371 1084 tabread;
#X floatatom 371 1108 5 0 0 0 - - - 0;
#X obj 409 1027 r preset_address;
#X msg 409 1051 set \$1;
#X obj 22 1049 bng 19 250 50 0 empty empty empty 0 -10 0 12 #fcfcfc #000000 #000000;
#X obj 231 1083 bng 19 250 50 0 empty empty empty 0 -10 0 12 #fcfcfc #000000 #000000;
#X obj 168 1074 bng 19 250 50 0 empty empty empty 0 -10 0 12 #fcfcfc #000000 #000000;
#X obj 195 1116 cnv 10 10 10 empty empty empty 20 12 0 12 #ff0400 #404040 0;
#X obj 289 998 cnv 10 10 10 empty empty empty 20 12 0 12 #ff0400 #404040 0;
#X obj 370 997 r refesh;
#X obj 397 1032 cnv 10 10 10 empty empty empty 20 12 0 12 #0400ff #404040 0;
#X obj 357 1062 cnv 10 10 10 empty empty empty 20 12 0 12 #0400ff #404040 0;
#X obj 357 1136 cnv 10 10 10 empty empty empty 20 12 0 12 #0400ff #404040 0;
#X obj 112 994 r \$0-chord_attack_interface_s;
#X obj 112 1042 s chord_attack;
#X obj 885 2205 vsl 19 162 0 127 0 0 empty empty empty 0 -9 0 12 #fcfcfc #000000 #000000 0 1;
#X msg 370 1058 13;
#X msg 166 1111 13;
#X obj 112 1208 t a a;
#X obj 111 1323 tabwrite;
#X obj 226 1219 r preset_address;
#X obj 22 1184 r save_bang;
#X msg 226 1243 set \$1;
#X obj 22 1208 t b b b;
#X obj 93 1274 f;
#X obj 371 1274 tabread;
#X floatatom 371 1298 5 0 0 0 - - - 0;
#X obj 409 1217 r preset_address;
#X msg 409 1241 set \$1;
#X obj 22 1239 bng 19 250 50 0 empty empty empty 0 -10 0 12 #fcfcfc #000000 #000000;
#X obj 231 1273 bng 19 250 50 0 empty empty empty 0 -10 0 12 #fcfcfc #000000 #000000;
#X obj 168 1264 bng 19 250 50 0 empty empty empty 0 -10 0 12 #fcfcfc #000000 #000000;
#X obj 195 1306 cnv 10 10 10 empty empty empty 20 12 0 12 #ff0400 #404040 0;
#X obj 289 1188 cnv 10 10 10 empty empty empty 20 12 0 12 #ff0400 #404040 0;
#X obj 370 1187 r refesh;
#X obj 397 1222 cnv 10 10 10 empty empty empty 20 12 0 12 #0400ff #404040 0;
#X obj 357 1252 cnv 10 10 10 empty empty empty 20 12 0 12 #0400ff #404040 0;
#X obj 357 1326 cnv 10 10 10 empty empty empty 20 12 0 12 #0400ff #404040 0;
#X obj 112 1184 r \$0-chord_decay_interface_s;
#X obj 371 1322 s chord_decay_interface_r;
#X msg 370 1248 14;
#X msg 166 1301 14;
#X obj 112 1232 s chord_decay;
#X obj 112 1388 t a a;
#X obj 111 1503 tabwrite;
#X obj 226 1399 r preset_address;
#X obj 22 1364 r save_bang;
#X msg 226 1423 set \$1;
#X obj 22 1388 t b b b;
#X obj 93 1454 f;
#X obj 371 1454 tabread;
#X floatatom 371 1478 5 0 0 0 - - - 0;
#X obj 409 1397 r preset_address;
#X msg 409 1421 set \$1;
#X obj 22 1419 bng 19 250 50 0 empty empty empty 0 -10 0 12 #fcfcfc #000000 #000000;
#X obj 231 1453 bng 19 250 50 0 empty empty empty 0 -10 0 12 #fcfcfc #000000 #000000;
#X obj 168 1444 bng 19 250 50 0 empty empty empty 0 -10 0 12 #fcfcfc #000000 #000000;
#X obj 195 1486 cnv 10 10 10 empty empty empty 20 12 0 12 #ff0400 #404040 0;
#X obj 289 1368 cnv 10 10 10 empty empty empty 20 12 0 12 #ff0400 #404040 0;
#X obj 370 1367 r refesh;
#X obj 397 1402 cnv 10 10 10 empty empty empty 20 12 0 12 #0400ff #404040 0;
#X obj 357 1432 cnv 10 10 10 empty empty empty 20 12 0 12 #0400ff #404040 0;
#X obj 357 1506 cnv 10 10 10 empty empty empty 20 12 0 12 #0400ff #404040 0;
#X obj 112 1364 r \$0-chord_sustain_interface_s;
#X obj 112 1412 s chord_sustain;
#X msg 370 1428 15;
#X msg 166 1481 15;
#X obj 112 1558 t a a;
#X obj 111 1673 tabwrite;
#X obj 226 1569 r preset_address;
#X obj 22 1534 r save_bang;
#X msg 226 1593 set \$1;
#X obj 22 1558 t b b b;
#X obj 93 1624 f;
#X obj 371 1624 tabread;
#X floatatom 371 1648 5 0 0 0 - - - 0;
#X obj 409 1567 r preset_address;
#X msg 409 1591 set \$1;
#X obj 22 1589 bng 19 250 50 0 empty empty empty 0 -10 0 12 #fcfcfc #000000 #000000;
#X obj 231 1623 bng 19 250 50 0 empty empty empty 0 -10 0 12 #fcfcfc #000000 #000000;
#X obj 168 1614 bng 19 250 50 0 empty empty empty 0 -10 0 12 #fcfcfc #000000 #000000;
#X obj 195 1656 cnv 10 10 10 empty empty empty 20 12 0 12 #ff0400 #404040 0;
#X obj 289 1538 cnv 10 10 10 empty empty empty 20 12 0 12 #ff0400 #404040 0;
#X obj 370 1537 r refesh;
#X obj 397 1572 cnv 10 10 10 empty empty empty 20 12 0 12 #0400ff #404040 0;
#X obj 357 1602 cnv 10 10 10 empty empty empty 20 12 0 12 #0400ff #404040 0;
#X obj 357 1676 cnv 10 10 10 empty empty empty 20 12 0 12 #0400ff #404040 0;
#X msg 166 1651 16;
#X msg 370 1598 16;
#X obj 112 1534 r \$0-chord_release_interface_s;
#X obj 112 1582 s chord_release;
#X obj 112 1748 t a a;
#X obj 111 1863 tabwrite;
#X obj 226 1759 r preset_address;
#X obj 22 1724 r save_bang;
#X msg 226 1783 set \$1;
#X obj 22 1748 t b b b;
#X obj 93 1814 f;
#X obj 371 1814 tabread;
#X floatatom 371 1838 5 0 0 0 - - - 0;
#X obj 409 1757 r preset_address;
#X msg 409 1781 set \$1;
#X obj 22 1779 bng 19 250 50 0 empty empty empty 0 -10 0 12 #fcfcfc #000000 #000000;
#X obj 231 1813 bng 19 250 50 0 empty empty empty 0 -10 0 12 #fcfcfc #000000 #000000;
#X obj 168 1804 bng 19 250 50 0 empty empty empty 0 -10 0 12 #fcfcfc #000000 #000000;
#X obj 195 1846 cnv 10 10 10 empty empty empty 20 12 0 12 #ff0400 #404040 0;
#X obj 289 1728 cnv 10 10 10 empty empty empty 20 12 0 12 #ff0400 #404040 0;
#X obj 370 1727 r refesh;
#X obj 397 1762 cnv 10 10 10 empty empty empty 20 12 0 12 #0400ff #404040 0;
#X obj 357 1792 cnv 10 10 10 empty empty empty 20 12 0 12 #0400ff #404040 0;
#X obj 357 1866 cnv 10 10 10 empty empty empty 20 12 0 12 #0400ff #404040 0;
#X obj 112 1724 r \$0-chord_modulation_interface_s;
#X obj 112 1772 s chord_modulation;
#X msg 166 1841 17;
#X msg 370 1788 17;
#X obj 712 1018 t a a;
#X obj 711 1133 tabwrite;
#X obj 826 1029 r preset_address;
#X obj 622 994 r save_bang;
#X msg 826 1053 set \$1;
#X obj 622 1018 t b b b;
#X obj 693 1084 f;
#X obj 971 1084 tabread;
#X floatatom 971 1108 5 0 0 0 - - - 0;
#X obj 1009 1027 r preset_address;
#X msg 1009 1051 set \$1;
#X obj 622 1049 bng 19 250 50 0 empty empty empty 0 -10 0 12 #fcfcfc #000000 #000000;
#X obj 831 1083 bng 19 250 50 0 empty empty empty 0 -10 0 12 #fcfcfc #000000 #000000;
#X obj 768 1074 bng 19 250 50 0 empty empty empty 0 -10 0 12 #fcfcfc #000000 #000000;
#X obj 795 1116 cnv 10 10 10 empty empty empty 20 12 0 12 #ff0400 #404040 0;
#X obj 889 998 cnv 10 10 10 empty empty empty 20 12 0 12 #ff0400 #404040 0;
#X obj 970 997 r refesh;
#X obj 997 1032 cnv 10 10 10 empty empty empty 20 12 0 12 #0400ff #404040 0;
#X obj 957 1062 cnv 10 10 10 empty empty empty 20 12 0 12 #0400ff #404040 0;
#X obj 957 1136 cnv 10 10 10 empty empty empty 20 12 0 12 #0400ff #404040 0;
#X obj 712 1208 t a a;
#X obj 711 1323 tabwrite;
#X obj 826 1219 r preset_address;
#X obj 622 1184 r save_bang;
#X msg 826 1243 set \$1;
#X obj 622 1208 t b b b;
#X obj 693 1274 f;
#X obj 971 1274 tabread;
#X floatatom 971 1298 5 0 0 0 - - - 0;
#X obj 1009 1217 r preset_address;
#X msg 1009 1241 set \$1;
#X obj 622 1239 bng 19 250 50 0 empty empty empty 0 -10 0 12 #fcfcfc #000000 #000000;
#X obj 831 1273 bng 19 250 50 0 empty empty empty 0 -10 0 12 #fcfcfc #000000 #000000;
#X obj 768 1264 bng 19 250 50 0 empty empty empty 0 -10 0 12 #fcfcfc #000000 #000000;
#X obj 795 1306 cnv 10 10 10 empty empty empty 20 12 0 12 #ff0400 #404040 0;
#X obj 889 1188 cnv 10 10 10 empty empty empty 20 12 0 12 #ff0400 #404040 0;
#X obj 970 1187 r refesh;
#X obj 997 1222 cnv 10 10 10 empty empty empty 20 12 0 12 #0400ff #404040 0;
#X obj 957 1252 cnv 10 10 10 empty empty empty 20 12 0 12 #0400ff #404040 0;
#X obj 957 1326 cnv 10 10 10 empty empty empty 20 12 0 12 #0400ff #404040 0;
#X obj 712 1388 t a a;
#X obj 711 1503 tabwrite;
#X obj 826 1399 r preset_address;
#X obj 622 1364 r save_bang;
#X msg 826 1423 set \$1;
#X obj 622 1388 t b b b;
#X obj 693 1454 f;
#X obj 971 1454 tabread;
#X floatatom 971 1478 5 0 0 0 - - - 0;
#X obj 1009 1397 r preset_address;
#X msg 1009 1421 set \$1;
#X obj 622 1419 bng 19 250 50 0 empty empty empty 0 -10 0 12 #fcfcfc #000000 #000000;
#X obj 831 1453 bng 19 250 50 0 empty empty empty 0 -10 0 12 #fcfcfc #000000 #000000;
#X obj 768 1444 bng 19 250 50 0 empty empty empty 0 -10 0 12 #fcfcfc #000000 #000000;
#X obj 795 1486 cnv 10 10 10 empty empty empty 20 12 0 12 #ff0400 #404040 0;
#X obj 889 1368 cnv 10 10 10 empty empty empty 20 12 0 12 #ff0400 #404040 0;
#X obj 970 1367 r refesh;
#X obj 997 1402 cnv 10 10 10 empty empty empty 20 12 0 12 #0400ff #404040 0;
#X obj 957 1432 cnv 10 10 10 empty empty empty 20 12 0 12 #0400ff #404040 0;
#X obj 957 1506 cnv 10 10 10 empty empty empty 20 12 0 12 #0400ff #404040 0;
#X obj 712 1558 t a a;
#X obj 711 1673 tabwrite;
#X obj 826 1569 r preset_address;
#X obj 622 1534 r save_bang;
#X msg 826 1593 set \$1;
#X obj 622 1558 t b b b;
#X obj 693 1624 f;
#X obj 971 1624 tabread;
#X floatatom 971 1648 5 0 0 0 - - - 0;
#X obj 1009 1567 r preset_address;
#X msg 1009 1591 set \$1;
#X obj 622 1589 bng 19 250 50 0 empty empty empty 0 -10 0 12 #fcfcfc #000000 #000000;
#X obj 831 1623 bng 19 250 50 0 empty empty empty 0 -10 0 12 #fcfcfc #000000 #000000;
#X obj 768 1614 bng 19 250 50 0 empty empty empty 0 -10 0 12 #fcfcfc #000000 #000000;
#X obj 795 1656 cnv 10 10 10 empty empty empty 20 12 0 12 #ff0400 #404040 0;
#X obj 889 1538 cnv 10 10 10 empty empty empty 20 12 0 12 #ff0400 #404040 0;
#X obj 970 1537 r refesh;
#X obj 997 1572 cnv 10 10 10 empty empty empty 20 12 0 12 #0400ff #404040 0;
#X obj 957 1602 cnv 10 10 10 empty empty empty 20 12 0 12 #0400ff #404040 0;
#X obj 957 1676 cnv 10 10 10 empty empty empty 20 12 0 12 #0400ff #404040 0;
#X obj 712 1748 t a a;
#X obj 711 1863 tabwrite;
#X obj 826 1759 r preset_address;
#X obj 622 1724 r save_bang;
#X msg 826 1783 set \$1;
#X obj 622 1748 t b b b;
#X obj 693 1814 f;
#X obj 971 1814 tabread;
#X floatatom 971 1838 5 0 0 0 - - - 0;
#X obj 1009 1757 r preset_address;
#X msg 1009 1781 set \$1;
#X obj 622 1779 bng 19 250 50 0 empty empty empty 0 -10 0 12 #fcfcfc #000000 #000000;
#X obj 831 1813 bng 19 250 50 0 empty empty empty 0 -10 0 12 #fcfcfc #000000 #000000;
#X obj 768 1804 bng 19 250 50 0 empty empty empty 0 -10 0 12 #fcfcfc #000000 #000000;
#X obj 795 1846 cnv 10 10 10 empty empty empty 20 12 0 12 #ff0400 #404040 0;
#X obj 889 1728 cnv 10 10 10 empty empty empty 20 12 0 12 #ff0400 #404040 0;
#X obj 970 1727 r refesh;
#X obj 997 1762 cnv 10 10 10 empty empty empty 20 12 0 12 #0400ff #404040 0;
#X obj 957 1792 cnv 10 10 10 empty empty empty 20 12 0 12 #0400ff #404040 0;
#X obj 957 1866 cnv 10 10 10 empty empty empty 20 12 0 12 #0400ff #404040 0;
#X obj 712 994 r \$0-bass_attack_interface_s;
#X obj 712 1042 s bass_attack;
#X msg 970 1058 18;
#X msg 766 1111 18;
#X msg 766 1301 19;
#X msg 970 1248 19;
#X obj 712 1184 r \$0-bass_decay_interface_s;
#X obj 712 1232 s bass_decay;
#X msg 766 1481 20;
#X msg 970 1428 20;
#X obj 712 1364 r \$0-bass_sustain_interface_s;
#X obj 712 1412 s bass_sustain;
#X obj 712 1534 r \$0-bass_release_interface_s;
#X msg 970 1598 21;
#X msg 766 1651 21;
#X obj 712 1582 s bass_release;
#X obj 712 1772 s bass_modulation;
#X obj 712 1724 r \$0-bass_modulation_interface_s;
#X msg 766 1841 22;
#X msg 970 1788 22;
#X obj 112 1938 t a a;
#X obj 111 2053 tabwrite;
#X obj 226 1949 r preset_address;
#X obj 22 1914 r save_bang;
#X msg 226 1973 set \$1;
#X obj 22 1938 t b b b;
#X obj 93 2004 f;
#X obj 371 2004 tabread;
#X floatatom 371 2028 5 0 0 0 - - - 0;
#X obj 409 1947 r preset_address;
#X msg 409 1971 set \$1;
#X obj 22 1969 bng 19 250 50 0 empty empty empty 0 -10 0 12 #fcfcfc #000000 #000000;
#X obj 231 2003 bng 19 250 50 0 empty empty empty 0 -10 0 12 #fcfcfc #000000 #000000;
#X obj 168 1994 bng 19 250 50 0 empty empty empty 0 -10 0 12 #fcfcfc #000000 #000000;
#X obj 195 2036 cnv 10 10 10 empty empty empty 20 12 0 12 #ff0400 #404040 0;
#X obj 289 1918 cnv 10 10 10 empty empty empty 20 12 0 12 #ff0400 #404040 0;
#X obj 370 1917 r refesh;
#X obj 397 1952 cnv 10 10 10 empty empty empty 20 12 0 12 #0400ff #404040 0;
#X obj 357 1982 cnv 10 10 10 empty empty empty 20 12 0 12 #0400ff #404040 0;
#X obj 357 2056 cnv 10 10 10 empty empty empty 20 12 0 12 #0400ff #404040 0;
#X obj 712 1938 t a a;
#X obj 711 2053 tabwrite;
#X obj 826 1949 r preset_address;
#X obj 622 1914 r save_bang;
#X msg 826 1973 set \$1;
#X obj 622 1938 t b b b;
#X obj 693 2004 f;
#X obj 971 2004 tabread;
#X floatatom 971 2028 5 0 0 0 - - - 0;
#X obj 1009 1947 r preset_address;
#X msg 1009 1971 set \$1;
#X obj 622 1969 bng 19 250 50 0 empty empty empty 0 -10 0 12 #fcfcfc #000000 #000000;
#X obj 831 2003 bng 19 250 50 0 empty empty empty 0 -10 0 12 #fcfcfc #000000 #000000;
#X obj 768 1994 bng 19 250 50 0 empty empty empty 0 -10 0 12 #fcfcfc #000000 #000000;
#X obj 795 2036 cnv 10 10 10 empty empty empty 20 12 0 12 #ff0400 #404040 0;
#X obj 889 1918 cnv 10 10 10 empty empty empty 20 12 0 12 #ff0400 #404040 0;
#X obj 970 1917 r refesh;
#X obj 997 1952 cnv 10 10 10 empty empty empty 20 12 0 12 #0400ff #404040 0;
#X obj 957 1982 cnv 10 10 10 empty empty empty 20 12 0 12 #0400ff #404040 0;
#X obj 957 2056 cnv 10 10 10 empty empty empty 20 12 0 12 #0400ff #404040 0;
#X obj 112 1914 r \$0-chord_gain_interface_s;
#X obj 112 1962 s chord_gain;
#X msg 370 1978 23;
#X msg 166 2031 23;
#X msg 970 1978 24;
#X msg 766 2031 24;
#X obj 712 1914 r \$0-bass_gain_interface_s;
#X obj 712 1962 s bass_gain;
#X obj 1288 1021 t a a;
#X obj 1287 1136 tabwrite;
#X obj 1402 1032 r preset_address;
#X obj 1198 997 r save_bang;
#X msg 1402 1056 set \$1;
#X obj 1198 1021 t b b b;
#X obj 1269 1087 f;
#X obj 1547 1087 tabread;
#X floatatom 1547 1111 5 0 0 0 - - - 0;
#X obj 1585 1030 r preset_address;
#X msg 1585 1054 set \$1;
#X obj 1198 1052 bng 19 250 50 0 empty empty empty 0 -10 0 12 #fcfcfc #000000 #000000;
#X obj 1407 1086 bng 19 250 50 0 empty empty empty 0 -10 0 12 #fcfcfc #000000 #000000;
#X obj 1344 1077 bng 19 250 50 0 empty empty empty 0 -10 0 12 #fcfcfc #000000 #000000;
#X obj 1371 1119 cnv 10 10 10 empty empty empty 20 12 0 12 #ff0400 #404040 0;
#X obj 1546 1000 r refesh;
#X obj 1573 1035 cnv 10 10 10 empty empty empty 20 12 0 12 #0400ff #404040 0;
#X obj 1533 1065 cnv 10 10 10 empty empty empty 20 12 0 12 #0400ff #404040 0;
#X obj 1533 1139 cnv 10 10 10 empty empty empty 20 12 0 12 #0400ff #404040 0;
#X obj 1288 1211 t a a;
#X obj 1287 1326 tabwrite;
#X obj 1402 1222 r preset_address;
#X obj 1198 1187 r save_bang;
#X msg 1402 1246 set \$1;
#X obj 1198 1211 t b b b;
#X obj 1269 1277 f;
#X obj 1547 1277 tabread;
#X floatatom 1547 1301 5 0 0 0 - - - 0;
#X obj 1585 1220 r preset_address;
#X msg 1585 1244 set \$1;
#X obj 1198 1242 bng 19 250 50 0 empty empty empty 0 -10 0 12 #fcfcfc #000000 #000000;
#X obj 1407 1276 bng 19 250 50 0 empty empty empty 0 -10 0 12 #fcfcfc #000000 #000000;
#X obj 1344 1267 bng 19 250 50 0 empty empty empty 0 -10 0 12 #fcfcfc #000000 #000000;
#X obj 1371 1309 cnv 10 10 10 empty empty empty 20 12 0 12 #ff0400 #404040 0;
#X obj 1465 1191 cnv 10 10 10 empty empty empty 20 12 0 12 #ff0400 #404040 0;
#X obj 1546 1190 r refesh;
#X obj 1573 1225 cnv 10 10 10 empty empty empty 20 12 0 12 #0400ff #404040 0;
#X obj 1533 1255 cnv 10 10 10 empty empty empty 20 12 0 12 #0400ff #404040 0;
#X obj 1533 1329 cnv 10 10 10 empty empty empty 20 12 0 12 #0400ff #404040 0;
#X obj 1288 1401 t a a;
#X obj 1287 1516 tabwrite;
#X obj 1402 1412 r preset_address;
#X obj 1198 1377 r save_bang;
#X msg 1402 1436 set \$1;
#X obj 1198 1401 t b b b;
#X obj 1269 1467 f;
#X obj 1547 1467 tabread;
#X floatatom 1547 1491 5 0 0 0 - - - 0;
#X obj 1585 1410 r preset_address;
#X msg 1585 1434 set \$1;
#X obj 1198 1432 bng 19 250 50 0 empty empty empty 0 -10 0 12 #fcfcfc #000000 #000000;
#X obj 1407 1466 bng 19 250 50 0 empty empty empty 0 -10 0 12 #fcfcfc #000000 #000000;
#X obj 1344 1457 bng 19 250 50 0 empty empty empty 0 -10 0 12 #fcfcfc #000000 #000000;
#X obj 1371 1499 cnv 10 10 10 empty empty empty 20 12 0 12 #ff0400 #404040 0;
#X obj 1465 1381 cnv 10 10 10 empty empty empty 20 12 0 12 #ff0400 #404040 0;
#X obj 1546 1380 r refesh;
#X obj 1573 1415 cnv 10 10 10 empty empty empty 20 12 0 12 #0400ff #404040 0;
#X obj 1533 1445 cnv 10 10 10 empty empty empty 20 12 0 12 #0400ff #404040 0;
#X obj 1533 1519 cnv 10 10 10 empty empty empty 20 12 0 12 #0400ff #404040 0;
#X msg 1546 1061 25;
#X msg 1342 1114 25;
#X msg 1342 1304 26;
#X msg 1546 1251 26;
#X msg 1342 1494 27;
#X msg 1546 1441 27;
#X obj 1288 997 r \$0-drum_freq_interface_s;
#X obj 1288 1045 s drum_freq;
#X obj 1288 1187 r \$0-drum_drywet_interface_s;
#X obj 1288 1235 s drum_drywet;
#X obj 1288 1377 r \$0-drum_gain_interface_s;
#X obj 1288 1425 s drum_gain;
#X obj 1288 1591 t a a;
#X obj 1287 1706 tabwrite;
#X obj 1402 1602 r preset_address;
#X obj 1198 1567 r save_bang;
#X msg 1402 1626 set \$1;
#X obj 1198 1591 t b b b;
#X obj 1269 1657 f;
#X obj 1547 1657 tabread;
#X floatatom 1547 1681 5 0 0 0 - - - 0;
#X obj 1585 1600 r preset_address;
#X msg 1585 1624 set \$1;
#X obj 1198 1622 bng 19 250 50 0 empty empty empty 0 -10 0 12 #fcfcfc #000000 #000000;
#X obj 1407 1656 bng 19 250 50 0 empty empty empty 0 -10 0 12 #fcfcfc #000000 #000000;
#X obj 1344 1647 bng 19 250 50 0 empty empty empty 0 -10 0 12 #fcfcfc #000000 #000000;
#X obj 1371 1689 cnv 10 10 10 empty empty empty 20 12 0 12 #ff0400 #404040 0;
#X obj 1465 1571 cnv 10 10 10 empty empty empty 20 12 0 12 #ff0400 #404040 0;
#X obj 1546 1570 r refesh;
#X obj 1573 1605 cnv 10 10 10 empty empty empty 20 12 0 12 #0400ff #404040 0;
#X obj 1533 1635 cnv 10 10 10 empty empty empty 20 12 0 12 #0400ff #404040 0;
#X obj 1533 1709 cnv 10 10 10 empty empty empty 20 12 0 12 #0400ff #404040 0;
#X msg 1342 1684 28;
#X msg 1546 1631 28;
#X obj 1288 1567 r \$0-drum_speed_interface_s;
#X obj 1288 1615 s drum_speed;
#X obj 1288 1761 t a a;
#X obj 1287 1876 tabwrite;
#X obj 1402 1772 r preset_address;
#X obj 1198 1737 r save_bang;
#X msg 1402 1796 set \$1;
#X obj 1198 1761 t b b b;
#X obj 1269 1827 f;
#X obj 1547 1827 tabread;
#X floatatom 1547 1851 5 0 0 0 - - - 0;
#X obj 1585 1770 r preset_address;
#X msg 1585 1794 set \$1;
#X obj 1198 1792 bng 19 250 50 0 empty empty empty 0 -10 0 12 #fcfcfc #000000 #000000;
#X obj 1407 1826 bng 19 250 50 0 empty empty empty 0 -10 0 12 #fcfcfc #000000 #000000;
#X obj 1344 1817 bng 19 250 50 0 empty empty empty 0 -10 0 12 #fcfcfc #000000 #000000;
#X obj 1371 1859 cnv 10 10 10 empty empty empty 20 12 0 12 #ff0400 #404040 0;
#X obj 1465 1741 cnv 10 10 10 empty empty empty 20 12 0 12 #ff0400 #404040 0;
#X obj 1546 1740 r refesh;
#X obj 1573 1775 cnv 10 10 10 empty empty empty 20 12 0 12 #0400ff #404040 0;
#X obj 1533 1805 cnv 10 10 10 empty empty empty 20 12 0 12 #0400ff #404040 0;
#X obj 1533 1879 cnv 10 10 10 empty empty empty 20 12 0 12 #0400ff #404040 0;
#X obj 1288 1737 r \$0-drum_duration_interface_s;
#X obj 1288 1785 s drum_duration;
#X msg 1546 1801 29;
#X msg 1342 1854 29;
#X obj 1288 1941 t a a;
#X obj 1287 2056 tabwrite;
#X obj 1402 1952 r preset_address;
#X obj 1198 1917 r save_bang;
#X msg 1402 1976 set \$1;
#X obj 1198 1941 t b b b;
#X obj 1269 2007 f;
#X obj 1547 2007 tabread;
#X floatatom 1547 2031 5 0 0 0 - - - 0;
#X obj 1585 1950 r preset_address;
#X msg 1585 1974 set \$1;
#X obj 1198 1972 bng 19 250 50 0 empty empty empty 0 -10 0 12 #fcfcfc #000000 #000000;
#X obj 1407 2006 bng 19 250 50 0 empty empty empty 0 -10 0 12 #fcfcfc #000000 #000000;
#X obj 1344 1997 bng 19 250 50 0 empty empty empty 0 -10 0 12 #fcfcfc #000000 #000000;
#X obj 1371 2039 cnv 10 10 10 empty empty empty 20 12 0 12 #ff0400 #404040 0;
#X obj 1465 1921 cnv 10 10 10 empty empty empty 20 12 0 12 #ff0400 #404040 0;
#X obj 1546 1920 r refesh;
#X obj 1573 1955 cnv 10 10 10 empty empty empty 20 12 0 12 #0400ff #404040 0;
#X obj 1533 1985 cnv 10 10 10 empty empty empty 20 12 0 12 #0400ff #404040 0;
#X obj 1533 2059 cnv 10 10 10 empty empty empty 20 12 0 12 #0400ff #404040 0;
#X obj 1288 2111 t a a;
#X obj 1287 2226 tabwrite;
#X obj 1402 2122 r preset_address;
#X obj 1198 2087 r save_bang;
#X msg 1402 2146 set \$1;
#X obj 1198 2111 t b b b;
#X obj 1269 2177 f;
#X obj 1547 2177 tabread;
#X floatatom 1547 2201 5 0 0 0 - - - 0;
#X obj 1585 2120 r preset_address;
#X msg 1585 2144 set \$1;
#X obj 1198 2142 bng 19 250 50 0 empty empty empty 0 -10 0 12 #fcfcfc #000000 #000000;
#X obj 1407 2176 bng 19 250 50 0 empty empty empty 0 -10 0 12 #fcfcfc #000000 #000000;
#X obj 1344 2167 bng 19 250 50 0 empty empty empty 0 -10 0 12 #fcfcfc #000000 #000000;
#X obj 1371 2209 cnv 10 10 10 empty empty empty 20 12 0 12 #ff0400 #404040 0;
#X obj 1465 2091 cnv 10 10 10 empty empty empty 20 12 0 12 #ff0400 #404040 0;
#X obj 1546 2090 r refesh;
#X obj 1573 2125 cnv 10 10 10 empty empty empty 20 12 0 12 #0400ff #404040 0;
#X obj 1533 2155 cnv 10 10 10 empty empty empty 20 12 0 12 #0400ff #404040 0;
#X obj 1533 2229 cnv 10 10 10 empty empty empty 20 12 0 12 #0400ff #404040 0;
#X obj 1288 1917 r \$0-reverse_automate_interface_s;
#X obj 1288 1965 s drum_reverse_aut;
#X obj 1547 2055 s \$0-reverse_automate_interface_r;
#X msg 1342 2034 30;
#X msg 1342 2204 31;
#X msg 1546 1981 30;
#X msg 1546 2151 31;
#X obj 1288 2135 s drum_repeat_aut;
#X obj 1288 2291 t a a;
#X obj 1287 2406 tabwrite;
#X obj 1402 2302 r preset_address;
#X obj 1198 2267 r save_bang;
#X msg 1402 2326 set \$1;
#X obj 1198 2291 t b b b;
#X obj 1269 2357 f;
#X obj 1547 2357 tabread;
#X floatatom 1547 2381 5 0 0 0 - - - 0;
#X obj 1585 2300 r preset_address;
#X msg 1585 2324 set \$1;
#X obj 1198 2322 bng 19 250 50 0 empty empty empty 0 -10 0 12 #fcfcfc #000000 #000000;
#X obj 1407 2356 bng 19 250 50 0 empty empty empty 0 -10 0 12 #fcfcfc #000000 #000000;
#X obj 1344 2347 bng 19 250 50 0 empty empty empty 0 -10 0 12 #fcfcfc #000000 #000000;
#X obj 1371 2389 cnv 10 10 10 empty empty empty 20 12 0 12 #ff0400 #404040 0;
#X obj 1465 2271 cnv 10 10 10 empty empty empty 20 12 0 12 #ff0400 #404040 0;
#X obj 1546 2270 r refesh;
#X obj 1573 2305 cnv 10 10 10 empty empty empty 20 12 0 12 #0400ff #404040 0;
#X obj 1533 2335 cnv 10 10 10 empty empty empty 20 12 0 12 #0400ff #404040 0;
#X obj 1533 2409 cnv 10 10 10 empty empty empty 20 12 0 12 #0400ff #404040 0;
#X obj 1288 2461 t a a;
#X obj 1287 2576 tabwrite;
#X obj 1402 2472 r preset_address;
#X obj 1198 2437 r save_bang;
#X msg 1402 2496 set \$1;
#X obj 1198 2461 t b b b;
#X obj 1269 2527 f;
#X obj 1547 2527 tabread;
#X floatatom 1547 2551 5 0 0 0 - - - 0;
#X obj 1585 2470 r preset_address;
#X msg 1585 2494 set \$1;
#X obj 1198 2492 bng 19 250 50 0 empty empty empty 0 -10 0 12 #fcfcfc #000000 #000000;
#X obj 1407 2526 bng 19 250 50 0 empty empty empty 0 -10 0 12 #fcfcfc #000000 #000000;
#X obj 1344 2517 bng 19 250 50 0 empty empty empty 0 -10 0 12 #fcfcfc #000000 #000000;
#X obj 1371 2559 cnv 10 10 10 empty empty empty 20 12 0 12 #ff0400 #404040 0;
#X obj 1465 2441 cnv 10 10 10 empty empty empty 20 12 0 12 #ff0400 #404040 0;
#X obj 1546 2440 r refesh;
#X obj 1573 2475 cnv 10 10 10 empty empty empty 20 12 0 12 #0400ff #404040 0;
#X obj 1533 2505 cnv 10 10 10 empty empty empty 20 12 0 12 #0400ff #404040 0;
#X obj 1533 2579 cnv 10 10 10 empty empty empty 20 12 0 12 #0400ff #404040 0;
#X obj 1288 2267 r \$0-speed_automate_interface_s;
#X obj 1288 2315 s drum_speed_aut;
#X obj 1547 2405 s \$0-speed_automate_interface_r;
#X msg 1342 2384 32;
#X msg 1546 2331 32;
#X msg 1342 2554 33;
#X msg 1546 2501 33;
#X obj 1288 2485 s drum_duration_aut;
#X obj 1335 2112 bng 19 250 50 0 empty empty empty 0 -10 0 12 #fcfcfc #000000 #000000;
#X obj 1288 2087 r \$0-repeat_automate_interface_s;
#X obj 1288 2437 r \$0-duration_automate_interface_s;
#X obj 1547 2225 s \$0-repeat_automate_interface_r;
#X obj 1547 2575 s \$0-duration_automate_interface_r;
#X floatatom 1367 963 5 0 0 0 - - - 0;
#X obj 1547 1135 s \$0-drum_freq_interface_r;
#X obj 1547 1325 s \$0-drum_drywet_interface_r;
#X obj 1547 1515 s \$0-drum_gain_interface_r;
#X obj 971 1132 s \$0-bass_attack_interface_r;
#X obj 971 1322 s \$0-bass_decay_interface_r;
#X obj 971 1502 s \$0-bass_sustain_interface_r;
#X obj 971 1672 s \$0-bass_release_interface_r;
#X obj 971 1862 s \$0-bass_modulation_interface_r;
#X obj 971 2052 s \$0-bass_gain_interface_r;
#X obj 1547 1875 s \$0-drum_duration_interface_r;
#X obj 1547 1705 s \$0-drum_speed_interface_r;
#X obj 112 2138 t a a;
#X obj 111 2253 tabwrite;
#X obj 226 2149 r preset_address;
#X obj 22 2114 r save_bang;
#X msg 226 2173 set \$1;
#X obj 22 2138 t b b b;
#X obj 93 2204 f;
#X obj 371 2204 tabread;
#X floatatom 371 2228 5 0 0 0 - - - 0;
#X obj 409 2147 r preset_address;
#X msg 409 2171 set \$1;
#X obj 22 2169 bng 19 250 50 0 empty empty empty 0 -10 0 12 #fcfcfc #000000 #000000;
#X obj 231 2203 bng 19 250 50 0 empty empty empty 0 -10 0 12 #fcfcfc #000000 #000000;
#X obj 168 2194 bng 19 250 50 0 empty empty empty 0 -10 0 12 #fcfcfc #000000 #000000;
#X obj 195 2236 cnv 10 10 10 empty empty empty 20 12 0 12 #ff0400 #404040 0;
#X obj 289 2118 cnv 10 10 10 empty empty empty 20 12 0 12 #ff0400 #404040 0;
#X obj 370 2117 r refesh;
#X obj 397 2152 cnv 10 10 10 empty empty empty 20 12 0 12 #0400ff #404040 0;
#X obj 357 2182 cnv 10 10 10 empty empty empty 20 12 0 12 #0400ff #404040 0;
#X obj 357 2256 cnv 10 10 10 empty empty empty 20 12 0 12 #0400ff #404040 0;
#X obj 112 2162 s chord_change_toggle;
#X obj 112 2114 r \$0-chord_change_interface_s;
#X obj 371 2252 s \$0-chord_change_interface_r;
#X obj 371 1862 s \$0-chord_modulation_interface_r;
#X obj 371 2052 s \$0-chord_gain_interface_r;
#X obj 371 1672 s \$0-chord_release_interface_r;
#X obj 371 1502 s \$0-chord_sustain_interface_r;
#X obj 371 1132 s \$0-chord_attack_interface_r;
#X obj 371 752 s chord_rhythm_interface_r;
#X obj 371 562 s chord_type_interface_r;
#X msg 166 2231 34;
#X msg 370 2178 34;
#X obj 112 2328 t a a;
#X obj 111 2443 tabwrite;
#X obj 226 2339 r preset_address;
#X obj 22 2304 r save_bang;
#X msg 226 2363 set \$1;
#X obj 22 2328 t b b b;
#X obj 93 2394 f;
#X obj 371 2394 tabread;
#X floatatom 371 2418 5 0 0 0 - - - 0;
#X obj 409 2337 r preset_address;
#X msg 409 2361 set \$1;
#X obj 22 2359 bng 19 250 50 0 empty empty empty 0 -10 0 12 #fcfcfc #000000 #000000;
#X obj 231 2393 bng 19 250 50 0 empty empty empty 0 -10 0 12 #fcfcfc #000000 #000000;
#X obj 168 2384 bng 19 250 50 0 empty empty empty 0 -10 0 12 #fcfcfc #000000 #000000;
#X obj 195 2426 cnv 10 10 10 empty empty empty 20 12 0 12 #ff0400 #404040 0;
#X obj 289 2308 cnv 10 10 10 empty empty empty 20 12 0 12 #ff0400 #404040 0;
#X obj 370 2307 r refesh;
#X obj 397 2342 cnv 10 10 10 empty empty empty 20 12 0 12 #0400ff #404040 0;
#X obj 357 2372 cnv 10 10 10 empty empty empty 20 12 0 12 #0400ff #404040 0;
#X obj 357 2446 cnv 10 10 10 empty empty empty 20 12 0 12 #0400ff #404040 0;
#X msg 166 2421 35;
#X msg 370 2368 35;
#X obj 112 2304 r tonart_interface_s;
#X obj 371 2442 s tonart_interface_r;
#X obj 112 2352 s tonart_mode;
#X obj 623 656 cnv 50 500 50 empty empty number\ 7\ free 20 30 0 40 #c7c6ff #404040 0;
#X connect 1 0 0 0;
#X connect 1 1 8 1;
#X connect 1 1 16 0;
#X connect 3 0 5 0;
#X connect 3 0 15 0;
#X connect 4 0 6 0;
#X connect 5 0 2 0;
#X connect 6 0 14 0;
#X connect 6 1 8 0;
#X connect 6 2 7 0;
#X connect 7 0 2 1;
#X connect 8 0 2 0;
#X connect 9 0 11 0;
#X connect 10 0 9 0;
#X connect 11 0 134 0;
#X connect 12 0 13 0;
#X connect 13 0 9 0;
#X connect 17 0 1 0;
#X connect 20 0 10 0;
#X connect 22 0 41 0;
#X connect 22 1 28 1;
#X connect 22 1 35 0;
#X connect 24 0 26 0;
#X connect 24 0 34 0;
#X connect 25 0 27 0;
#X connect 26 0 23 0;
#X connect 27 0 33 0;
#X connect 27 1 28 0;
#X connect 27 2 138 0;
#X connect 28 0 23 0;
#X connect 29 0 30 0;
#X connect 30 0 136 0;
#X connect 31 0 32 0;
#X connect 32 0 29 0;
#X connect 38 0 140 0;
#X connect 40 0 22 0;
#X connect 42 0 61 0;
#X connect 42 1 48 1;
#X connect 42 1 55 0;
#X connect 44 0 46 0;
#X connect 44 0 54 0;
#X connect 45 0 47 0;
#X connect 46 0 43 0;
#X connect 47 0 53 0;
#X connect 47 1 48 0;
#X connect 47 2 62 0;
#X connect 48 0 43 0;
#X connect 49 0 50 0;
#X connect 50 0 135 0;
#X connect 51 0 52 0;
#X connect 52 0 49 0;
#X connect 58 0 63 0;
#X connect 60 0 42 0;
#X connect 62 0 43 1;
#X connect 63 0 49 0;
#X connect 64 0 83 0;
#X connect 64 1 70 1;
#X connect 64 1 77 0;
#X connect 66 0 68 0;
#X connect 66 0 76 0;
#X connect 67 0 69 0;
#X connect 68 0 65 0;
#X connect 69 0 75 0;
#X connect 69 1 70 0;
#X connect 69 2 84 0;
#X connect 70 0 65 0;
#X connect 71 0 72 0;
#X connect 72 0 825 0;
#X connect 73 0 74 0;
#X connect 74 0 71 0;
#X connect 80 0 85 0;
#X connect 82 0 64 0;
#X connect 84 0 65 1;
#X connect 85 0 71 0;
#X connect 86 0 105 0;
#X connect 86 1 92 1;
#X connect 86 1 99 0;
#X connect 88 0 90 0;
#X connect 88 0 98 0;
#X connect 89 0 91 0;
#X connect 90 0 87 0;
#X connect 91 0 97 0;
#X connect 91 1 92 0;
#X connect 91 2 106 0;
#X connect 92 0 87 0;
#X connect 93 0 94 0;
#X connect 94 0 824 0;
#X connect 95 0 96 0;
#X connect 96 0 93 0;
#X connect 102 0 107 0;
#X connect 104 0 86 0;
#X connect 106 0 87 1;
#X connect 107 0 93 0;
#X connect 113 0 133 0;
#X connect 113 1 119 1;
#X connect 113 1 126 0;
#X connect 115 0 117 0;
#X connect 115 0 125 0;
#X connect 116 0 118 0;
#X connect 117 0 114 0;
#X connect 118 0 124 0;
#X connect 118 1 119 0;
#X connect 118 2 139 0;
#X connect 119 0 114 0;
#X connect 120 0 121 0;
#X connect 121 0 137 0;
#X connect 122 0 123 0;
#X connect 123 0 120 0;
#X connect 129 0 141 0;
#X connect 132 0 113 0;
#X connect 138 0 23 1;
#X connect 139 0 114 1;
#X connect 140 0 29 0;
#X connect 141 0 120 0;
#X connect 142 0 165 0;
#X connect 142 1 148 1;
#X connect 142 1 155 0;
#X connect 144 0 146 0;
#X connect 144 0 154 0;
#X connect 145 0 147 0;
#X connect 146 0 143 0;
#X connect 147 0 153 0;
#X connect 147 1 148 0;
#X connect 147 2 161 0;
#X connect 148 0 143 0;
#X connect 149 0 150 0;
#X connect 150 0 163 0;
#X connect 151 0 152 0;
#X connect 152 0 149 0;
#X connect 158 0 162 0;
#X connect 161 0 143 1;
#X connect 162 0 149 0;
#X connect 164 0 142 0;
#X connect 173 0 197 0;
#X connect 173 1 179 1;
#X connect 173 1 186 0;
#X connect 175 0 177 0;
#X connect 175 0 185 0;
#X connect 176 0 178 0;
#X connect 177 0 174 0;
#X connect 178 0 184 0;
#X connect 178 1 179 0;
#X connect 178 2 195 0;
#X connect 179 0 174 0;
#X connect 180 0 181 0;
#X connect 181 0 194 0;
#X connect 182 0 183 0;
#X connect 183 0 180 0;
#X connect 189 0 196 0;
#X connect 193 0 173 0;
#X connect 195 0 174 1;
#X connect 196 0 180 0;
#X connect 198 0 220 0;
#X connect 198 1 204 1;
#X connect 198 1 211 0;
#X connect 200 0 202 0;
#X connect 200 0 210 0;
#X connect 201 0 203 0;
#X connect 202 0 199 0;
#X connect 203 0 209 0;
#X connect 203 1 204 0;
#X connect 203 2 221 0;
#X connect 204 0 199 0;
#X connect 205 0 206 0;
#X connect 206 0 219 0;
#X connect 207 0 208 0;
#X connect 208 0 205 0;
#X connect 214 0 222 0;
#X connect 218 0 198 0;
#X connect 221 0 199 1;
#X connect 222 0 205 0;
#X connect 223 0 244 0;
#X connect 223 1 229 1;
#X connect 223 1 236 0;
#X connect 225 0 227 0;
#X connect 225 0 235 0;
#X connect 226 0 228 0;
#X connect 227 0 224 0;
#X connect 228 0 234 0;
#X connect 228 1 229 0;
#X connect 228 2 245 0;
#X connect 229 0 224 0;
#X connect 230 0 231 0;
#X connect 231 0 247 0;
#X connect 232 0 233 0;
#X connect 233 0 230 0;
#X connect 239 0 246 0;
#X connect 243 0 223 0;
#X connect 245 0 224 1;
#X connect 246 0 230 0;
#X connect 248 0 269 0;
#X connect 248 1 254 1;
#X connect 248 1 261 0;
#X connect 250 0 252 0;
#X connect 250 0 260 0;
#X connect 251 0 253 0;
#X connect 252 0 249 0;
#X connect 253 0 259 0;
#X connect 253 1 254 0;
#X connect 253 2 272 0;
#X connect 254 0 249 0;
#X connect 255 0 256 0;
#X connect 256 0 270 0;
#X connect 257 0 258 0;
#X connect 258 0 255 0;
#X connect 264 0 271 0;
#X connect 268 0 248 0;
#X connect 271 0 255 0;
#X connect 272 0 249 1;
#X connect 274 0 295 0;
#X connect 274 1 280 1;
#X connect 274 1 287 0;
#X connect 276 0 278 0;
#X connect 276 0 286 0;
#X connect 277 0 279 0;
#X connect 278 0 275 0;
#X connect 279 0 285 0;
#X connect 279 1 280 0;
#X connect 279 2 298 0;
#X connect 280 0 275 0;
#X connect 281 0 282 0;
#X connect 282 0 823 0;
#X connect 283 0 284 0;
#X connect 284 0 281 0;
#X connect 290 0 297 0;
#X connect 294 0 274 0;
#X connect 297 0 281 0;
#X connect 298 0 275 1;
#X connect 299 0 323 0;
#X connect 299 1 305 1;
#X connect 299 1 312 0;
#X connect 301 0 303 0;
#X connect 301 0 311 0;
#X connect 302 0 304 0;
#X connect 303 0 300 0;
#X connect 304 0 310 0;
#X connect 304 1 305 0;
#X connect 304 2 322 0;
#X connect 305 0 300 0;
#X connect 306 0 307 0;
#X connect 307 0 320 0;
#X connect 308 0 309 0;
#X connect 309 0 306 0;
#X connect 315 0 321 0;
#X connect 319 0 299 0;
#X connect 321 0 306 0;
#X connect 322 0 300 1;
#X connect 324 0 345 0;
#X connect 324 1 330 1;
#X connect 324 1 337 0;
#X connect 326 0 328 0;
#X connect 326 0 336 0;
#X connect 327 0 329 0;
#X connect 328 0 325 0;
#X connect 329 0 335 0;
#X connect 329 1 330 0;
#X connect 329 2 347 0;
#X connect 330 0 325 0;
#X connect 331 0 332 0;
#X connect 332 0 822 0;
#X connect 333 0 334 0;
#X connect 334 0 331 0;
#X connect 340 0 346 0;
#X connect 344 0 324 0;
#X connect 346 0 331 0;
#X connect 347 0 325 1;
#X connect 348 0 371 0;
#X connect 348 1 354 1;
#X connect 348 1 361 0;
#X connect 350 0 352 0;
#X connect 350 0 360 0;
#X connect 351 0 353 0;
#X connect 352 0 349 0;
#X connect 353 0 359 0;
#X connect 353 1 354 0;
#X connect 353 2 368 0;
#X connect 354 0 349 0;
#X connect 355 0 356 0;
#X connect 356 0 821 0;
#X connect 357 0 358 0;
#X connect 358 0 355 0;
#X connect 364 0 369 0;
#X connect 368 0 349 1;
#X connect 369 0 355 0;
#X connect 370 0 348 0;
#X connect 372 0 393 0;
#X connect 372 1 378 1;
#X connect 372 1 385 0;
#X connect 374 0 376 0;
#X connect 374 0 384 0;
#X connect 375 0 377 0;
#X connect 376 0 373 0;
#X connect 377 0 383 0;
#X connect 377 1 378 0;
#X connect 377 2 394 0;
#X connect 378 0 373 0;
#X connect 379 0 380 0;
#X connect 380 0 819 0;
#X connect 381 0 382 0;
#X connect 382 0 379 0;
#X connect 388 0 395 0;
#X connect 392 0 372 0;
#X connect 394 0 373 1;
#X connect 395 0 379 0;
#X connect 396 0 497 0;
#X connect 396 1 402 1;
#X connect 396 1 409 0;
#X connect 398 0 400 0;
#X connect 398 0 408 0;
#X connect 399 0 401 0;
#X connect 400 0 397 0;
#X connect 401 0 407 0;
#X connect 401 1 402 0;
#X connect 401 2 499 0;
#X connect 402 0 397 0;
#X connect 403 0 404 0;
#X connect 404 0 788 0;
#X connect 405 0 406 0;
#X connect 406 0 403 0;
#X connect 412 0 498 0;
#X connect 416 0 503 0;
#X connect 416 1 422 1;
#X connect 416 1 429 0;
#X connect 418 0 420 0;
#X connect 418 0 428 0;
#X connect 419 0 421 0;
#X connect 420 0 417 0;
#X connect 421 0 427 0;
#X connect 421 1 422 0;
#X connect 421 2 500 0;
#X connect 422 0 417 0;
#X connect 423 0 424 0;
#X connect 424 0 789 0;
#X connect 425 0 426 0;
#X connect 426 0 423 0;
#X connect 432 0 501 0;
#X connect 436 0 507 0;
#X connect 436 1 442 1;
#X connect 436 1 449 0;
#X connect 438 0 440 0;
#X connect 438 0 448 0;
#X connect 439 0 441 0;
#X connect 440 0 437 0;
#X connect 441 0 447 0;
#X connect 441 1 442 0;
#X connect 441 2 504 0;
#X connect 442 0 437 0;
#X connect 443 0 444 0;
#X connect 444 0 790 0;
#X connect 445 0 446 0;
#X connect 446 0 443 0;
#X connect 452 0 505 0;
#X connect 456 0 511 0;
#X connect 456 1 462 1;
#X connect 456 1 469 0;
#X connect 458 0 460 0;
#X connect 458 0 468 0;
#X connect 459 0 461 0;
#X connect 460 0 457 0;
#X connect 461 0 467 0;
#X connect 461 1 462 0;
#X connect 461 2 510 0;
#X connect 462 0 457 0;
#X connect 463 0 464 0;
#X connect 464 0 791 0;
#X connect 465 0 466 0;
#X connect 466 0 463 0;
#X connect 472 0 509 0;
#X connect 476 0 512 0;
#X connect 476 1 482 1;
#X connect 476 1 489 0;
#X connect 478 0 480 0;
#X connect 478 0 488 0;
#X connect 479 0 481 0;
#X connect 480 0 477 0;
#X connect 481 0 487 0;
#X connect 481 1 482 0;
#X connect 481 2 514 0;
#X connect 482 0 477 0;
#X connect 483 0 484 0;
#X connect 484 0 792 0;
#X connect 485 0 486 0;
#X connect 486 0 483 0;
#X connect 492 0 515 0;
#X connect 496 0 396 0;
#X connect 498 0 403 0;
#X connect 499 0 397 1;
#X connect 500 0 417 1;
#X connect 501 0 423 0;
#X connect 502 0 416 0;
#X connect 504 0 437 1;
#X connect 505 0 443 0;
#X connect 506 0 436 0;
#X connect 508 0 456 0;
#X connect 509 0 463 0;
#X connect 510 0 457 1;
#X connect 513 0 476 0;
#X connect 514 0 477 1;
#X connect 515 0 483 0;
#X connect 516 0 557 0;
#X connect 516 1 522 1;
#X connect 516 1 529 0;
#X connect 518 0 520 0;
#X connect 518 0 528 0;
#X connect 519 0 521 0;
#X connect 520 0 517 0;
#X connect 521 0 527 0;
#X connect 521 1 522 0;
#X connect 521 2 559 0;
#X connect 522 0 517 0;
#X connect 523 0 524 0;
#X connect 524 0 820 0;
#X connect 525 0 526 0;
#X connect 526 0 523 0;
#X connect 532 0 558 0;
#X connect 536 0 563 0;
#X connect 536 1 542 1;
#X connect 536 1 549 0;
#X connect 538 0 540 0;
#X connect 538 0 548 0;
#X connect 539 0 541 0;
#X connect 540 0 537 0;
#X connect 541 0 547 0;
#X connect 541 1 542 0;
#X connect 541 2 561 0;
#X connect 542 0 537 0;
#X connect 543 0 544 0;
#X connect 544 0 793 0;
#X connect 545 0 546 0;
#X connect 546 0 543 0;
#X connect 552 0 560 0;
#X connect 556 0 516 0;
#X connect 558 0 523 0;
#X connect 559 0 517 1;
#X connect 560 0 543 0;
#X connect 561 0 537 1;
#X connect 562 0 536 0;
#X connect 564 0 630 0;
#X connect 564 1 570 1;
#X connect 564 1 577 0;
#X connect 566 0 568 0;
#X connect 566 0 576 0;
#X connect 567 0 569 0;
#X connect 568 0 565 0;
#X connect 569 0 575 0;
#X connect 569 1 570 0;
#X connect 569 2 624 0;
#X connect 570 0 565 0;
#X connect 571 0 572 0;
#X connect 572 0 785 0;
#X connect 573 0 574 0;
#X connect 574 0 571 0;
#X connect 579 0 623 0;
#X connect 583 0 632 0;
#X connect 583 1 589 1;
#X connect 583 1 596 0;
#X connect 585 0 587 0;
#X connect 585 0 595 0;
#X connect 586 0 588 0;
#X connect 587 0 584 0;
#X connect 588 0 594 0;
#X connect 588 1 589 0;
#X connect 588 2 625 0;
#X connect 589 0 584 0;
#X connect 590 0 591 0;
#X connect 591 0 786 0;
#X connect 592 0 593 0;
#X connect 593 0 590 0;
#X connect 599 0 626 0;
#X connect 603 0 634 0;
#X connect 603 1 609 1;
#X connect 603 1 616 0;
#X connect 605 0 607 0;
#X connect 605 0 615 0;
#X connect 606 0 608 0;
#X connect 607 0 604 0;
#X connect 608 0 614 0;
#X connect 608 1 609 0;
#X connect 608 2 627 0;
#X connect 609 0 604 0;
#X connect 610 0 611 0;
#X connect 611 0 787 0;
#X connect 612 0 613 0;
#X connect 613 0 610 0;
#X connect 619 0 628 0;
#X connect 623 0 571 0;
#X connect 624 0 565 1;
#X connect 625 0 584 1;
#X connect 626 0 590 0;
#X connect 627 0 604 1;
#X connect 628 0 610 0;
#X connect 629 0 564 0;
#X connect 629 0 784 0;
#X connect 631 0 583 0;
#X connect 633 0 603 0;
#X connect 635 0 658 0;
#X connect 635 1 641 1;
#X connect 635 1 648 0;
#X connect 637 0 639 0;
#X connect 637 0 647 0;
#X connect 638 0 640 0;
#X connect 639 0 636 0;
#X connect 640 0 646 0;
#X connect 640 1 641 0;
#X connect 640 2 655 0;
#X connect 641 0 636 0;
#X connect 642 0 643 0;
#X connect 643 0 795 0;
#X connect 644 0 645 0;
#X connect 645 0 642 0;
#X connect 651 0 656 0;
#X connect 655 0 636 1;
#X connect 656 0 642 0;
#X connect 657 0 635 0;
#X connect 659 0 680 0;
#X connect 659 1 665 1;
#X connect 659 1 672 0;
#X connect 661 0 663 0;
#X connect 661 0 671 0;
#X connect 662 0 664 0;
#X connect 663 0 660 0;
#X connect 664 0 670 0;
#X connect 664 1 665 0;
#X connect 664 2 682 0;
#X connect 665 0 660 0;
#X connect 666 0 667 0;
#X connect 667 0 794 0;
#X connect 668 0 669 0;
#X connect 669 0 666 0;
#X connect 675 0 681 0;
#X connect 679 0 659 0;
#X connect 681 0 666 0;
#X connect 682 0 660 1;
#X connect 683 0 724 0;
#X connect 683 1 689 1;
#X connect 683 1 696 0;
#X connect 685 0 687 0;
#X connect 685 0 695 0;
#X connect 686 0 688 0;
#X connect 687 0 684 0;
#X connect 688 0 694 0;
#X connect 688 1 689 0;
#X connect 688 2 726 0;
#X connect 689 0 684 0;
#X connect 690 0 691 0;
#X connect 691 0 725 0;
#X connect 692 0 693 0;
#X connect 693 0 690 0;
#X connect 699 0 728 0;
#X connect 703 0 730 0;
#X connect 703 1 709 1;
#X connect 703 1 716 0;
#X connect 705 0 707 0;
#X connect 705 0 715 0;
#X connect 706 0 708 0;
#X connect 707 0 704 0;
#X connect 708 0 714 0;
#X connect 708 1 709 0;
#X connect 708 2 727 0;
#X connect 709 0 704 0;
#X connect 710 0 711 0;
#X connect 711 0 782 0;
#X connect 712 0 713 0;
#X connect 713 0 710 0;
#X connect 719 0 729 0;
#X connect 723 0 683 0;
#X connect 726 0 684 1;
#X connect 727 0 704 1;
#X connect 728 0 690 0;
#X connect 729 0 710 0;
#X connect 731 0 772 0;
#X connect 731 1 737 1;
#X connect 731 1 744 0;
#X connect 733 0 735 0;
#X connect 733 0 743 0;
#X connect 734 0 736 0;
#X connect 735 0 732 0;
#X connect 736 0 742 0;
#X connect 736 1 737 0;
#X connect 736 2 774 0;
#X connect 737 0 732 0;
#X connect 738 0 739 0;
#X connect 739 0 773 0;
#X connect 740 0 741 0;
#X connect 741 0 738 0;
#X connect 747 0 775 0;
#X connect 751 0 778 0;
#X connect 751 1 757 1;
#X connect 751 1 764 0;
#X connect 753 0 755 0;
#X connect 753 0 763 0;
#X connect 754 0 756 0;
#X connect 755 0 752 0;
#X connect 756 0 762 0;
#X connect 756 1 757 0;
#X connect 756 2 776 0;
#X connect 757 0 752 0;
#X connect 758 0 759 0;
#X connect 759 0 783 0;
#X connect 760 0 761 0;
#X connect 761 0 758 0;
#X connect 767 0 777 0;
#X connect 771 0 731 0;
#X connect 774 0 732 1;
#X connect 775 0 738 0;
#X connect 776 0 752 1;
#X connect 777 0 758 0;
#X connect 780 0 703 0;
#X connect 780 0 779 0;
#X connect 781 0 751 0;
#X connect 796 0 816 0;
#X connect 796 1 802 1;
#X connect 796 1 809 0;
#X connect 798 0 800 0;
#X connect 798 0 808 0;
#X connect 799 0 801 0;
#X connect 800 0 797 0;
#X connect 801 0 807 0;
#X connect 801 1 802 0;
#X connect 801 2 826 0;
#X connect 802 0 797 0;
#X connect 803 0 804 0;
#X connect 804 0 818 0;
#X connect 805 0 806 0;
#X connect 806 0 803 0;
#X connect 812 0 827 0;
#X connect 817 0 796 0;
#X connect 826 0 797 1;
#X connect 827 0 803 0;
#X connect 828 0 852 0;
#X connect 828 1 834 1;
#X connect 828 1 841 0;
#X connect 830 0 832 0;
#X connect 830 0 840 0;
#X connect 831 0 833 0;
#X connect 832 0 829 0;
#X connect 833 0 839 0;
#X connect 833 1 834 0;
#X connect 833 2 848 0;
#X connect 834 0 829 0;
#X connect 835 0 836 0;
#X connect 836 0 851 0;
#X connect 837 0 838 0;
#X connect 838 0 835 0;
#X connect 844 0 849 0;
#X connect 848 0 829 1;
#X connect 849 0 835 0;
#X connect 850 0 828 0;
#X restore 1188 26 pd preseting;
#X f 37;
#X obj 1192 372 r preset_interface_s;
#X obj 111 292 hradio 19 1 0 20 preset_interface_s preset_interface_r preset 20 10 0 12 #202020 #ff0400 #bbbbbb 0;
#X msg 1191 53 \; preset1 const 0 \; preset2 const 0 \; preset3 const 0 \; preset4 const 0 \; preset5 const 0 \; preset6 const 0 \; preset7 const 0 \; preset8 const 0 \; preset9 const 0 \; preset10 const 0 \; preset11 const 0 \; preset12 const 0 \; preset13 const 0 \; preset14 const 0 \; preset15 const 0 \; preset16 const 0 \; preset17 const 0 \; preset18 const 0 \; preset19 const 0 \; preset20 const 0 \;;
#N canvas 0 22 450 278 (subpatch) 0;
#X array preset9 40 float 3;
#A 0 0 0 0 0 0 0 0 0 0 0 0 0 0 0 0 0 0 0 0 0 0 0 0 0 0 0 0 0 0 0 0 0 0 0 0 0 0 0 0 0;
#X coords 0 278 1 277 200 140 0;
#X restore 1345 299 graph;
#N canvas 0 22 450 278 (subpatch) 0;
#X array preset10 40 float 3;
#A 0 0 0 0 0 0 0 0 0 0 0 0 0 0 0 0 0 0 0 0 0 0 0 0 0 0 0 0 0 0 0 0 0 0 0 0 0 0 0 0 0;
#X coords 0 278 1 277 200 140 0;
#X restore 1345 329 graph;
#N canvas 0 22 450 278 (subpatch) 0;
#X array preset11 40 float 3;
#A 0 0 0 0 0 0 0 0 0 0 0 0 0 0 0 0 0 0 0 0 0 0 0 0 0 0 0 0 0 0 0 0 0 0 0 0 0 0 0 0 0;
#X coords 0 278 1 277 200 140 0;
#X restore 1405 59 graph;
#N canvas 0 22 450 278 (subpatch) 0;
#X array preset12 40 float 3;
#A 0 0 0 0 0 0 0 0 0 0 0 0 0 0 0 0 0 0 0 0 0 0 0 0 0 0 0 0 0 0 0 0 0 0 0 0 0 0 0 0 0;
#X coords 0 278 1 277 200 140 0;
#X restore 1405 89 graph;
#N canvas 0 22 450 278 (subpatch) 0;
#X array preset13 40 float 3;
#A 0 0 0 0 0 0 0 0 0 0 0 0 0 0 0 0 0 0 0 0 0 0 0 0 0 0 0 0 0 0 0 0 0 0 0 0 0 0 0 0 0;
#X coords 0 278 1 277 200 140 0;
#X restore 1405 119 graph;
#N canvas 0 22 450 278 (subpatch) 0;
#X array preset14 40 float 3;
#A 0 0 0 0 0 0 0 0 0 0 0 0 0 0 0 0 0 0 0 0 0 0 0 0 0 0 0 0 0 0 0 0 0 0 0 0 0 0 0 0 0;
#X coords 0 278 1 277 200 140 0;
#X restore 1405 149 graph;
#N canvas 0 22 450 278 (subpatch) 0;
#X array preset15 40 float 3;
#A 0 0 0 0 0 0 0 0 0 0 0 0 0 0 0 0 0 0 0 0 0 0 0 0 0 0 0 0 0 0 0 0 0 0 0 0 0 0 0 0 0;
#X coords 0 278 1 277 200 140 0;
#X restore 1405 179 graph;
#N canvas 643 681 450 278 (subpatch) 0;
#X array preset16 40 float 3;
#A 0 0 0 0 0 0 0 0 0 0 0 0 0 0 0 0 0 0 0 0 0 0 0 0 0 0 0 0 0 0 0 0 0 0 0 0 0 0 0 0 0;
#X coords 0 278 1 277 200 140 0;
#X restore 1405 209 graph;
#N canvas 0 22 450 278 (subpatch) 0;
#X array preset17 40 float 3;
#A 0 0 0 0 0 0 0 0 0 0 0 0 0 0 0 0 0 0 0 0 0 0 0 0 0 0 0 0 0 0 0 0 0 0 0 0 0 0 0 0 0;
#X coords 0 278 1 277 200 140 0;
#X restore 1405 239 graph;
#N canvas 0 22 450 278 (subpatch) 0;
#X array preset18 40 float 3;
#A 0 0 0 0 0 0 0 0 0 0 0 0 0 0 0 0 0 0 0 0 0 0 0 0 0 0 0 0 0 0 0 0 0 0 0 0 0 0 0 0 0;
#X coords 0 278 1 277 200 140 0;
#X restore 1405 269 graph;
#N canvas 0 22 450 278 (subpatch) 0;
#X array preset19 40 float 3;
#A 0 0 0 0 0 0 0 0 0 0 0 0 0 0 0 0 0 0 0 0 0 0 0 0 0 0 0 0 0 0 0 0 0 0 0 0 0 0 0 0 0;
#X coords 0 278 1 277 200 140 0;
#X restore 1405 299 graph;
#N canvas 0 22 450 278 (subpatch) 0;
#X array preset20 40 float 3;
#A 0 0 0 0 0 0 0 0 0 0 0 0 0 0 0 0 0 0 0 0 0 0 0 0 0 0 0 0 0 0 0 0 0 0 0 0 0 0 0 0 0;
#X coords 0 278 1 277 200 140 0;
#X restore 1405 329 graph;
#N canvas 746 38 960 1027 routing_notes 0;
#X obj 46 162 inlet;
#X obj 46 799 s feed_in_31415926;
#X obj 46 773 list trim;
#X obj 46 749 list prepend net3;
#X msg 46 211 knot1 set event A1 \, knot2 set event B2 \, knot3 set event C3 \, knot4 set event D4 \, knot5 set event E5 \, knot6 set event F6 \, knot7 set event G7 \, knot8 set event H8 \,, f 22;
#X connect 0 0 4 0;
#X connect 2 0 1 0;
#X connect 3 0 2 0;
#X connect 4 0 3 0;
#X restore 705 427 pd routing_notes;
#X obj 705 403 bng 19 250 50 0 empty empty empty 0 -10 0 12 #fcfcfc #000000 #000000;
#N canvas 0 38 1728 1027 routing_knots 0;
#X obj 36 2 inlet;
#X obj 36 196 t b b, f 20;
#X obj 476 196 t b b, f 20;
#X obj 891 196 t b b, f 20;
#X obj 50 947 list trim;
#X obj 60 1017 s feed_in_31415926;
#X obj 36 56 sel 0 1 2 3 4 5 6, f 224;
#X obj 36 26 t f b;
#X obj 50 923 list prepend net3;
#X msg 85 407 knot1 set knots 1 2 3 4 5 6 7 8 \, knot2 set knots 1 2 3 4 5 6 7 8 \, knot3 set knots 1 2 3 4 5 6 7 8 \, knot4 set knots 1 2 3 4 5 6 7 8 \, knot5 set knots 1 2 3 4 5 6 7 8 \, knot6 set knots 1 2 3 4 5 6 7 8 \, knot7 set knots 1 2 3 4 5 6 7 8 \, knot8 set knots 1 2 3 4 5 6 7 8 \,, f 35;
#X msg 476 221 knot1 set probab 1 1 1 1 1 1 1 1 \, knot2 set probab 1 1 1 1 1 1 1 1 \, knot3 set probab 1 1 1 1 1 1 1 1 \, knot4 set probab 1 1 1 1 1 1 1 1 \, knot5 set probab 1 1 1 1 1 1 1 1 \, knot6 set probab 1 1 1 1 1 1 1 1 \, knot7 set probab 1 1 1 1 1 1 1 1 \, knot8 set probab 1 1 1 1 1 1 1 1 \,, f 37;
#X msg 891 221 knot1 set probab 0 1 1 1 1 1 1 1 \, knot2 set probab 1 0 1 1 1 1 1 1 \, knot3 set probab 1 1 0 1 1 1 1 1 \, knot4 set probab 1 1 1 0 1 1 1 1 \, knot5 set probab 1 1 1 1 0 1 1 1 \, knot6 set probab 1 1 1 1 1 0 1 1 \, knot7 set probab 1 1 1 1 1 1 0 1 \, knot8 set probab 1 1 1 1 1 1 1 0 \,, f 35;
#X msg 36 221 knot1 set probab 0 1 0 0 0 0 0 0 \, knot2 set probab 0 0 1 0 0 0 0 0 \, knot3 set probab 0 0 0 1 0 0 0 0 \, knot4 set probab 0 0 0 0 1 0 0 0 \, knot5 set probab 0 0 0 0 0 1 0 0 \, knot6 set probab 0 0 0 0 0 0 1 0 \, knot7 set probab 0 0 0 0 0 0 0 1 \, knot8 set probab 1 0 0 0 0 0 0 0 \,, f 38;
#X connect 0 0 7 0;
#X connect 1 0 12 0;
#X connect 2 0 10 0;
#X connect 3 0 11 0;
#X connect 4 0 5 0;
#X connect 6 0 1 0;
#X connect 6 1 2 0;
#X connect 6 2 3 0;
#X connect 7 0 6 0;
#X connect 7 1 9 0;
#X connect 8 0 4 0;
#X connect 9 0 8 0;
#X connect 10 0 8 0;
#X connect 11 0 8 0;
#X connect 12 0 8 0;
#X restore 673 531 pd routing_knots;
#X obj 620 292 vradio 19 1 0 3 empty empty mode -40 10 0 12 #ff0400 #000000 #ff0400 0;
#X obj 673 354 t f b;
#N canvas 518 38 864 1051 event_out 0;
#X obj 136 129 bng 19 250 50 0 empty empty empty 0 -10 0 12 #fcfcfc #000000 #000000;
#X obj 193 432 s preset_interface_r;
#X obj 136 105 r A1;
#X obj 176 129 bng 19 250 50 0 empty empty empty 0 -10 0 12 #fcfcfc #000000 #000000;
#X obj 216 129 bng 19 250 50 0 empty empty empty 0 -10 0 12 #fcfcfc #000000 #000000;
#X obj 256 129 bng 19 250 50 0 empty empty empty 0 -10 0 12 #fcfcfc #000000 #000000;
#X obj 296 129 bng 19 250 50 0 empty empty empty 0 -10 0 12 #fcfcfc #000000 #000000;
#X obj 336 129 bng 19 250 50 0 empty empty empty 0 -10 0 12 #fcfcfc #000000 #000000;
#X obj 376 129 bng 19 250 50 0 empty empty empty 0 -10 0 12 #fcfcfc #000000 #000000;
#X obj 416 129 bng 19 250 50 0 empty empty empty 0 -10 0 12 #fcfcfc #000000 #000000;
#X msg 136 153 0;
#X msg 176 153 1;
#X msg 216 153 2;
#X msg 256 153 3;
#X msg 296 153 4;
#X msg 336 153 5;
#X msg 376 153 6;
#X msg 416 153 7;
#X obj 176 105 r B2;
#X obj 216 105 r C3;
#X obj 256 105 r D4;
#X obj 296 105 r E5;
#X obj 336 105 r F6;
#X obj 376 105 r G7;
#X obj 416 105 r H8;
#X connect 0 0 10 0;
#X connect 2 0 0 0;
#X connect 3 0 11 0;
#X connect 4 0 12 0;
#X connect 5 0 13 0;
#X connect 6 0 14 0;
#X connect 7 0 15 0;
#X connect 8 0 16 0;
#X connect 9 0 17 0;
#X connect 10 0 1 0;
#X connect 11 0 1 0;
#X connect 12 0 1 0;
#X connect 13 0 1 0;
#X connect 14 0 1 0;
#X connect 15 0 1 0;
#X connect 16 0 1 0;
#X connect 17 0 1 0;
#X connect 18 0 3 0;
#X connect 19 0 4 0;
#X connect 20 0 5 0;
#X connect 21 0 6 0;
#X connect 22 0 7 0;
#X connect 23 0 8 0;
#X connect 24 0 9 0;
#X restore 673 560 pd event_out;
#X obj 893 313 list store;
#X obj 893 241 bng 19 250 50 0 empty empty empty 0 -10 0 12 #fcfcfc #000000 #000000;
#X obj 893 337 list trim;
#X obj 893 170 spigot;
#X obj 537 292 tgl 19 0 empty empty Gate -30 10 0 12 #ff0400 #000000 #000000 0 1;
#X obj 893 194 + 0;
#X obj 986 275 r feed_out_31415926;
#X obj 893 407 s feed_in_31415926;
#X obj 893 382 list trim;
#X obj 893 147 r pulse;
#X obj 986 299 route net3;
#X obj 893 360 list prepend net3;
#X obj 111 330 cnv 19 152 280 empty empty CHORD 60 12 0 30 #606060 #404040 0;
#X obj 271 330 cnv 19 152 280 empty empty BASS 70 12 0 30 #606060 #404040 0;
#X obj 431 330 cnv 19 152 280 empty empty DRUM 70 12 0 30 #606060 #404040 0;
#X obj 111 349 tgl 19 0 chord_toggle_interface_s chord_toggle_interface_r chord\ toggle 25 10 0 12 #202020 #ff0400 #bbbbbb 0 1;
#X obj 271 349 tgl 19 0 bass_toggle_interface_s bass_toggle_interface_r bass\ toggle 25 10 0 12 #202020 #ff0400 #bbbbbb 0 1;
#X obj 111 427 hradio 19 1 0 7 instrument_type_interface_s instrument_type_interface_r instrument\ type 20 10 0 12 #202020 #7c7c7c #ff0400 0;
#X obj 111 447 hradio 19 1 0 7 chord_type_interface_s chord_type_interface_r chord\ type 20 10 0 12 #202020 #ff0400 #bbbbbb 0;
#X obj 111 369 hradio 19 1 0 8 chord_rhythm_interface_s chord_rhythm_interface_r chord\ rhythm 20 10 0 12 #202020 #ff0400 #bbbbbb 0;
#X obj 271 369 hradio 19 1 0 8 bass_rhythm_interface_s bass_rhythm_interface_r bass\ rhythm 20 10 0 12 #202020 #ff0400 #bbbbbb 0;
#X obj 114 729 hsl 147 19 100 4000 0 0 chord_duration_interface_s chord_duration_interface_r chord\ duration 20 10 0 12 #202020 #ffffff #ff0400 0 1;
#X obj 333 729 hsl 147 19 100 4000 0 0 bass_duration_interface_s bass_duration_interface_r bass\ duration 20 10 0 12 #202020 #ffffff #ff0400 0 1;
#X obj 431 369 hradio 19 1 0 7 drum_mode_interface_s drum_mode_interface_r drum\ mode 20 10 0 12 #202020 #ff0400 #bbbbbb 0;
#X obj 434 389 hsl 147 19 0 1000 0 0 drum_duration_interface_s drum_duration_interface_r drum\ duration 20 10 0 12 #202020 #ffffff #ff0400 0 1;
#X obj 111 330 tgl 19 0 tonart_gate_interface_s tonart_gate_interface_r tonart\ gate 25 10 0 12 #ff0400 #000000 #ff0400 0 1;
#X obj 431 349 tgl 19 0 drum_gate_interface_s drum_gate_interface_r drum\ gate 25 10 0 12 #ff0400 #000000 #ff0400 0 1;
#X floatatom 111 409 5 0 0 1 atk\ +\ dec chord_duration_interface_s - 0;
#X floatatom 271 409 5 0 0 1 atk\ +\ dec bass_duration_interface_s - 0;
#X floatatom 431 409 5 0 0 0 - drum_duration_interface_s - 0;
#X obj 431 447 hradio 19 1 0 7 fill_mode_interface_s fill_mode_interface_r fill\ mode 20 10 0 12 #202020 #ff0400 #bbbbbb 0;
#X obj 114 467 hsl 147 10 0 2000 0 0 \$0-chord_attack_interface_s \$0-chord_attack_interface_r attack 10 5 0 10 #606060 #ff0400 #bbbbbb 0 1;
#X obj 114 487 hsl 147 10 0 1 0 0 \$0-chord_sustain_interface_s \$0-chord_sustain_interface_r sustain 10 5 0 10 #606060 #ff0400 #bbbbbb 0 1;
#X obj 114 507 hsl 147 10 0 1 0 0 \$0-chord_modulation_interface_s \$0-chord_modulation_interface_r modulation 10 5 0 10 #606060 #ff0400 #bbbbbb 0 1;
#X obj 114 477 hsl 147 10 0 2000 0 0 \$0-chord_decay_interface_s \$0-chord_decay_interface_s decay 10 5 0 10 #606060 #ff0400 #bbbbbb 0 1;
#X obj 114 497 hsl 147 10 0 2000 0 0 \$0-chord_release_interface_s \$0-chord_release_interface_r release 10 5 0 10 #606060 #ff0400 #bbbbbb 0 1;
#X obj 274 467 hsl 147 10 0 2000 0 0 \$0-bass_attack_interface_s \$0-bass_attack_interface_r attack 10 5 0 10 #606060 #ff0400 #bbbbbb 0 1;
#X obj 274 487 hsl 147 10 0 1 0 0 \$0-bass_sustain_interface_s \$0-bass_sustain_interface_r sustain 10 5 0 10 #606060 #ff0400 #bbbbbb 0 1;
#X obj 274 507 hsl 147 10 0 1 0 0 \$0-bass_modulation_interface_s \$0-bass_modulation_interface_r modulation 10 5 0 10 #606060 #ff0400 #bbbbbb 0 1;
#X obj 274 477 hsl 147 10 0 2000 0 0 \$0-bass_decay_interface_s \$0-bass_decay_interface_s decay 10 5 0 10 #606060 #ff0400 #bbbbbb 0 1;
#X obj 274 497 hsl 147 10 0 2000 0 0 \$0-bass_release_interface_s \$0-bass_release_interface_r release 10 5 0 10 #606060 #ff0400 #bbbbbb 0 1;
#X obj 114 517 hsl 147 10 0 1 0 0 \$0-chord_gain_interface_s \$0-chord_gain_interface_r gain 10 5 0 10 #202020 #ff0400 #bbbbbb 0 1;
#X obj 274 517 hsl 147 10 0 1 0 0 \$0-bass_gain_interface_s \$0-bass_gain_interface_r gain 10 5 0 10 #202020 #ff0400 #bbbbbb 0 1;
#X obj 434 467 hsl 147 10 20 20000 1 0 \$0-drum_freq_interface_s \$0-drum_freq_interface_r freq 10 5 0 10 #606060 #ff0400 #bbbbbb 0 1;
#X obj 434 477 hsl 147 10 0 1 0 0 \$0-drum_drywet_interface_s \$0-drum_drywet_interface_s dry/wet 10 5 0 10 #606060 #ff0400 #bbbbbb 0 1;
#X obj 434 516 hsl 147 10 0 1 0 0 \$0-drum_gain_interface_s \$0-drum_gain_interface_r gain 10 5 0 10 #202020 #ff0400 #bbbbbb 0 1;
#X obj 434 487 hsl 147 10 -12 12 0 0 \$0-drum_speed_interface_s \$0-drum_speed_interface_r speed 10 5 0 10 #606060 #ff0400 #bbbbbb 0 1;
#X obj 434 497 hsl 147 10 0 1 0 0 \$0-drum_duration_interface_s \$0-drum_duration_interface_r duration 10 5 0 10 #606060 #ff0400 #bbbbbb 0 1;
#X obj 430 548 tgl 20 0 \$0-repeat_automate_interface_s \$0-repeat_automate_interface_r automate\ repeat 25 10 0 12 #000000 #ff0400 #bbbbbb 0 1;
#X obj 430 527 tgl 20 0 \$0-reverse_automate_interface_s \$0-reverse_automate_interface_r automate\ reverse 25 10 0 12 #000000 #ff0400 #bbbbbb 0 1;
#X obj 430 590 tgl 20 0 \$0-duration_automate_interface_s \$0-duration_automate_interface_r automate\ duration 25 10 0 12 #000000 #ff0400 #bbbbbb 0 1;
#X obj 430 569 tgl 20 0 \$0-speed_automate_interface_s \$0-speed_automate_interface_r automate\ speed 25 10 0 12 #000000 #ff0400 #bbbbbb 0 1;
#X obj 1117 381 r pulse;
#X obj 1117 405 % 16;
#X obj 1117 429 sel 0;
#X obj 1191 472 f;
#X obj 1192 396 t f b;
#X obj 1117 453 spigot;
#X msg 1225 418 1;
#X obj 1191 496 t b f;
#X msg 1147 487 0;
#X obj 1244 496 s \$0-presetNumber_r;
#X floatatom 430 311 5 0 0 0 preset\ number \$0-presetNumber_r \$0-presetNumber_s 0;
#X obj 244 447 tgl 19 0 \$0-chord_change_interface_s \$0-chord_change_interface_r RND 0 10 0 12 #202020 #ff0400 #bbbbbb 0 1;
#X obj 111 547 hradio 19 1 0 5 tonart_interface_s tonart_interface_r tonart\ mode 20 10 0 12 #202020 #7c7c7c #bbbbbb 0;
#X obj 893 217 sel 120;
#X obj 893 265 tgl 19 0 empty empty empty 0 -10 0 12 #fcfcfc #000000 #000000 0 1;
#X obj 893 289 sel 0;
#X obj 871 515 symbol;
#X listbox 468 311 6 0 0 0 - - - 0;
#X obj 112 861 s chord_duration_interface_r;
#X obj 111 749 r \$0-chord_attack_interface_s;
#X obj 112 840 +;
#X obj 123 779 r \$0-chord_decay_interface_s;
#X obj 123 806 t b f;
#X obj 331 840 +;
#X obj 342 806 t b f;
#X obj 330 749 r \$0-bass_attack_interface_s;
#X obj 342 779 r \$0-bass_decay_interface_s;
#X obj 331 861 s bass_duration_interface_r;
#X obj 111 111 cnv 19 528 170 empty empty empty 20 12 0 12 #202020 #404040 0;
#X obj 111 111 net_states;
#X connect 3 0 4 0;
#X connect 4 0 16 0;
#X connect 5 0 95 1;
#X connect 6 0 7 0;
#X connect 16 0 17 0;
#X connect 16 1 8 0;
#X connect 19 0 96 0;
#X connect 35 0 34 0;
#X connect 37 0 38 0;
#X connect 38 0 36 0;
#X connect 38 1 35 0;
#X connect 40 0 42 0;
#X connect 41 0 106 0;
#X connect 42 0 51 0;
#X connect 43 0 45 0;
#X connect 44 0 43 1;
#X connect 45 0 105 0;
#X connect 46 0 50 0;
#X connect 48 0 47 0;
#X connect 49 0 43 0;
#X connect 50 0 40 1;
#X connect 50 0 108 0;
#X connect 51 0 48 0;
#X connect 92 0 93 0;
#X connect 93 0 94 0;
#X connect 94 0 97 0;
#X connect 95 0 99 0;
#X connect 96 0 5 0;
#X connect 96 1 98 0;
#X connect 97 0 95 0;
#X connect 98 0 97 1;
#X connect 99 0 100 0;
#X connect 99 1 3 0;
#X connect 99 1 101 0;
#X connect 100 0 97 1;
#X connect 105 0 41 0;
#X connect 106 0 107 0;
#X connect 107 0 40 0;
#X connect 108 0 109 0;
#X connect 111 0 112 0;
#X connect 112 0 110 0;
#X connect 113 0 114 0;
#X connect 114 0 112 0;
#X connect 114 1 112 1;
#X connect 115 0 119 0;
#X connect 116 0 115 0;
#X connect 116 1 115 1;
#X connect 117 0 115 0;
#X connect 118 0 116 0;
#X coords 0 -1 1 1 550 520 2 100 100;
