#N canvas 0 38 1728 1027 12;
#X obj 101 101 cnv 19 548 398 empty empty empty 20 12 0 12 #404040 #404040 0;
#X floatatom 882 532 5 0 0 1 delay\ in\ ms - - 0;
#N canvas 746 38 960 1027 routing_notes 0;
#X obj 46 162 inlet;
#X obj 46 799 s feed_in_31415926;
#X obj 46 749 list prepend net1;
#X obj 46 773 list trim;
#X msg 46 211 knot1 set event amen1 \, knot2 set event amen2 \, knot3 set event amen3 \, knot4 set event amen4 \, knot5 set event amen5 \, knot6 set event amen6 \, knot7 set event amen7 \, knot8 set event amen8 \, knot9 set event amen9 \, knot10 set event amen10 \, knot11 set event amen11 \, knot12 set event amen12 \, knot13 set event amen13 \, knot14 set event amen14 \, knot15 set event amen15 \, knot16 set event amen16, f 25;
#X connect 0 0 4 0;
#X connect 2 0 3 0;
#X connect 3 0 1 0;
#X connect 4 0 2 0;
#X restore 352 688 pd routing_notes;
#X obj 481 34 loadbang;
#X obj 352 664 bng 19 250 50 0 empty empty empty 0 -10 0 12 #fcfcfc #000000 #000000;
#X obj 352 640 loadbang;
#X obj 822 270 list store;
#X obj 822 248 bng 19 250 50 0 empty empty empty 0 -10 0 12 #fcfcfc #000000 #000000;
#X obj 822 294 list trim;
#X obj 883 485 loadbang;
#X obj 481 183 vradio 19 1 0 7 empty empty empty 0 -10 0 12 #9f9f9f #ff0400 #000000 0;
#X msg 481 58 0;
#X obj 838 62 % 16;
#X floatatom 906 53 5 0 0 0 - - - 0;
#X obj 838 86 spigot;
#X obj 570 135 tgl 19 0 empty empty Gate -40 10 0 12 #ff0400 #000000 #000000 0 1;
#X obj 838 110 + 0;
#X floatatom 884 135 5 0 0 0 - - - 0;
#X msg 935 135 0;
#X obj 915 232 r feed_out_31415926;
#X obj 882 555 s delay_31415926;
#X obj 822 364 s feed_in_31415926;
#X obj 822 339 list trim;
#X msg 780 201 knot1 play;
#X obj 822 317 list prepend net1;
#X obj 915 256 route net1;
#X obj 687 20 r drum_mode;
#N canvas 0 38 1728 1051 notes_out 0;
#X obj 65 643 makenote 100 100;
#X obj 65 732 pack f f;
#X obj 65 756 unpack f f;
#X obj 65 840 noteout;
#X listbox 206 754 20 0 0 0 - - - 0;
#X floatatom 711 641 5 0 0 0 - - - 0;
#X obj 749 565 loadbang;
#X msg 749 589 100;
#X obj 88 798 t f b;
#X msg 125 823 1;
#X obj 65 523 + 36;
#X obj 65 421 t l l;
#X msg 65 445 \$1;
#X msg 98 448 \$2;
#X obj 153 226 t f b;
#X obj 171 251 random 10;
#X obj 171 275 + 60;
#X obj 141 302 pack f f;
#X msg 65 200 0 60;
#X obj 777 66 inlet;
#X obj 112 184 bng 19 250 50 0 empty empty empty 0 -10 0 12 #fcfcfc #000000 #000000;
#X msg 775 608 0;
#X obj 65 152 r amen1;
#X obj 153 154 r amen2;
#X obj 253 226 t f b;
#X obj 271 251 random 10;
#X obj 271 275 + 60;
#X obj 241 302 pack f f;
#X msg 153 202 1;
#X msg 253 202 2;
#X obj 253 154 r amen3;
#X obj 353 226 t f b;
#X obj 371 251 random 10;
#X obj 371 275 + 60;
#X obj 341 302 pack f f;
#X msg 353 202 3;
#X obj 353 154 r amen4;
#X obj 523 226 t f b;
#X obj 541 251 random 10;
#X obj 541 275 + 60;
#X obj 511 302 pack f f;
#X obj 623 226 t f b;
#X obj 641 251 random 10;
#X obj 641 275 + 60;
#X obj 611 302 pack f f;
#X obj 723 226 t f b;
#X obj 741 251 random 10;
#X obj 741 275 + 60;
#X obj 711 302 pack f f;
#X obj 443 226 t f b;
#X obj 461 251 random 10;
#X obj 461 275 + 60;
#X obj 431 302 pack f f;
#X obj 443 154 r amen5;
#X obj 523 154 r amen6;
#X obj 623 154 r amen7;
#X obj 723 154 r amen8;
#X msg 443 202 4;
#X msg 523 202 5;
#X msg 623 202 6;
#X msg 723 202 7;
#X obj 890 227 t f b;
#X obj 908 252 random 10;
#X obj 908 276 + 60;
#X obj 878 303 pack f f;
#X obj 849 185 bng 19 250 50 0 empty empty empty 0 -10 0 12 #fcfcfc #000000 #000000;
#X obj 990 227 t f b;
#X obj 1008 252 random 10;
#X obj 1008 276 + 60;
#X obj 978 303 pack f f;
#X obj 1090 227 t f b;
#X obj 1108 252 random 10;
#X obj 1108 276 + 60;
#X obj 1078 303 pack f f;
#X obj 1260 227 t f b;
#X obj 1278 252 random 10;
#X obj 1278 276 + 60;
#X obj 1248 303 pack f f;
#X obj 1360 227 t f b;
#X obj 1378 252 random 10;
#X obj 1378 276 + 60;
#X obj 1348 303 pack f f;
#X obj 1460 227 t f b;
#X obj 1478 252 random 10;
#X obj 1478 276 + 60;
#X obj 1448 303 pack f f;
#X obj 1180 227 t f b;
#X obj 1198 252 random 10;
#X obj 1198 276 + 60;
#X obj 1168 303 pack f f;
#X obj 802 153 r amen9;
#X msg 802 201 8 60;
#X msg 890 203 9;
#X msg 990 203 10;
#X msg 1090 203 11;
#X msg 1180 203 12;
#X msg 1260 203 13;
#X msg 1360 203 14;
#X msg 1460 203 15;
#X obj 890 155 r amen10;
#X obj 990 155 r amen11;
#X obj 1090 155 r amen12;
#X obj 1180 155 r amen13;
#X obj 1260 155 r amen14;
#X obj 1360 155 r amen15;
#X obj 1460 155 r amen16;
#X connect 0 0 1 0;
#X connect 0 1 1 1;
#X connect 1 0 2 0;
#X connect 1 0 4 0;
#X connect 2 0 3 0;
#X connect 2 1 8 0;
#X connect 5 0 0 2;
#X connect 6 0 7 0;
#X connect 7 0 5 0;
#X connect 8 0 3 1;
#X connect 8 1 9 0;
#X connect 9 0 3 2;
#X connect 10 0 0 0;
#X connect 11 0 12 0;
#X connect 11 1 13 0;
#X connect 12 0 10 0;
#X connect 13 0 0 1;
#X connect 14 0 17 0;
#X connect 14 1 15 0;
#X connect 15 0 16 0;
#X connect 16 0 17 1;
#X connect 17 0 11 0;
#X connect 18 0 11 0;
#X connect 19 0 5 0;
#X connect 21 0 5 0;
#X connect 22 0 18 0;
#X connect 22 0 20 0;
#X connect 23 0 28 0;
#X connect 24 0 27 0;
#X connect 24 1 25 0;
#X connect 25 0 26 0;
#X connect 26 0 27 1;
#X connect 27 0 11 0;
#X connect 28 0 14 0;
#X connect 29 0 24 0;
#X connect 30 0 29 0;
#X connect 31 0 34 0;
#X connect 31 1 32 0;
#X connect 32 0 33 0;
#X connect 33 0 34 1;
#X connect 34 0 11 0;
#X connect 35 0 31 0;
#X connect 36 0 35 0;
#X connect 37 0 40 0;
#X connect 37 1 38 0;
#X connect 38 0 39 0;
#X connect 39 0 40 1;
#X connect 40 0 11 0;
#X connect 41 0 44 0;
#X connect 41 1 42 0;
#X connect 42 0 43 0;
#X connect 43 0 44 1;
#X connect 44 0 11 0;
#X connect 45 0 48 0;
#X connect 45 1 46 0;
#X connect 46 0 47 0;
#X connect 47 0 48 1;
#X connect 48 0 11 0;
#X connect 49 0 52 0;
#X connect 49 1 50 0;
#X connect 50 0 51 0;
#X connect 51 0 52 1;
#X connect 52 0 11 0;
#X connect 53 0 57 0;
#X connect 54 0 58 0;
#X connect 55 0 59 0;
#X connect 56 0 60 0;
#X connect 57 0 49 0;
#X connect 58 0 37 0;
#X connect 59 0 41 0;
#X connect 60 0 45 0;
#X connect 61 0 64 0;
#X connect 61 1 62 0;
#X connect 62 0 63 0;
#X connect 63 0 64 1;
#X connect 64 0 11 0;
#X connect 66 0 69 0;
#X connect 66 1 67 0;
#X connect 67 0 68 0;
#X connect 68 0 69 1;
#X connect 69 0 11 0;
#X connect 70 0 73 0;
#X connect 70 1 71 0;
#X connect 71 0 72 0;
#X connect 72 0 73 1;
#X connect 73 0 11 0;
#X connect 74 0 77 0;
#X connect 74 1 75 0;
#X connect 75 0 76 0;
#X connect 76 0 77 1;
#X connect 77 0 11 0;
#X connect 78 0 81 0;
#X connect 78 1 79 0;
#X connect 79 0 80 0;
#X connect 80 0 81 1;
#X connect 81 0 11 0;
#X connect 82 0 85 0;
#X connect 82 1 83 0;
#X connect 83 0 84 0;
#X connect 84 0 85 1;
#X connect 85 0 11 0;
#X connect 86 0 89 0;
#X connect 86 1 87 0;
#X connect 87 0 88 0;
#X connect 88 0 89 1;
#X connect 89 0 11 0;
#X connect 90 0 91 0;
#X connect 90 0 65 0;
#X connect 91 0 11 0;
#X connect 92 0 61 0;
#X connect 93 0 66 0;
#X connect 94 0 70 0;
#X connect 95 0 86 0;
#X connect 96 0 74 0;
#X connect 97 0 78 0;
#X connect 98 0 82 0;
#X connect 99 0 92 0;
#X connect 100 0 93 0;
#X connect 101 0 94 0;
#X connect 102 0 95 0;
#X connect 103 0 96 0;
#X connect 104 0 97 0;
#X connect 105 0 98 0;
#X restore 771 942 pd notes_out;
#X obj 772 911 hsl 162 19 0 127 0 0 empty empty empty -2 -10 0 12 #fcfcfc #000000 #000000 0 1;
#X text 771 885 Note Length;
#X obj 799 861 r note_len;
#X obj 501 184 cnv 19 130 132 empty empty empty 20 12 0 12 #606060 #404040 0;
#X obj 138 181 cnv 19 19 19 empty empty empty 6 12 0 12 #404040 #ff0400 0;
#X obj 841 31 r pulse;
#X obj 571 67 r drum_gate;
#X obj 1086 121 s drum_pulse;
#X obj 1057 87 sel 0;
#X msg 883 509 0.1;
#X obj 481 343 vradio 19 1 0 7 empty empty empty 0 -10 0 12 #9f9f9f #ff0400 #000000 0;
#X obj 501 344 cnv 19 130 132 empty empty empty 20 12 0 12 #606060 #404040 0;
#X text 502 342 linear;
#X text 504 401 snares only;
#X text 504 420 hats only;
#X text 504 438 snares sparse;
#X text 504 457 sparse anything;
#X text 504 381 uniform no repeat;
#X text 504 363 random uniform;
#X obj 492 162 cnv 19 126 20 empty empty DRUM\ MODE 0 12 0 12 #404040 #ffffff 0;
#X obj 492 322 cnv 19 126 20 empty empty FILL\ MODE 0 12 0 12 #404040 #ffffff 0;
#X floatatom 1142 63 5 0 0 0 - - - 0;
#X obj 626 544 r pulse;
#X obj 698 364 r fill_mode;
#X obj 1442 63 loadbang;
#X msg 1442 87 0;
#X obj 1442 111 s drum_mode;
#X obj 1442 141 s fill_mode;
#X obj 626 568 sel 96;
#X msg 1480 90 2;
#X floatatom 489 123 5 0 0 0 - - - 0;
#X obj 414 562 r pulse;
#X obj 481 542 t f f;
#X obj 476 601 f;
#X obj 414 586 sel 0;
#X obj 643 599 f;
#X msg 880 200 knot9 play;
#X obj 838 156 sel 0 8;
#N canvas 0 38 1704 1051 routing_knots 0;
#X obj 36 32 inlet;
#X obj 36 196 t b b, f 20;
#X obj 476 196 t b b, f 20;
#X obj 661 460 t b b, f 20;
#X obj 878 193 t b b, f 20;
#X obj 1127 186 t b b, f 20;
#X obj 50 923 list prepend net1;
#X obj 50 947 list trim;
#X obj 60 1017 s feed_in_31415926;
#X msg 36 221 knot1 set probab 0 1 0 0 0 0 0 0 0 0 0 0 0 0 0 0 0 \, knot2 set probab 0 0 1 0 0 0 0 0 0 0 0 0 0 0 0 0 0 \, knot3 set probab 0 0 0 1 0 0 0 0 0 0 0 0 0 0 0 0 0 \, knot4 set probab 0 0 0 0 1 0 0 0 0 0 0 0 0 0 0 0 0 \, knot5 set probab 0 0 0 0 0 1 0 0 0 0 0 0 0 0 0 0 0 \, knot6 set probab 0 0 0 0 0 0 1 0 0 0 0 0 0 0 0 0 0 \, knot7 set probab 0 0 0 0 0 0 0 1 0 0 0 0 0 0 0 0 0 \, knot8 set probab 0 0 0 0 0 0 0 0 1 0 0 0 0 0 0 0 0 \, knot9 set probab 0 0 0 0 0 0 0 0 0 1 0 0 0 0 0 0 0 \, knot10 set probab 0 0 0 0 0 0 0 0 0 0 1 0 0 0 0 0 0 \, knot11 set probab 0 0 0 0 0 0 0 0 0 0 0 1 0 0 0 0 0 \, knot12 set probab 0 0 0 0 0 0 0 0 0 0 0 0 1 0 0 0 0 \, knot13 set probab 0 0 0 0 0 0 0 0 0 0 0 0 0 1 0 0 0 \, knot14 set probab 0 0 0 0 0 0 0 0 0 0 0 0 0 0 1 0 0 \, knot15 set probab 0 0 0 0 0 0 0 0 0 0 0 0 0 0 0 1 0 \, knot16 set probab 1 0 0 0 0 0 0 0 0 0 0 0 0 0 0 0 0 \, knot17 set probab 1 0 0 0 0 0 0 0 0 0 0 0 0 0 0 0 0, f 53;
#X msg 50 488 knot1 set knots 1 2 3 4 5 6 7 8 9 10 11 12 13 14 15 16 17 \, knot2 set knots 1 2 3 4 5 6 7 8 9 10 11 12 13 14 15 16 17 \, knot3 set knots 1 2 3 4 5 6 7 8 9 10 11 12 13 14 15 16 17 \, knot4 set knots 1 2 3 4 5 6 7 8 9 10 11 12 13 14 15 16 17 \, knot5 set knots 1 2 3 4 5 6 7 8 9 10 11 12 13 14 15 16 17 \, knot6 set knots 1 2 3 4 5 6 7 8 9 10 11 12 13 14 15 16 17 \, knot7 set knots 1 2 3 4 5 6 7 8 9 10 11 12 13 14 15 16 17 \, knot8 set knots 1 2 3 4 5 6 7 8 9 10 11 12 13 14 15 16 17 \, knot9 set knots 1 2 3 4 5 6 7 8 9 10 11 12 13 14 15 16 17 \, knot10 set knots 1 2 3 4 5 6 7 8 9 10 11 12 13 14 15 16 17 \, knot11 set knots 1 2 3 4 5 6 7 8 9 10 11 12 13 14 15 16 17 \, knot12 set knots 1 2 3 4 5 6 7 8 9 10 11 12 13 14 15 16 17 \, knot13 set knots 1 2 3 4 5 6 7 8 9 10 11 12 13 14 15 16 17 \, knot14 set knots 1 2 3 4 5 6 7 8 9 10 11 12 13 14 15 16 17 \, knot15 set knots 1 2 3 4 5 6 7 8 9 10 11 12 13 14 15 16 17 \, knot16 set knots 1 2 3 4 5 6 7 8 9 10 11 12 13 14 15 16 17 \, knot17 set knots 1 2 3 4 5 6 7 8 9 10 11 12 13 14 15 16 17 \,;
#X text 1371 727 sparse anything;
#X obj 36 56 sel 0 1 2 3 4 5 6, f 224;
#X msg 476 221 knot1 set probab 0 1 0 0 0 0 0 0 0 0 0 0 0 0 0 0 0 \, knot2 set probab 0 0 1 0 0 0 0 0 0 0 0 0 0 0 0 0 0 \, knot3 set probab 0 0 0 1 0 0 0 0 0 0 0 0 0 0 0 0 0 \, knot4 set probab 0 0 0 0 1 1 1 1 1 0 0 0 0 0 0 0 0 \, knot5 set probab 1 0 0 0 0 0 0 0 0 0 0 0 0 0 0 0 0 \, knot6 set probab 0 0 0 0 0 0 1 0 0 0 0 0 0 0 0 0 0 \, knot7 set probab 0 0 0 0 0 0 0 1 0 0 0 0 0 0 0 0 0 \, knot8 set probab 0 0 0 0 0 0 0 0 1 1 1 1 1 0 0 0 0 \, knot9 set probab 0 0 0 0 0 0 0 0 0 1 0 0 0 0 0 0 0 \, knot10 set probab 0 0 0 0 0 0 0 0 0 0 1 0 0 0 0 0 0 \, knot11 set probab 0 0 0 1 0 0 0 0 0 0 0 1 0 0 0 0 0 \, knot12 set probab 0 0 0 1 0 0 0 0 0 0 0 0 1 0 0 0 0 \, knot13 set probab 0 0 0 1 0 0 0 0 0 0 0 0 0 1 0 0 0 \, knot14 set probab 0 0 0 0 0 0 0 0 0 0 0 0 0 0 1 0 0 \, knot15 set probab 0 0 0 0 0 0 0 0 1 0 0 0 0 0 0 1 0 \, knot16 set probab 1 0 0 0 0 0 0 1 0 0 0 0 0 0 0 0 0 \, knot17 set probab 1 1 1 1 1 1 1 1 1 1 1 1 1 1 1 1 1, f 53;
#X msg 661 485 knot1 set probab 0 0 1 0 0 0 0 1 1 1 0 0 0 0 0 0 0 \, knot2 set probab 0 0 1 0 0 0 0 0 0 0 0 0 0 0 0 0 0 \, knot3 set probab 0 0 0 0 0 0 1 1 0 1 0 1 0 0 0 0 0 \, knot4 set probab 0 0 1 0 1 1 1 1 1 0 0 0 0 0 0 0 0 \, knot5 set probab 1 0 1 0 0 0 0 0 0 0 0 0 0 0 0 0 0 \, knot6 set probab 0 0 1 0 0 0 1 0 0 0 0 0 0 0 0 0 0 \, knot7 set probab 0 0 1 0 0 0 0 1 0 0 0 0 0 0 0 0 0 \, knot8 set probab 5 1 1 1 1 1 1 1 1 1 1 1 1 1 1 1 0 \, knot9 set probab 0 0 1 0 0 0 0 0 0 1 0 0 0 0 0 0 0 \, knot10 set probab 0 0 1 0 0 0 0 0 0 0 1 0 0 0 0 0 0 \, knot11 set probab 0 0 1 1 0 0 0 0 0 0 0 1 0 0 0 0 0 \, knot12 set probab 0 0 1 1 0 0 0 0 0 0 0 0 1 0 0 0 0 \, knot13 set probab 0 0 1 1 0 0 0 0 0 0 0 0 0 1 0 0 0 \, knot14 set probab 0 0 1 0 0 0 0 0 0 0 0 0 0 0 1 0 0 \, knot15 set probab 0 0 1 0 0 0 0 0 1 0 0 0 0 0 0 1 0 \, knot16 set probab 5 0 1 0 0 0 0 1 1 0 0 0 0 1 0 0 0 \, knot17 set probab 1 1 1 1 1 1 1 1 1 1 1 1 1 1 1 1 1, f 53;
#X msg 911 217 knot1 set probab 0 1 0 0 0 0 0 0 0 0 0 0 0 0 0 0 0 \, knot2 set probab 0 0 1 0 0 0 1 0 0 0 1 0 0 0 1 0 0 \, knot3 set probab 0 0 1 0 0 0 1 0 0 0 1 0 0 0 1 0 0 \, knot4 set probab 0 0 1 0 0 0 1 0 0 0 1 0 0 0 1 0 0 \, knot5 set probab 0 0 1 0 0 0 1 0 0 0 1 0 0 0 1 0 0 \, knot6 set probab 0 0 1 0 0 0 1 0 0 0 1 0 0 0 1 0 0 \, knot7 set probab 0 0 1 0 0 0 1 0 0 0 1 0 0 0 1 0 0 \, knot8 set probab 0 0 1 0 0 0 1 0 0 0 1 0 0 0 1 0 0 \, knot9 set probab 0 0 0 0 0 0 0 0 0 1 0 0 0 0 0 0 0 \, knot10 set probab 0 0 1 0 0 0 1 0 0 0 1 0 0 0 1 0 0 \, knot11 set probab 0 0 1 0 0 0 1 0 0 0 1 0 0 0 1 0 0 \, knot12 set probab 0 0 1 0 0 0 1 0 0 0 1 0 0 0 1 0 0 \, knot13 set probab 0 0 1 0 0 0 1 0 0 0 1 0 0 0 1 0 0 \, knot14 set probab 0 0 1 0 0 0 1 0 0 0 1 0 0 0 1 0 0 \, knot15 set probab 0 0 1 0 0 0 1 0 0 0 1 0 0 0 1 0 0 \, knot16 set probab 0 0 1 0 0 0 1 0 0 0 1 0 0 0 1 0 0 \, knot17 set probab 1 0 1 0 0 0 1 0 0 0 1 0 0 0 1 0 0 \,, f 54;
#X msg 1115 476 knot1 set probab 0 0 1 0 0 0 0 1 1 1 0 0 0 1 0 0 0 \, knot2 set probab 0 0 1 0 0 0 0 0 0 0 0 0 0 1 0 0 0 \, knot3 set probab 0 0 0 0 0 0 1 1 0 1 0 1 0 1 0 0 0 \, knot4 set probab 0 0 0 1 1 0 0 0 0 0 0 0 0 1 0 0 0 \, knot5 set probab 1 0 0 1 1 0 0 0 0 0 0 0 0 1 0 0 0 \, knot6 set probab 0 0 0 1 1 0 1 0 0 0 0 0 0 1 0 0 0 \, knot7 set probab 0 0 0 1 1 0 0 1 0 0 0 0 0 1 0 0 0 \, knot8 set probab 5 1 0 1 1 1 1 1 1 1 1 1 1 1 1 1 0 \, knot9 set probab 0 0 0 1 1 0 0 0 0 1 0 1 1 1 0 1 0 \, knot10 set probab 0 0 0 1 1 0 0 0 0 0 1 1 1 1 0 0 0 \, knot11 set probab 0 0 0 1 1 0 0 0 0 0 0 1 1 1 0 0 0 \, knot12 set probab 0 0 0 1 1 0 0 0 0 0 0 1 1 1 0 0 0 \, knot13 set probab 0 0 0 1 1 0 0 0 0 0 0 1 1 1 0 0 0 \, knot14 set probab 0 0 0 1 1 0 0 0 0 0 0 1 1 1 1 0 0 \, knot15 set probab 0 0 0 1 1 0 0 0 1 0 0 1 1 1 0 1 0 \, knot16 set probab 5 0 0 1 1 0 0 1 1 0 0 1 1 1 0 1 0 \, knot17 set probab 1 1 1 1 1 1 1 1 1 1 1 1 1 1 1 1 1, f 53;
#X msg 1342 223 knot1 set probab 0 5 0 0 0 0 0 0 0 0 1 0 0 0 0 0 0 \, knot2 set probab 0 0 5 0 0 0 0 0 0 0 0 1 0 0 0 0 0 \, knot3 set probab 0 0 0 5 0 0 0 0 0 0 0 0 1 0 0 0 0 \, knot4 set probab 0 0 0 0 5 0 0 0 0 0 0 0 0 1 0 0 0 \, knot5 set probab 0 0 0 0 0 5 0 0 0 0 0 0 0 0 1 0 0 \, knot6 set probab 0 0 0 0 0 0 5 0 0 0 0 0 0 0 0 1 0 \, knot7 set probab 0 0 0 0 0 0 0 5 0 0 0 0 0 0 0 0 1 \, knot8 set probab 1 0 0 0 0 0 0 0 5 0 0 0 0 0 0 0 0 \, knot9 set probab 0 1 0 0 0 0 0 0 0 5 0 0 0 0 0 0 0 \, knot10 set probab 0 1 0 0 0 0 0 0 0 0 5 0 0 0 0 0 0 \, knot11 set probab 0 0 1 0 0 0 0 0 0 0 0 5 0 0 0 0 0 \, knot12 set probab 0 0 0 1 0 0 0 0 0 0 0 0 5 0 0 0 0 \, knot13 set probab 0 0 0 0 1 0 0 0 0 0 0 0 0 5 0 0 0 \, knot14 set probab 0 0 0 0 0 1 0 0 0 0 0 0 0 0 5 0 0 \, knot15 set probab 0 0 0 0 0 0 1 0 0 0 0 0 0 0 0 5 0 \, knot16 set probab 5 0 0 0 0 0 0 1 0 0 0 0 0 0 0 0 0 \, knot17 set probab 1 0 0 0 0 0 0 0 0 0 0 0 0 0 0 0 0, f 53;
#X msg 1292 749 knot1 set probab 0 0 0 0 0 0 0 0 0 0 0 0 0 0 0 1 0 \, knot2 set probab 1 0 0 0 0 0 0 0 0 0 0 0 0 0 0 0 0 \, knot3 set probab 0 1 0 0 0 0 0 0 0 0 0 0 0 0 0 0 0 \, knot4 set probab 0 0 1 0 0 0 0 0 0 0 0 0 0 0 0 0 0 \, knot5 set probab 0 0 0 1 0 0 0 0 0 0 0 0 0 0 0 0 0 \, knot6 set probab 0 0 0 0 1 0 0 0 0 0 0 0 0 0 0 0 0 \, knot7 set probab 0 0 0 0 0 1 0 0 0 0 0 0 0 0 0 0 0 \, knot8 set probab 0 0 0 0 0 0 1 0 0 0 0 0 0 0 0 0 0 \, knot9 set probab 0 0 0 0 0 0 0 1 0 0 0 0 0 0 0 0 0 \, knot10 set probab 0 0 0 0 0 0 0 0 1 0 0 0 0 0 0 0 0 \, knot11 set probab 0 0 0 0 0 0 0 0 0 1 0 0 0 0 0 0 0 \, knot12 set probab 0 0 0 0 0 0 0 0 0 0 1 0 0 0 0 0 0 \, knot13 set probab 0 0 0 0 0 0 0 0 0 0 0 1 0 0 0 0 0 \, knot14 set probab 0 0 0 0 0 0 0 0 0 0 0 0 1 0 0 0 0 \, knot15 set probab 0 0 0 0 0 0 0 0 0 0 0 0 0 1 0 0 0 \, knot16 set probab 0 0 0 0 0 0 0 0 0 0 0 0 0 0 1 0 0 \, knot17 set probab 1 0 0 0 0 0 0 0 0 0 0 0 0 0 0 0 0, f 54;
#X connect 0 0 12 0;
#X connect 1 0 9 0;
#X connect 1 1 10 0;
#X connect 2 0 13 0;
#X connect 2 1 10 0;
#X connect 3 0 14 0;
#X connect 3 1 10 0;
#X connect 4 0 15 0;
#X connect 5 0 16 0;
#X connect 6 0 7 0;
#X connect 7 0 8 0;
#X connect 9 0 6 0;
#X connect 10 0 6 0;
#X connect 12 0 1 0;
#X connect 12 1 2 0;
#X connect 12 2 3 0;
#X connect 12 3 4 0;
#X connect 12 4 5 0;
#X connect 12 5 17 0;
#X connect 12 6 18 0;
#X connect 13 0 6 0;
#X connect 14 0 6 0;
#X connect 15 0 6 0;
#X connect 16 0 6 0;
#X connect 17 0 6 0;
#X connect 18 0 6 0;
#X restore 488 669 pd routing_knots;
#N canvas 0 38 1532 1051 routing_knots 0;
#X obj 36 32 inlet;
#X obj 36 196 t b b, f 20;
#X obj 476 196 t b b, f 20;
#X obj 661 460 t b b, f 20;
#X obj 878 193 t b b, f 20;
#X text 893 175 snares;
#X obj 1127 186 t b b, f 20;
#X obj 50 923 list prepend net1;
#X obj 50 947 list trim;
#X obj 60 1017 s feed_in_31415926;
#X msg 36 221 knot1 set probab 0 1 0 0 0 0 0 0 0 0 0 0 0 0 0 0 0 \, knot2 set probab 0 0 1 0 0 0 0 0 0 0 0 0 0 0 0 0 0 \, knot3 set probab 0 0 0 1 0 0 0 0 0 0 0 0 0 0 0 0 0 \, knot4 set probab 0 0 0 0 1 0 0 0 0 0 0 0 0 0 0 0 0 \, knot5 set probab 0 0 0 0 0 1 0 0 0 0 0 0 0 0 0 0 0 \, knot6 set probab 0 0 0 0 0 0 1 0 0 0 0 0 0 0 0 0 0 \, knot7 set probab 0 0 0 0 0 0 0 1 0 0 0 0 0 0 0 0 0 \, knot8 set probab 0 0 0 0 0 0 0 0 1 0 0 0 0 0 0 0 0 \, knot9 set probab 0 0 0 0 0 0 0 0 0 1 0 0 0 0 0 0 0 \, knot10 set probab 0 0 0 0 0 0 0 0 0 0 1 0 0 0 0 0 0 \, knot11 set probab 0 0 0 0 0 0 0 0 0 0 0 1 0 0 0 0 0 \, knot12 set probab 0 0 0 0 0 0 0 0 0 0 0 0 1 0 0 0 0 \, knot13 set probab 0 0 0 0 0 0 0 0 0 0 0 0 0 1 0 0 0 \, knot14 set probab 0 0 0 0 0 0 0 0 0 0 0 0 0 0 1 0 0 \, knot15 set probab 0 0 0 0 0 0 0 0 0 0 0 0 0 0 0 1 0 \, knot16 set probab 1 0 0 0 0 0 0 0 0 0 0 0 0 0 0 0 0 \, knot17 set probab 1 0 0 0 0 0 0 0 0 0 0 0 0 0 0 0 0, f 53;
#X msg 50 488 knot1 set knots 1 2 3 4 5 6 7 8 9 10 11 12 13 14 15 16 17 \, knot2 set knots 1 2 3 4 5 6 7 8 9 10 11 12 13 14 15 16 17 \, knot3 set knots 1 2 3 4 5 6 7 8 9 10 11 12 13 14 15 16 17 \, knot4 set knots 1 2 3 4 5 6 7 8 9 10 11 12 13 14 15 16 17 \, knot5 set knots 1 2 3 4 5 6 7 8 9 10 11 12 13 14 15 16 17 \, knot6 set knots 1 2 3 4 5 6 7 8 9 10 11 12 13 14 15 16 17 \, knot7 set knots 1 2 3 4 5 6 7 8 9 10 11 12 13 14 15 16 17 \, knot8 set knots 1 2 3 4 5 6 7 8 9 10 11 12 13 14 15 16 17 \, knot9 set knots 1 2 3 4 5 6 7 8 9 10 11 12 13 14 15 16 17 \, knot10 set knots 1 2 3 4 5 6 7 8 9 10 11 12 13 14 15 16 17 \, knot11 set knots 1 2 3 4 5 6 7 8 9 10 11 12 13 14 15 16 17 \, knot12 set knots 1 2 3 4 5 6 7 8 9 10 11 12 13 14 15 16 17 \, knot13 set knots 1 2 3 4 5 6 7 8 9 10 11 12 13 14 15 16 17 \, knot14 set knots 1 2 3 4 5 6 7 8 9 10 11 12 13 14 15 16 17 \, knot15 set knots 1 2 3 4 5 6 7 8 9 10 11 12 13 14 15 16 17 \, knot16 set knots 1 2 3 4 5 6 7 8 9 10 11 12 13 14 15 16 17 \, knot17 set knots 1 2 3 4 5 6 7 8 9 10 11 12 13 14 15 16 17 \,;
#X msg 476 221 knot1 set probab 1 1 1 1 1 1 1 1 1 1 1 1 1 1 1 1 1 \, knot2 set probab 1 1 1 1 1 1 1 1 1 1 1 1 1 1 1 1 1 \, knot3 set probab 1 1 1 1 1 1 1 1 1 1 1 1 1 1 1 1 1 \, knot4 set probab 1 1 1 1 1 1 1 1 1 1 1 1 1 1 1 1 1 \, knot5 set probab 1 1 1 1 1 1 1 1 1 1 1 1 1 1 1 1 1 \, knot6 set probab 1 1 1 1 1 1 1 1 1 1 1 1 1 1 1 1 1 \, knot7 set probab 1 1 1 1 1 1 1 1 1 1 1 1 1 1 1 1 1 \, knot8 set probab 1 1 1 1 1 1 1 1 1 1 1 1 1 1 1 1 1 \, knot9 set probab 1 1 1 1 1 1 1 1 1 1 1 1 1 1 1 1 1 \, knot10 set probab 1 1 1 1 1 1 1 1 1 1 1 1 1 1 1 1 1 \, knot11 set probab 1 1 1 1 1 1 1 1 1 1 1 1 1 1 1 1 1 \, knot12 set probab 1 1 1 1 1 1 1 1 1 1 1 1 1 1 1 1 1 \, knot13 set probab 1 1 1 1 1 1 1 1 1 1 1 1 1 1 1 1 1 \, knot14 set probab 1 1 1 1 1 1 1 1 1 1 1 1 1 1 1 1 1 \, knot15 set probab 1 1 1 1 1 1 1 1 1 1 1 1 1 1 1 1 1 \, knot16 set probab 1 1 1 1 1 1 1 1 1 1 1 1 1 1 1 1 1 \, knot17 set probab 1 1 1 1 1 1 1 1 1 1 1 1 1 1 1 1 1 \,, f 53;
#X text 1171 164 hats;
#X msg 661 485 knot1 set probab 0 1 1 1 1 1 1 1 1 1 0 1 1 1 1 1 0 \, knot2 set probab 1 0 1 0 1 0 1 0 1 0 1 0 1 1 1 1 0 \, knot3 set probab 1 1 0 1 1 1 1 1 1 1 1 1 1 1 0 1 0 \, knot4 set probab 1 0 1 0 1 0 1 0 1 0 1 0 1 1 1 1 0 \, knot5 set probab 1 1 1 1 0 1 1 1 1 1 1 1 0 1 1 1 0 \, knot6 set probab 1 0 1 0 1 0 1 0 1 0 1 0 1 1 1 1 0 \, knot7 set probab 1 1 1 1 1 1 0 1 1 1 1 1 1 0 1 0 0 \, knot8 set probab 1 0 1 0 1 0 1 0 1 0 1 0 1 1 1 1 0 \, knot9 set probab 1 1 1 1 1 1 1 1 0 1 1 1 1 1 1 1 0 \, knot10 set probab 1 0 1 0 1 0 1 0 1 0 1 0 1 1 1 1 0 \, knot11 set probab 0 1 1 1 1 1 1 1 1 1 0 1 1 1 1 1 0 \, knot12 set probab 1 0 1 0 1 0 1 0 1 0 1 0 1 1 1 1 0 \, knot13 set probab 1 1 1 1 0 1 1 1 1 1 1 1 0 1 1 1 0 \, knot14 set probab 1 1 1 1 1 1 0 1 1 1 1 1 1 0 1 0 0 \, knot15 set probab 1 1 0 1 1 1 1 1 1 1 1 1 1 1 0 1 0 \, knot16 set probab 1 1 1 1 1 1 0 1 1 1 1 1 1 0 1 0 0 \, knot17 set probab 1 1 1 1 1 1 0 1 1 1 1 1 1 0 1 0 0 \,, f 54;
#X text 1385 196 sparse snares;
#X text 1371 727 sparse anything;
#X msg 1292 749 knot1 set probab 1 1 1 1 1 1 1 1 1 1 1 1 1 1 1 1 5 \, knot2 set probab 1 1 1 1 1 1 1 1 1 1 1 1 1 1 1 1 5 \, knot3 set probab 1 1 1 1 1 1 1 1 1 1 1 1 1 1 1 1 5 \, knot4 set probab 1 1 1 1 1 1 1 1 1 1 1 1 1 1 1 1 5 \, knot5 set probab 1 1 1 1 1 1 1 1 1 1 1 1 1 1 1 1 5 \, knot6 set probab 1 1 1 1 1 1 1 1 1 1 1 1 1 1 1 1 5 \, knot7 set probab 1 1 1 1 1 1 1 1 1 1 1 1 1 1 1 1 5 \, knot8 set probab 1 1 1 1 1 1 1 1 1 1 1 1 1 1 1 1 5 \, knot9 set probab 1 1 1 1 1 1 1 1 1 1 1 1 1 1 1 1 5 \, knot10 set probab 1 1 1 1 1 1 1 1 1 1 1 1 1 1 1 1 5 \, knot11 set probab 1 1 1 1 1 1 1 1 1 1 1 1 1 1 1 1 5 \, knot12 set probab 1 1 1 1 1 1 1 1 1 1 1 1 1 1 1 1 5 \, knot13 set probab 1 1 1 1 1 1 1 1 1 1 1 1 1 1 1 1 5 \, knot14 set probab 1 1 1 1 1 1 1 1 1 1 1 1 1 1 1 1 5 \, knot15 set probab 1 1 1 1 1 1 1 1 1 1 1 1 1 1 1 1 5 \, knot16 set probab 1 1 1 1 1 1 1 1 1 1 1 1 1 1 1 1 5 \, knot17 set probab 1 1 1 1 1 1 1 1 1 1 1 1 1 1 1 1 10 \,, f 55;
#X obj 36 56 sel 0 1 2 3 4 5 6, f 224;
#X msg 878 218 knot1 set probab 0 0 1 0 0 0 1 0 0 0 1 0 0 0 1 0 0 \, knot2 set probab 0 0 1 0 0 0 1 0 0 0 1 0 0 0 1 0 0 \, knot3 set probab 0 0 1 0 0 0 1 0 0 0 1 0 0 0 1 0 0 \, knot4 set probab 0 0 1 0 0 0 1 0 0 0 1 0 0 0 1 0 0 \, knot5 set probab 0 0 1 0 0 0 1 0 0 0 1 0 0 0 1 0 0 \, knot6 set probab 0 0 1 0 0 0 1 0 0 0 1 0 0 0 1 0 0 \, knot7 set probab 0 0 1 0 0 0 1 0 0 0 1 0 0 0 1 0 0 \, knot8 set probab 0 0 1 0 0 0 1 0 0 0 1 0 0 0 1 0 0 \, knot9 set probab 0 0 1 0 0 0 1 0 0 0 1 0 0 0 1 0 0 \, knot10 set probab 0 0 1 0 0 0 1 0 0 0 1 0 0 0 1 0 0 \, knot11 set probab 0 0 1 0 0 0 1 0 0 0 1 0 0 0 1 0 0 \, knot12 set probab 0 0 1 0 0 0 1 0 0 0 1 0 0 0 1 0 0 \, knot13 set probab 0 0 1 0 0 0 1 0 0 0 1 0 0 0 1 0 0 \, knot14 set probab 0 0 1 0 0 0 1 0 0 0 1 0 0 0 1 0 0 \, knot15 set probab 0 0 1 0 0 0 1 0 0 0 1 0 0 0 1 0 0 \, knot16 set probab 0 0 1 0 0 0 1 0 0 0 1 0 0 0 1 0 0 \, knot17 set probab 0 0 1 0 0 0 1 0 0 0 1 0 0 0 1 0 0 \,, f 54;
#X msg 1342 223 knot1 set probab 0 0 1 0 0 0 1 0 0 0 1 0 0 0 1 0 5 \, knot2 set probab 0 0 1 0 0 0 1 0 0 0 1 0 0 0 1 0 5 \, knot3 set probab 0 0 1 0 0 0 1 0 0 0 1 0 0 0 1 0 5 \, knot4 set probab 0 0 1 0 0 0 1 0 0 0 1 0 0 0 1 0 5 \, knot5 set probab 0 0 1 0 0 0 1 0 0 0 1 0 0 0 1 0 5 \, knot6 set probab 0 0 1 0 0 0 1 0 0 0 1 0 0 0 1 0 5 \, knot7 set probab 0 0 1 0 0 0 1 0 0 0 1 0 0 0 1 0 5 \, knot8 set probab 0 0 1 0 0 0 1 0 0 0 1 0 0 0 1 0 5 \, knot9 set probab 0 0 1 0 0 0 1 0 0 0 1 0 0 0 1 0 5 \, knot10 set probab 0 0 1 0 0 0 1 0 0 0 1 0 0 0 1 0 5 \, knot11 set probab 0 0 1 0 0 0 1 0 0 0 1 0 0 0 1 0 5 \, knot12 set probab 0 0 1 0 0 0 1 0 0 0 1 0 0 0 1 0 5 \, knot13 set probab 0 0 1 0 0 0 1 0 0 0 1 0 0 0 1 0 5 \, knot14 set probab 0 0 1 0 0 0 1 0 0 0 1 0 0 0 1 0 5 \, knot15 set probab 0 0 1 0 0 0 1 0 0 0 1 0 0 0 1 0 5 \, knot16 set probab 0 0 1 0 0 0 1 0 0 0 1 0 0 0 1 0 5 \, knot17 set probab 0 0 1 0 0 0 1 0 0 0 1 0 0 0 1 0 5 \,, f 53;
#X msg 1115 476 knot1 set probab 0 0 0 1 1 1 0 1 0 0 0 1 1 1 0 1 0 \, knot2 set probab 0 0 0 1 1 1 0 1 0 0 0 1 1 1 0 1 0 \, knot3 set probab 0 0 0 1 1 1 0 1 0 0 0 1 1 1 0 1 0 \, knot4 set probab 0 0 0 1 1 1 0 1 0 0 0 1 1 1 0 1 0 \, knot5 set probab 0 0 0 1 1 1 0 1 0 0 0 1 1 1 0 1 0 \, knot6 set probab 0 0 0 1 1 1 0 1 0 0 0 1 1 1 0 1 0 \, knot7 set probab 0 0 0 1 1 1 0 1 0 0 0 1 1 1 0 1 0 \, knot8 set probab 0 0 0 1 1 1 0 1 0 0 0 1 1 1 0 1 0 \, knot9 set probab 0 0 0 1 1 1 0 1 0 0 0 1 1 1 0 1 0 \, knot10 set probab 0 0 0 1 1 1 0 1 0 0 0 1 1 1 0 1 0 \, knot11 set probab 0 0 0 1 1 1 0 1 0 0 0 1 1 1 0 1 0 \, knot12 set probab 0 0 0 1 1 1 0 1 0 0 0 1 1 1 0 1 0 \, knot13 set probab 0 0 0 1 1 1 0 1 0 0 0 1 1 1 0 1 0 \, knot14 set probab 0 0 0 1 1 1 0 1 0 0 0 1 1 1 0 1 0 \, knot15 set probab 0 0 0 1 1 1 0 1 0 0 0 1 1 1 0 1 0 \, knot16 set probab 0 0 0 1 1 1 0 1 0 0 0 1 1 1 0 1 0 \, knot17 set probab 0 0 0 1 1 1 0 1 0 0 0 1 1 1 0 1 0 \,, f 54;
#X connect 0 0 18 0;
#X connect 1 0 10 0;
#X connect 1 1 11 0;
#X connect 2 0 12 0;
#X connect 2 1 11 0;
#X connect 3 0 14 0;
#X connect 3 1 11 0;
#X connect 4 0 19 0;
#X connect 6 0 21 0;
#X connect 7 0 8 0;
#X connect 8 0 9 0;
#X connect 10 0 7 0;
#X connect 11 0 7 0;
#X connect 12 0 7 0;
#X connect 14 0 7 0;
#X connect 17 0 7 0;
#X connect 18 0 1 0;
#X connect 18 1 2 0;
#X connect 18 2 3 0;
#X connect 18 3 4 0;
#X connect 18 4 6 0;
#X connect 18 5 20 0;
#X connect 18 6 17 0;
#X connect 19 0 7 0;
#X connect 20 0 7 0;
#X connect 21 0 7 0;
#X restore 639 664 pd routing_knots;
#X text 502 182 Rhythm 1 (linear);
#X text 504 203 Rhythm 2;
#X text 504 221 Rhythm 3;
#X text 504 241 Rhythm 4;
#X text 504 260 Rhythm 5;
#X text 504 278 Rhythm 6;
#X obj 789 163 bng 19 250 50 0 empty empty empty 0 -10 0 12 #fcfcfc #000000 #000000;
#X listbox 1018 315 20 0 0 0 - - - 0;
#X obj 1017 288 symbol;
#X text 504 297 Rhythm 7 (backward);
#X obj 111 112 cnv 19 353 373 empty empty empty 20 12 0 12 #202020 #404040 0;
#X obj 111 112 net_drums;
#X connect 1 0 20 0;
#X connect 3 0 11 0;
#X connect 4 0 2 0;
#X connect 5 0 4 0;
#X connect 6 0 8 0;
#X connect 7 0 6 0;
#X connect 8 0 24 0;
#X connect 9 0 37 0;
#X connect 10 0 60 0;
#X connect 11 0 10 0;
#X connect 11 0 38 0;
#X connect 12 0 13 0;
#X connect 12 0 14 0;
#X connect 14 0 16 0;
#X connect 15 0 14 1;
#X connect 16 0 36 0;
#X connect 16 0 65 0;
#X connect 17 0 16 1;
#X connect 18 0 17 0;
#X connect 19 0 25 0;
#X connect 22 0 21 0;
#X connect 23 0 24 0;
#X connect 24 0 22 0;
#X connect 25 0 6 1;
#X connect 25 0 76 0;
#X connect 26 0 10 0;
#X connect 28 0 27 0;
#X connect 30 0 28 0;
#X connect 33 0 12 0;
#X connect 33 0 49 0;
#X connect 34 0 15 0;
#X connect 36 0 35 0;
#X connect 37 0 1 0;
#X connect 38 0 63 1;
#X connect 50 0 56 0;
#X connect 51 0 38 0;
#X connect 52 0 53 0;
#X connect 52 0 57 0;
#X connect 53 0 54 0;
#X connect 56 0 63 0;
#X connect 57 0 55 0;
#X connect 59 0 62 0;
#X connect 60 0 61 1;
#X connect 60 1 66 0;
#X connect 61 0 66 0;
#X connect 62 0 61 0;
#X connect 62 0 4 0;
#X connect 63 0 67 0;
#X connect 64 0 24 0;
#X connect 65 0 23 0;
#X connect 65 0 74 0;
#X connect 65 1 64 0;
#X connect 65 2 7 0;
#X connect 76 0 75 0;
#X coords 0 -1 1 1 550 400 1 100 100;
