#N canvas 0 38 1728 1051 12;
#N canvas 0 38 864 1051 \$0-patch 0;
#X obj 284 424 knot 1 123 70 #FFA500 #000000 #000000 a;
#X obj 353 405 knot 2 123 70 #FFFF00 #ffffff #000000 bb;
#X obj 405 354 knot 3 123 70 #008000 #000000 #000000 ccc;
#X obj 424 284 knot 4 123 70 #0000FF #ffffff #000000 d\ d;
#X obj 405 214 knot 5 123 70 #EE82EE #000000 #000000 \ e\ ;
#X obj 354 162 knot 6 123 70 #FF0000 #000000 #000000 f;
#X obj 284 144 knot 7 123 70 #FFA500 #000000 #000000 g;
#X obj 214 162 knot 8 123 70 #FFFF00 #ffffff #000000 h;
#X obj 162 213 knot 9 123 70 #008000 #000000 #000000 i;
#X obj 144 283 knot 10 123 70 #0000FF #ffffff #000000 ◻︎;
#X obj 162 353 knot 11 123 70 #EE82EE #000000 #000000 ∂;
#X obj 213 405 knot 12 123 70 #FF0000 #000000 #000000 +;
#X coords 0 -1 1 1 451 451 2 100 100;
#X restore 101 101 pd \$0-patch;
#X obj 633 179 bng 19 250 50 0 empty empty click\ first 0 -10 0 12 #00ff04 #000000 #000000;
#N canvas 0 38 1728 1051 create_shapes 0;
#X floatatom 668 119 5 0 0 1 patch\ size - - 0;
#X msg 668 188 donecanvasdialog 1 -1 2 0 -1 1 1 \$1 \$2 100 100;
#X obj 668 167 pack f f;
#X obj 668 214 s pd-\$0-patch;
#X obj 668 142 t f f f;
#X obj 706 236 * 0.5;
#X obj 706 260 int;
#X floatatom 706 284 5 0 0 1 center\ point - - 0;
#X floatatom 901 450 5 0 0 1 knot\ size - - 0;
#X obj 902 514 * 0.5;
#X obj 902 538 int;
#X floatatom 902 562 5 0 0 1 positional\ offset - - 0;
#X obj 681 60 s pd-\$0-patch;
#X msg 681 36 clear;
#X obj 491 1229 s pd-\$0-patch;
#X obj 697 464 until;
#X obj 697 502 f;
#X obj 735 495 + 1;
#X obj 790 491 sel 0;
#X obj 767 683 list store;
#X floatatom 960 757 5 0 0 1 radius - - 0;
#X obj 742 395 t f f, f 11;
#X obj 779 617 loadbang;
#X msg 767 579 get \$1;
#X obj 697 441 bng 19 250 50 0 empty empty empty 0 -10 0 12 #fcfcfc #000000 #000000;
#X obj 699 730 list store;
#X msg 693 703 get \$1;
#X obj 699 754 expr sin(2*3.14159*$f1/12)*$f2 \; cos(2*3.14159*$f1/12)*$f2 \;;
#X obj 699 792 +;
#X obj 891 791 +;
#X obj 924 792 f;
#X obj 699 816 -;
#X obj 891 815 -;
#X obj 712 367 t b f;
#X obj 698 403 t b b;
#X listbox 886 1044 20 0 0 1 knot\ label - - 0;
#X floatatom 512 897 5 0 0 1 x\ pos - - 0;
#X floatatom 516 929 5 0 0 1 y\ pos - - 0;
#X floatatom 628 990 5 0 0 1 net\ number - - 0;
#X floatatom 574 1022 5 0 0 1 knot\ number - - 0;
#X listbox 718 1087 20 0 0 1 background\ color - - 0;
#X listbox 758 1117 20 0 0 1 front\ color - - 0;
#X listbox 798 1147 20 0 0 1 label\ color - - 0;
#X floatatom 676 1040 5 0 0 1 knot\ size - - 0;
#X obj 901 473 t f f, f 15;
#N canvas 864 38 864 1051 color_choose 0;
#X obj 79 20 inlet;
#X obj 131 800 outlet;
#X obj 242 802 outlet;
#X obj 346 803 outlet;
#X text 226 195 select different option according to knot number;
#X obj 99 728 unpack s s s;
#X obj 87 115 % 12;
#X obj 86 170 route 0 1 2 3 4 5 6 7 8 9 10 11;
#X msg 141 253 #FF0000 #000000 #000000;
#X msg 151 283 #FFA500 #000000 #000000;
#X msg 163 315 #FFFF00 #ffffff #000000;
#X msg 169 343 #008000 #000000 #000000;
#X msg 177 376 #0000FF #ffffff #000000;
#X msg 191 403 #EE82EE #000000 #000000;
#X msg 199 425 #FF0000 #000000 #000000;
#X msg 209 455 #FFA500 #000000 #000000;
#X msg 221 487 #FFFF00 #ffffff #000000;
#X msg 227 515 #008000 #000000 #000000;
#X msg 235 548 #0000FF #ffffff #000000;
#X msg 249 575 #EE82EE #000000 #000000;
#X connect 0 0 6 0;
#X connect 5 0 1 0;
#X connect 5 1 2 0;
#X connect 5 2 3 0;
#X connect 6 0 7 0;
#X connect 7 0 8 0;
#X connect 7 1 9 0;
#X connect 7 2 10 0;
#X connect 7 3 11 0;
#X connect 7 4 12 0;
#X connect 7 5 13 0;
#X connect 7 6 14 0;
#X connect 7 7 15 0;
#X connect 7 8 16 0;
#X connect 7 9 17 0;
#X connect 7 10 18 0;
#X connect 7 11 19 0;
#X connect 8 0 5 0;
#X connect 9 0 5 0;
#X connect 10 0 5 0;
#X connect 11 0 5 0;
#X connect 12 0 5 0;
#X connect 13 0 5 0;
#X connect 14 0 5 0;
#X connect 15 0 5 0;
#X connect 16 0 5 0;
#X connect 17 0 5 0;
#X connect 18 0 5 0;
#X connect 19 0 5 0;
#X restore 734 1059 pd color_choose;
#X obj 612 940 loadbang;
#X obj 574 1045 t f f;
#X obj 697 553 t b f f f f;
#X obj 525 656 loadbang;
#X msg 525 680 0;
#X msg 477 680 1;
#X obj 477 704 + 0;
#X floatatom 477 728 5 0 0 0 - - - 0;
#X obj 626 142 s init;
#X obj 626 118 bng 20 250 50 0 empty empty empty 0 -10 0 12 #fcfcfc #000000 #000000;
#X obj 958 701 loadbang;
#X msg 746 705 0 1 2 3 4 5 6 7 8 9 10 11;
#X obj 706 307 + 100;
#X obj 489 1181 pack f f f f f s s s s, f 54;
#X msg 489 1205 obj \$1 \$2 knot \$3 \$4 \$5 \$6 \$7 \$8 \$9 \;;
#X obj 706 331 - 6;
#X obj 735 521 mod 12;
#X obj 477 751 t b f;
#X obj 477 897 +;
#X text 393 895 for timing;
#X msg 628 39 451;
#X obj 628 63 t f b;
#X obj 510 778 - 0;
#X obj 620 5 t b b, f 14;
#X obj 628 87 t b f;
#X text 1056 646 make text smaller size using the \ ;
#X text 835 282 for a patch of size 451;
#X text 750 309 offset pd window starts here;
#X text 939 578 to center the knot;
#X msg 903 425 70;
#X obj 904 403 loadbang;
#X obj 605 -22 inlet;
#X msg 959 728 140;
#X msg 612 964 123;
#X msg 779 642 a bb ccc d\ d \ e\  f g h i ◻︎ ∂ +;
#X connect 0 0 4 0;
#X connect 1 0 3 0;
#X connect 2 0 1 0;
#X connect 4 0 2 0;
#X connect 4 1 2 1;
#X connect 4 2 5 0;
#X connect 5 0 6 0;
#X connect 6 0 7 0;
#X connect 7 0 58 0;
#X connect 8 0 44 0;
#X connect 9 0 10 0;
#X connect 10 0 11 0;
#X connect 11 0 31 1;
#X connect 11 0 32 1;
#X connect 13 0 12 0;
#X connect 15 0 16 0;
#X connect 16 0 17 0;
#X connect 16 0 48 0;
#X connect 17 0 62 0;
#X connect 18 0 15 1;
#X connect 19 0 35 0;
#X connect 20 0 27 1;
#X connect 21 0 30 0;
#X connect 22 0 80 0;
#X connect 22 0 57 0;
#X connect 23 0 19 0;
#X connect 24 0 15 0;
#X connect 25 0 27 0;
#X connect 26 0 25 0;
#X connect 27 0 28 0;
#X connect 27 1 29 0;
#X connect 28 0 31 0;
#X connect 29 0 32 0;
#X connect 30 0 29 1;
#X connect 30 0 28 1;
#X connect 31 0 36 0;
#X connect 32 0 37 0;
#X connect 33 0 34 0;
#X connect 33 1 21 0;
#X connect 34 0 24 0;
#X connect 35 0 59 8;
#X connect 36 0 64 1;
#X connect 37 0 59 1;
#X connect 38 0 59 3;
#X connect 39 0 47 0;
#X connect 40 0 59 5;
#X connect 41 0 59 6;
#X connect 42 0 59 7;
#X connect 43 0 59 4;
#X connect 44 0 9 0;
#X connect 44 1 43 0;
#X connect 45 0 40 0;
#X connect 45 1 41 0;
#X connect 45 2 42 0;
#X connect 46 0 79 0;
#X connect 47 0 59 2;
#X connect 47 1 45 0;
#X connect 48 0 51 0;
#X connect 48 3 26 0;
#X connect 48 4 23 0;
#X connect 49 0 50 0;
#X connect 50 0 52 1;
#X connect 51 0 52 0;
#X connect 52 0 53 0;
#X connect 53 0 52 1;
#X connect 53 0 63 0;
#X connect 55 0 54 0;
#X connect 56 0 78 0;
#X connect 57 0 25 1;
#X connect 58 0 61 0;
#X connect 59 0 60 0;
#X connect 60 0 14 0;
#X connect 61 0 33 0;
#X connect 62 0 16 1;
#X connect 62 0 18 0;
#X connect 63 0 64 0;
#X connect 63 1 68 0;
#X connect 64 0 59 0;
#X connect 66 0 67 0;
#X connect 67 0 70 0;
#X connect 67 1 50 0;
#X connect 68 0 39 0;
#X connect 69 0 66 0;
#X connect 69 1 13 0;
#X connect 70 0 55 0;
#X connect 70 1 0 0;
#X connect 75 0 8 0;
#X connect 76 0 75 0;
#X connect 77 0 69 0;
#X connect 78 0 20 0;
#X connect 79 0 38 0;
#X connect 80 0 19 1;
#X restore 633 206 pd create_shapes;
#N canvas 0 38 1728 1051 routing_knots 0;
#X obj 36 -28 inlet;
#X obj 35 766 s feed_in_31415926;
#X obj 36 589 list trim;
#X obj 36 -3 t b b;
#X obj 36 565 list prepend net123;
#X text 53 168 100% probability of the next knot being triggered;
#X msg 424 111 knot1 set knots 1 2 3 4 5 6 7 8 9 10 11 12 \, knot2 set knots 1 2 3 4 5 6 7 8 9 10 11 12 \, knot3 set knots 1 2 3 4 5 6 7 8 9 10 11 12 \, knot4 set knots 1 2 3 4 5 6 7 8 9 10 11 12 \, knot5 set knots 1 2 3 4 5 6 7 8 9 10 11 12 \, knot6 set knots 1 2 3 4 5 6 7 8 9 10 11 12 \, knot7 set knots 1 2 3 4 5 6 7 8 9 10 11 12 \, knot8 set knots 1 2 3 4 5 6 7 8 9 10 11 12 \, knot9 set knots 1 2 3 4 5 6 7 8 9 10 11 12 \, knot10 set knots 1 2 3 4 5 6 7 8 9 10 11 12 \, knot11 set knots 1 2 3 4 5 6 7 8 9 10 11 12 \, knot12 set knots 1 2 3 4 5 6 7 8 9 10 11 12 \,, f 48;
#X text 181 572 select correct net;
#X msg 38 198 knot1 set probab 0 1 0 0 0 0 0 0 0 0 0 0 \, knot2 set probab 0 0 1 0 0 0 0 0 0 0 0 0 \, knot3 set probab 0 0 0 1 0 0 0 0 0 0 0 0 \, knot4 set probab 0 0 0 0 1 0 0 0 0 0 0 0 \, knot5 set probab 0 0 0 0 0 1 0 0 0 0 0 0 \, knot6 set probab 0 0 0 0 0 0 1 0 0 0 0 0 \, knot7 set probab 0 0 0 0 0 0 0 1 0 0 0 0 \, knot8 set probab 0 0 0 0 0 0 0 0 1 0 0 0 \, knot9 set probab 0 0 0 0 0 0 0 0 0 1 0 0 \, knot10 set probab 0 0 0 0 0 0 0 0 0 0 1 0 \, knot11 set probab 0 0 0 0 0 0 0 0 0 0 0 1 \, knot12 set probab 1 0 0 0 0 0 0 0 0 0 0 0 \,, f 43;
#X connect 0 0 3 0;
#X connect 2 0 1 0;
#X connect 3 0 8 0;
#X connect 3 1 6 0;
#X connect 4 0 2 0;
#X connect 6 0 4 0;
#X connect 8 0 4 0;
#X restore 633 269 pd routing_knots;
#X obj 633 311 bng 19 250 50 0 empty empty click\ third 0 -10 0 12 #00ff04 #000000 #000000;
#X obj 633 244 bng 19 250 50 0 empty empty click\ second 0 -10 0 12 #00ff04 #000000 #000000;
#X obj 1129 164 r a;
#X obj 1139 184 r bb;
#X obj 1149 204 r ccc;
#X obj 1159 224 r d_d;
#X obj 1169 244 r e;
#X obj 1179 264 r f;
#X obj 1209 164 r g;
#X obj 1219 184 r h;
#X obj 1129 232 bng 19 250 50 0 empty empty empty 0 -10 0 12 #fcfcfc #000000 #000000;
#X obj 1139 252 bng 19 250 50 0 empty empty empty 0 -10 0 12 #fcfcfc #000000 #000000;
#X obj 1149 272 bng 19 250 50 0 empty empty empty 0 -10 0 12 #fcfcfc #000000 #000000;
#X obj 1159 292 bng 19 250 50 0 empty empty empty 0 -10 0 12 #fcfcfc #000000 #000000;
#X obj 1169 312 bng 19 250 50 0 empty empty empty 0 -10 0 12 #fcfcfc #000000 #000000;
#X obj 1179 332 bng 19 250 50 0 empty empty empty 0 -10 0 12 #fcfcfc #000000 #000000;
#X obj 1209 232 bng 19 250 50 0 empty empty empty 0 -10 0 12 #fcfcfc #000000 #000000;
#X obj 1219 252 bng 19 250 50 0 empty empty empty 0 -10 0 12 #fcfcfc #000000 #000000;
#X obj 1229 272 bng 19 250 50 0 empty empty empty 0 -10 0 12 #fcfcfc #000000 #000000;
#X obj 1239 292 bng 19 250 50 0 empty empty empty 0 -10 0 12 #fcfcfc #000000 #000000;
#X obj 1249 312 bng 19 250 50 0 empty empty empty 0 -10 0 12 #fcfcfc #000000 #000000;
#X obj 1229 204 r i;
#X obj 1239 224 r ◻︎;
#X obj 1249 244 r ∂;
#X obj 1259 332 bng 19 250 50 0 empty empty empty 0 -10 0 12 #fcfcfc #000000 #000000;
#X obj 1259 264 r +;
#N canvas 746 38 982 1027 routing_events 0;
#X obj 46 162 inlet;
#X obj 46 799 s feed_in_31415926;
#X obj 46 773 list trim;
#X msg 46 211 knot1 set event a \, knot2 set event bb \, knot3 set event ccc \, knot4 set event d_d \, knot5 set event e \, knot6 set event f \, knot7 set event g \, knot8 set event h \, knot9 set event i \, knot10 set event ◻︎ \, knot11 set event ∂ \, knot12 set event + \,, f 23;
#X obj 46 749 list prepend net123;
#X text 191 747 select correct net;
#X connect 0 0 3 0;
#X connect 2 0 1 0;
#X connect 3 0 4 0;
#X connect 4 0 2 0;
#X restore 633 335 pd routing_events;
#X text 756 271 sets knot addresses and probabilities;
#X text 752 206 creates the objects;
#X text 765 335 sets the address where the 'bang' should go to;
#X obj 865 388 r feed_out_31415926;
#X obj 676 617 s feed_in_31415926;
#X obj 676 517 list store;
#X obj 676 565 list trim;
#X obj 676 462 bng 19 250 50 0 empty empty click\ fourth 0 -10 0 12 #00ff04 #000000 #000000;
#X obj 742 488 list store;
#X obj 676 486 t b b;
#X obj 865 413 route net123;
#X obj 865 437 symbol;
#X listbox 865 461 20 0 0 0 - - - 0;
#X obj 1009 387 spigot;
#X obj 1048 365 tgl 19 0 empty empty empty 0 -10 0 12 #fcfcfc #000000 #000000 0 1;
#X obj 676 541 list prepend net123;
#X obj 821 608 spigot;
#X obj 860 585 tgl 19 0 empty empty empty 0 -10 0 12 #fcfcfc #000000 #000000 0 1;
#X obj 1009 411 print receive next knot;
#X obj 821 632 print play knot;
#X obj 635 60 loadbang;
#X msg 635 84 0.1;
#X obj 396 727 bng 19 250 50 0 empty empty click\ fifth 0 -10 0 12 #00ff04 #000000 #000000;
#X obj 635 108 s delay_31415926;
#X obj 438 799 s delay_31415926;
#N canvas 0 38 1728 1051 routing_knots 0;
#X obj 36 -28 inlet;
#X obj 35 766 s feed_in_31415926;
#X obj 36 589 list trim;
#X obj 36 -3 t b b;
#X obj 36 565 list prepend net123;
#X text 53 168 100% probability of the next knot being triggered;
#X msg 424 111 knot1 set knots 1 2 3 4 5 6 7 8 9 10 11 12 \, knot2 set knots 1 2 3 4 5 6 7 8 9 10 11 12 \, knot3 set knots 1 2 3 4 5 6 7 8 9 10 11 12 \, knot4 set knots 1 2 3 4 5 6 7 8 9 10 11 12 \, knot5 set knots 1 2 3 4 5 6 7 8 9 10 11 12 \, knot6 set knots 1 2 3 4 5 6 7 8 9 10 11 12 \, knot7 set knots 1 2 3 4 5 6 7 8 9 10 11 12 \, knot8 set knots 1 2 3 4 5 6 7 8 9 10 11 12 \, knot9 set knots 1 2 3 4 5 6 7 8 9 10 11 12 \, knot10 set knots 1 2 3 4 5 6 7 8 9 10 11 12 \, knot11 set knots 1 2 3 4 5 6 7 8 9 10 11 12 \, knot12 set knots 1 2 3 4 5 6 7 8 9 10 11 12 \,, f 48;
#X text 181 572 select correct net;
#X msg 38 198 knot1 set probab 1 1 1 1 1 1 1 1 1 1 1 1 \, knot2 set probab 1 1 1 1 1 1 1 1 1 1 1 1 \, knot3 set probab 1 1 1 1 1 1 1 1 1 1 1 1 \, knot4 set probab 1 1 1 1 1 1 1 1 1 1 1 1 \, knot5 set probab 1 1 1 1 1 1 1 1 1 1 1 1 \, knot6 set probab 1 1 1 1 1 1 1 1 1 1 1 1 \, knot7 set probab 1 1 1 1 1 1 1 1 1 1 1 1 \, knot8 set probab 1 1 1 1 1 1 1 1 1 1 1 1 \, knot9 set probab 1 1 1 1 1 1 1 1 1 1 1 1 \, knot10 set probab 1 1 1 1 1 1 1 1 1 1 1 1 \, knot11 set probab 1 1 1 1 1 1 1 1 1 1 1 1 \, knot12 set probab 1 1 1 1 1 1 1 1 1 1 1 1 \,, f 43;
#X connect 0 0 3 0;
#X connect 2 0 1 0;
#X connect 3 0 8 0;
#X connect 3 1 6 0;
#X connect 4 0 2 0;
#X connect 6 0 4 0;
#X connect 8 0 4 0;
#X restore 582 828 pd routing_knots;
#X obj 396 751 t b b b, f 27;
#X obj 120 668 r feed_out_31415926;
#X obj 120 918 s feed_in_31415926;
#X obj 120 768 list store;
#X obj 120 816 list trim;
#X obj 186 739 list store;
#X obj 120 743 t b b;
#X obj 185 709 route net123;
#X obj 120 792 list prepend net123;
#X obj 120 692 t b a;
#X obj 396 775 tgl 19 0 empty empty empty 0 -10 0 12 #fcfcfc #000000 #000000 0 1;
#X obj 396 829 sel 1;
#X obj 120 840 spigot;
#X msg 437 853 0.1;
#X text 466 776 set delay high to stop stack overflow;
#X obj 396 799 t f f;
#X text 705 830 uniform distribution;
#X obj 401 927 bng 19 250 50 0 empty empty click\ sixth 0 -10 0 12 #00ff04 #000000 #000000;
#N canvas 0 38 1728 1051 routing_knots 0;
#X obj 36 -28 inlet;
#X obj 35 766 s feed_in_31415926;
#X obj 36 589 list trim;
#X obj 36 -3 t b b;
#X obj 36 565 list prepend net123;
#X text 53 168 100% probability of the next knot being triggered;
#X msg 424 111 knot1 set knots 1 2 3 4 5 6 7 8 9 10 11 12 \, knot2 set knots 1 2 3 4 5 6 7 8 9 10 11 12 \, knot3 set knots 1 2 3 4 5 6 7 8 9 10 11 12 \, knot4 set knots 1 2 3 4 5 6 7 8 9 10 11 12 \, knot5 set knots 1 2 3 4 5 6 7 8 9 10 11 12 \, knot6 set knots 1 2 3 4 5 6 7 8 9 10 11 12 \, knot7 set knots 1 2 3 4 5 6 7 8 9 10 11 12 \, knot8 set knots 1 2 3 4 5 6 7 8 9 10 11 12 \, knot9 set knots 1 2 3 4 5 6 7 8 9 10 11 12 \, knot10 set knots 1 2 3 4 5 6 7 8 9 10 11 12 \, knot11 set knots 1 2 3 4 5 6 7 8 9 10 11 12 \, knot12 set knots 1 2 3 4 5 6 7 8 9 10 11 12 \,, f 48;
#X text 181 572 select correct net;
#X msg 38 198 knot1 set probab 0 1 0 0 0 0 0 0 0 0 0 0 \, knot2 set probab 0 0 1 0 0 0 0 0 0 0 0 0 \, knot3 set probab 0 0 0 1 0 0 0 0 0 0 0 0 \, knot4 set probab 0 0 0 0 1 0 0 0 0 0 0 0 \, knot5 set probab 0 0 0 0 0 1 0 0 0 0 0 0 \, knot6 set probab 0 0 0 0 0 0 1 0 0 0 0 0 \, knot7 set probab 0 0 0 0 0 0 0 1 0 0 0 0 \, knot8 set probab 0 0 0 0 0 0 0 0 1 0 0 0 \, knot9 set probab 0 0 0 0 0 0 0 0 0 1 0 0 \, knot10 set probab 0 0 0 0 0 0 0 0 0 0 1 0 \, knot11 set probab 0 0 0 0 0 0 0 0 0 0 0 1 \, knot12 set probab 1 0 0 0 0 0 0 0 0 0 0 0 \,, f 43;
#X connect 0 0 3 0;
#X connect 2 0 1 0;
#X connect 3 0 8 0;
#X connect 3 1 6 0;
#X connect 4 0 2 0;
#X connect 6 0 4 0;
#X connect 8 0 4 0;
#X restore 400 954 pd routing_knots;
#X text 523 956 set linear progression again;
#X obj 582 802 bng 19 250 50 0 empty empty empty 0 -10 0 12 #fcfcfc #000000 #000000;
#X obj 619 409 cnv 20 20 20 empty empty empty 20 12 0 12 #00ff04 #404040 0;
#X text 641 408 now press one of the knots!;
#X obj 1008 459 cnv 20 20 20 empty empty empty 20 12 0 12 #00ff04 #404040 0;
#X text 909 482 look! it changed!;
#X obj 676 589 t a a;
#X obj 94 641 cnv 20 20 20 empty empty empty 20 12 0 12 #00ff04 #404040 0;
#X text 120 638 This layout "shorts" the network if you press fifth!;
#X msg 438 775 50;
#X text 422 727 click again to stop;
#X text 480 708 + click on a knot;
#X connect 1 0 2 0;
#X connect 4 0 30 0;
#X connect 5 0 3 0;
#X connect 6 0 14 0;
#X connect 7 0 15 0;
#X connect 8 0 16 0;
#X connect 9 0 17 0;
#X connect 10 0 18 0;
#X connect 11 0 19 0;
#X connect 12 0 20 0;
#X connect 13 0 21 0;
#X connect 25 0 22 0;
#X connect 26 0 23 0;
#X connect 27 0 24 0;
#X connect 29 0 28 0;
#X connect 34 0 41 0;
#X connect 34 0 44 0;
#X connect 36 0 46 0;
#X connect 37 0 82 0;
#X connect 38 0 40 0;
#X connect 39 0 36 1;
#X connect 40 0 36 0;
#X connect 40 1 39 0;
#X connect 41 0 39 1;
#X connect 41 0 42 0;
#X connect 42 0 43 0;
#X connect 44 0 49 0;
#X connect 45 0 44 1;
#X connect 46 0 37 0;
#X connect 47 0 50 0;
#X connect 48 0 47 1;
#X connect 51 0 52 0;
#X connect 52 0 54 0;
#X connect 53 0 57 0;
#X connect 57 0 67 0;
#X connect 57 1 85 0;
#X connect 57 2 77 0;
#X connect 58 0 66 0;
#X connect 60 0 65 0;
#X connect 61 0 69 0;
#X connect 62 0 60 1;
#X connect 63 0 60 0;
#X connect 63 1 62 0;
#X connect 64 0 62 1;
#X connect 65 0 61 0;
#X connect 66 0 63 0;
#X connect 66 1 64 0;
#X connect 67 0 72 0;
#X connect 68 1 70 0;
#X connect 69 0 59 0;
#X connect 70 0 55 0;
#X connect 72 0 68 0;
#X connect 72 1 69 1;
#X connect 74 0 75 0;
#X connect 77 0 56 0;
#X connect 82 0 35 0;
#X connect 82 1 47 0;
#X connect 85 0 55 0;
#X coords 0 -1 1 1 453 473 1 100 100;
